<?xml version="1.0" encoding="utf-8"?>
<!-- Generator: Adobe Illustrator 24.2.1, SVG Export Plug-In . SVG Version: 6.00 Build 0)  -->
<svg version="1.1" id="Laag_1" xmlns="http://www.w3.org/2000/svg" xmlns:xlink="http://www.w3.org/1999/xlink" x="0px" y="0px"
	 viewBox="0 0 960 960" style="enable-background:new 0 0 960 960;" xml:space="preserve">
<style type="text/css">
	.st0{stroke:#000000;stroke-miterlimit:10;}
</style>
<desc>Created with Sketch.</desc>
<path d="M760,278.5C757.5,126.6,634.5,4,482.2,1.5l-0.7,0v0l-2,0l-2,0v0l-0.7,0C323.5,4,200,129.1,200,283.1
	c0,87.3,40,168.1,107.3,221.2l0.5,0.4l11.5,8.3l1,0.8c21.2,16.4,35.1,35.8,41.8,58.5c1.9,6.5,2.8,13.8,2.9,22.7
	c0,3.5,0,6.6-0.2,11.1l-0.2,3.6l-0.3,5.4c-0.9,17.9-0.7,25.2,1.7,33.3l0.2,0.6l0.1,0.4c2.1,6.5,5.7,11.7,10.7,15.4l-0.3,0.4
	l-0.3,0.3c-1.8,2-4,4.9-4.8,6.8l0,0l-0.2,0.1l-0.3,0.1c-2.8,1.6-4.8,4.7-5.6,9c-0.1,0.4-0.1,0.8-0.1,1.3c0.7,28.7,1.2,47.5,1.8,55.8
	l0,0.4l0,0.4l0,0.4c1.6,14.8,15.2,38.6,27.6,46.5l1.1,0.7l0.6,0.7l0,0.1l0.1,0.2c0.3,0.4,0.5,0.8,0.8,1.1l0,0l0.7,1.1
	c1.2,2,1.9,3.1,2.4,4.3l0.2,0.4l0.1,0.3l0,0.1l0.2,0.4l0.2,0.4c0.7,1.6,1.1,2.9,1.3,4.1l0,0.2l0,0.2l0,0.2l0,0.2
	c0.1,0.4,0.3,0.8,0.5,1.1l0,0l0.2,0.9c0.7,2.8,1.4,6.3,2.1,11l0.3,1.9l0.1,1c0.4,3.1,0.8,6.3,1.2,10.4l0.2,2.1l0.4,4.1l0.4,4.6
	l0.5,9.7l0.2,4.8l0.1,2.5c0.1,2.3,0.2,4.5,0.2,6.5l0.1,2.2l0.1,3.2l0,1.8c0.2,8.9,0.1,17.4-0.1,25.4l0,3.1l0,0.2l0,0.2
	c0.1,0.7,0.5,1.2,1.1,1.5l0.1,0l19.2,24.9l0,0.1l0.1,0.2c0.1,0.2,0.2,0.5,0.4,0.7l7,7.2l17.8,18.6l0.1,0.1l0.1,0.1l0.1,0.1l0.3,0.2
	l0.4,0.4c4.8,4.7,9.6,6.6,20.1,7.4l1.1,0.1l1.1,0.1l1.6,0.1h0.4l1.3-0.1c7.3-0.4,12.5-1.4,16.3-2.9l0.3-0.1l0.3-0.1
	c2.4-1.1,3.9-2.2,6.2-4.5l0.2-0.2l0.3-0.2l0.1-0.1l0.1-0.1l0.1-0.1l17.8-18.6l7-7.2l0.1-0.1l0.1-0.1c0.1-0.2,0.2-0.4,0.3-0.6l0-0.1
	l20.2-25.5l0.1-0.1l0.1-0.1c0.3-0.6,0.3-1.3,0.1-1.9l-0.1-0.1l0-2l0-1.7c-0.2-8.6-0.2-17.7,0-27.3c0.1-4,0.3-8.2,0.5-13.1l0.2-5.1
	l0.4-9l0.3-3.9c0.7-7.5,1.2-12.4,1.8-16.9l0.2-1.2l0.5-2.8c0.9-5.2,1.5-8.2,2.1-10.6l0.2-0.8l0.1-0.1c0.2-0.3,0.3-0.6,0.4-0.9
	c0.1-0.8,0.3-1.6,0.6-2.6l0.1-0.4l0.1-0.4l0.6-1.8l0.6-1.2l0.7-1.3c0.5-0.9,0.9-1.7,1.4-2.6l0.6-1.1l0.1-0.1l0.1-0.1
	c0.1-0.2,0.3-0.3,0.4-0.5l0.5-0.6l0.3-0.3l0.8-1l0.1-0.1l0.1-0.1l0.1-0.2l0.2-0.3l0.2-0.1c12.5-8.7,26-33,26.8-47.2
	c0.3-5.4,0.7-15.2,1.1-29.3l0.3-12.7l0.3-13.8v-0.3c0-0.3,0-0.6-0.1-1l-0.1-0.4l-0.1-0.4c-0.9-3.8-2.7-6.5-5.2-8.1l-0.2-0.1
	l-0.1-0.3c-0.5-1.6-1.5-3.1-2.9-4.5l-0.4-0.5l-7.2,0c7.4-3.7,12.3-9.8,14.9-18.2l0.2-0.6l0.2-0.6c2.2-7.9,2.4-15.2,1.5-32.7
	l-0.2-4.9l-0.1-1.9c-0.2-4.6-0.3-7.9-0.3-11.1l0-1.7l0-1.6c0.1-8.5,1-15.6,2.9-21.8c6.8-22.6,20.7-42.1,42-58.5l0.8-0.6l12.2-8.9
	l2-1.6C720.6,449.6,760,369.5,760,283.1L760,278.5z M497.8,942.9l-0.5,0.6l-0.3,0.3l-0.2,0.2c-2.8,2.9-6.1,3.9-14.8,4.4l-1,0l-0.9,0
	l-1.4-0.1c-8.9-0.4-12.3-1.4-15.1-4.3l-0.3-0.3l-0.3-0.4l-0.4-0.4l-0.1-0.1l-7.9-8.4l0.5,0l0.9,0.1c1.8,0.1,3.5,0.2,6,0.2l1.4,0
	l4.5,0l1,0l1.1,0l6.4,0.2c0.3,0,0.6,0,0.9,0l1.2,0l0.8,0l1.3,0l0.6,0l1.1,0l0.9,0l0.9,0l5.3-0.2l0.7,0c0.5,0,1,0,1.5,0l0.7,0l2.3,0
	c3.5,0,5.7,0,7.5-0.1l0.9,0l1.2-0.1l1-0.1h0.3L497.8,942.9z M548.2,791.3l-0.4,1l-0.2,0.6c-0.9,2.1-1.6,4.3-2,6.1
	c-1.3,4.7-2.4,10.3-3.3,16c-0.1,0.5-0.1,1-0.2,1.4l-0.7,6.3l-0.3,2.5c-0.3,2.7-0.5,5-0.7,7.2l-0.1,1.6l-0.1,1.8l-0.1,1.5l-0.1,1.5
	c-0.3,4.4-0.6,9-0.8,14.9l-0.1,3l-0.1,3.1l-0.1,4.5l-0.1,2.6c0,2-0.1,3.9-0.1,5.9l0,2.1l0,4.6l0,8.5l-1.2,0.1
	c-0.3,0-0.7,0.1-1.1,0.1l-0.6,0l-2.2,0.1l-0.8,0.1l-0.5,0l-0.4,0l-0.3,0c-0.8,0-1.6,0-2.6,0.1l-1,0.1l-3.7,0.3l-0.5,0
	c-0.1,0-0.2,0-0.4,0l-0.8,0l-1,0l-3.4,0.2l-0.8,0c-0.2,0-0.5,0-0.7,0l-0.5,0l-0.1,0l-0.6,0.1c-0.4,0-0.8,0.1-1.2,0.1l-1.1,0.1
	l-3.6,0.2l-1.1,0.1l-1.1,0.1l-2,0c-2.8,0-4.4,0.1-6,0.2l-0.7,0.1l-0.4,0l-9.3,0l-0.6,0c-0.4,0-0.8,0-1.3,0l-1.1,0l-4,0.2l-0.6,0
	l-0.5,0l-1,0l-0.9,0l-0.9,0c-0.4,0-0.8,0-1.4-0.1l-2-0.1l-1.7-0.1l-0.9,0l-0.8,0l-10,0l-0.4,0c-0.9-0.1-1.9-0.1-3-0.2l-1.1,0l-0.5,0
	l-1,0l-2.9,0l-0.2,0c-0.9-0.1-1.8-0.2-3.1-0.2l-3.6-0.2l-0.7,0l-1.1-0.1l-0.1,0l-0.6,0c-0.6,0-1.2,0-2.1-0.1l-2.2-0.1
	c-0.4,0-0.8,0-1.1-0.1l-0.5,0l-0.7,0l-0.8,0l-0.6-0.1c-2.5-0.3-4.7-0.4-6.8-0.5l-0.4,0l-0.1,0c-0.6-0.1-1.2-0.2-2.1-0.2l-2.2-0.2
	l-0.6,0l-0.3,0l-0.6-0.1l-0.7-0.1v-13.2l1,0.1c6,0.6,12.7,1,20.1,1.3c13.9,0.8,27.3,1.2,39.1,1.3l2.5,0l2.5,0l0.2,0
	c1.1-0.1,2-1,2-2.1v-5.2l0-0.2c-0.1-1.1-1-2-2.1-2c-15.4,0-30.4-0.4-43.7-1.1l-0.8-0.1c-6.1-0.4-11.1-0.8-15.6-1.2l-2.4-0.2
	l-1.7-0.2l-1.2-0.1l0-1.6c0-1.1,0-2.2-0.1-3.5l0-1.1l-0.1-2.4l-0.1-2.9l8.5,0.7l2.4,0.2c2,0.2,3.7,0.3,5.3,0.4l2.1,0.1l1.7,0.1
	l1.7,0.1l1.6,0.1c13.1,0.7,27.7,1.1,42.5,1.1c1.2,0,2.1-0.9,2.1-2.1v-5l0-0.2c-0.1-1.1-1-2-2.1-2c-10.4,0-22.4-0.3-34.9-0.9
	l-2.9-0.1l-2.9-0.2l-3-0.2l-0.9,0c-3.5-0.1-6.8-0.3-11.8-0.7l-8-0.6l-1.9-0.1l0-0.3c0-0.3,0-0.7,0-1l-0.1-3.4l-0.1-1.1l-0.1-1.2
	l-0.1-1.3c0-0.5-0.1-1-0.1-1.4l-0.1-0.9l0-0.8l1.3,0.1c3.1,0.3,6.6,0.6,11.3,0.9l10,0.7l2,0.1l1.7,0.1c12.6,0.6,26.4,1,40.5,1
	c1.2,0,2.1-0.9,2.1-2.1v-5.2l0-0.2c-0.1-1.1-1-2-2.1-2c-15.4,0-30.4-0.4-43.7-1.1l-0.9-0.1c-7.6-0.4-13.8-0.9-19.3-1.4l-2-0.2
	l-2-0.2l-0.1-1c-0.1-1-0.2-2.1-0.4-3.2l-0.2-1.4l-0.2-1.3l-0.2-1.3l0-0.3c0-0.2,0-0.4-0.1-0.6l-0.1-0.6l-0.1-0.7l-0.2-1.1l0.6,0.1
	c7.2,0.9,15.6,1.6,24.6,2.1l1.9,0.1l1.6,0.1c12.6,0.6,26.5,1,40.6,1c1.2,0,2.1-0.9,2.1-2.1v-5.2l0-0.2c-0.1-1.1-1-2-2.1-2
	c-15.4,0-30.4-0.4-43.7-1.1l-1.2-0.1c-9.4-0.5-18.1-1.2-25.7-2.1l-0.8-0.1l-0.1-0.5c-0.1-0.3-0.2-0.6-0.3-0.9l-0.2-0.7l-0.3-0.9
	l-0.1-0.6c-0.5-2.4-1.2-4.7-2.1-6.6l-0.4-0.8l0.9,0.1l5.4,0.6l1.1,0.1l1.6,0.1l1.4,0.1l5.9,0.4l1.5,0.1c5.5,0.3,9.7,0.6,13.6,0.7
	l1.6,0.1l2.6,0.1l1.7,0l1.9,0.1c10.1,0.5,19.8,0.7,28.9,0.7c9.7,0,20.3-0.3,31-0.8c6.6-0.2,13.1-0.5,21.9-1.1l4.6-0.3l1.3-0.1
	c2.4-0.2,4.9-0.5,7.8-0.8l1.6-0.2l0.4-0.1L548.2,791.3z M579.9,685.3l0.6-0.2l0.5-0.2l0.1,0l1.3-0.2l-0.1,3.8
	c-0.5,20.8-0.9,35.8-1.4,44.7l-0.1,3l-0.1,1.9l0,0.3c-0.9,10.7-12.7,31.5-21.9,37.4l-4.4,2.8l-0.4,0.1c-1,0.1-1.9,0.2-2.8,0.2
	l-0.1,0l-2.6,0.4l-0.6,0.1c-3.6,0.5-6.3,0.8-9.1,0.9l-15,1l-6.7,0.4l-5.2,0.3l-4.1,0.1c-9.6,0.3-17.5,0.4-24.6,0.4l-2.5,0h-1.1
	c-3.8,0-7.4,0-12.4-0.1l-17.7-0.4l-3.4-0.2c-2.1-0.1-4.4-0.3-6.9-0.4l-17.2-1.1l-0.3,0c-1.1-0.1-2.3-0.2-3.8-0.3l-5.6-0.6l-1.7-0.2
	l-2.5-0.4l-1.6-0.2l-4.2-2.7l-0.3-0.2c-9.2-6.2-20.9-27-21.6-37.5c-0.4-6.3-0.8-18.9-1.3-37.5l-0.4-15.9l2.1,0.3l0.4,0.1
	c4.6,1.4,11.7,2.6,22.5,3.7l2,0.2l2.1,0.2l1.9,0.2l1,0.1c14.5,1.3,32.2,2.1,51.4,2.5l2.6,0l3.1,0c4.2,0.1,8.4,0.1,12.7,0.1l0.5,0
	l3.2,0l3.2,0c4.2,0,8.4-0.1,12.5-0.2l2.6-0.1c17.8-0.4,34.2-1.2,47.8-2.3l2-0.2l1.9-0.2l2.1-0.2C567.5,687.9,575,686.8,579.9,685.3z
	 M471.5,680.6l2.9,0l2.8,0l2.8,0l2.7,0c21.5-0.1,42.9-0.8,59.7-2l1.5-0.1l2.2-0.2c12.8-1,21-2.1,26.9-3.7l0.1,0l2.7,2.4l-0.5,0.1
	c-0.4,0.1-0.9,0.2-1.3,0.3c-4,0.9-9.6,1.7-16.5,2.5l-1.5,0.2l-1.5,0.2l-2.3,0.2l-1,0.1c-16.6,1.5-37.7,2.5-60.6,2.8l-4,0l-2.7,0
	l-4,0l-2.7,0c-26.3-0.1-50.8-1.2-69.5-2.9l-1.6-0.2c-7.5-0.7-13.8-1.6-18.4-2.5l-0.9-0.2l-0.9-0.2l-0.9-0.2
	c-0.3-0.1-0.6-0.1-0.8-0.2l-0.1,0l2.6-2.4l0.5,0.1c5.4,1.4,12.9,2.4,24.1,3.3l1.4,0.1l2.9,0.2l2.7,0.2l1.1,0.1
	C434.7,679.8,452.9,680.5,471.5,680.6z M444.5,660.3V493l0-0.6l0-0.5c0.6-18,15.4-32.4,33.5-32.4c18.3,0,33.2,14.7,33.5,32.9l0,0.6
	v167.4c-9.7,0.5-19.5,0.8-29.4,1l-2.6,0l-2.6,0C465.9,661.3,455.1,660.9,444.5,660.3z M645,490.9l-2,1.6l-12.1,8.7l-0.8,0.6
	c-23.7,18.2-39.5,40.3-47.3,66.1c-2.3,7.7-3.4,16.1-3.5,25.9l0,1l0,1.3c0,4.3,0.1,8.3,0.4,14.8l0.3,6.6l0.1,1.9
	c0.6,13.3,0.3,19.3-1.3,24.7l-0.2,0.5c-2.1,6.9-6.4,10.4-15.6,11.5l-2.5,0.3c-13.7,1.6-27.8,2.8-42.2,3.7l0-167.1l0-0.6l0-0.7
	c-0.7-21.8-18.6-39.2-40.5-39.2c-22.1,0-40.1,17.7-40.5,39.8l0,0.6l0,166.9c-14.1-0.9-27.9-2.2-41.3-3.8
	c-9.2-1.1-13.4-4.6-15.5-11.5c-1.8-5.9-2-12.1-1.3-27.7l0.3-6.7c0.3-6.7,0.4-10.8,0.4-15.4l0-1c-0.2-9.8-1.2-18.1-3.5-25.9
	c-7.8-26-23.8-48.3-47.9-66.7l-12.1-8.8l-1.9-1.5c-62.5-50.3-99.6-126-99.6-207.9c0-145.8,116.9-264.2,262.1-266.5l2.4,0l2.4,0
	C627.6,18.9,745,137.3,745,283.1C745,364.9,707.7,440.7,645,490.9z"/>
<g>
	<path class="st0" d="M462.1,459.5h-0.8c-1.1,0-2-0.9-2-2V139.3c0-1.1,0.9-2,2-2h0.8c1.1,0,2,0.9,2,2v318.2
		C464.1,458.6,463.2,459.5,462.1,459.5z"/>
	<path class="st0" d="M494.7,459.5h-0.8c-1.1,0-2-0.9-2-2V139.3c0-1.1,0.9-2,2-2h0.8c1.1,0,2,0.9,2,2v318.2
		C496.7,458.6,495.8,459.5,494.7,459.5z"/>
</g>
<path d="M576.6,411.9l1.1,4c0.6,2.1-0.7,4.3-2.8,4.9l-190.5,51c-2.1,0.6-4.3-0.7-4.9-2.8l-1.1-4c-0.6-2.1,0.7-4.3,2.8-4.9l190.5-51
	C573.8,408.5,576,409.8,576.6,411.9z"/>
<path d="M577.7,310.4l1.1,4c0.6,2.1-0.7,4.3-2.8,4.9l-190.5,51c-2.1,0.6-4.3-0.7-4.9-2.8l-1.1-4c-0.6-2.1,0.7-4.3,2.8-4.9l190.5-51
	C574.9,307,577.1,308.3,577.7,310.4z"/>
<path d="M576.6,209.9l1.1,4c0.6,2.1-0.7,4.3-2.8,4.9l-190.5,51c-2.1,0.6-4.3-0.7-4.9-2.8l-1.1-4c-0.6-2.1,0.7-4.3,2.8-4.9l190.5-51
	C573.8,206.5,576,207.8,576.6,209.9z"/>
<path d="M576,108.8l1.1,4c0.6,2.1-0.7,4.3-2.8,4.9l-190.5,51c-2.1,0.6-4.3-0.7-4.9-2.8l-1.1-4c-0.6-2.1,0.7-4.3,2.8-4.9l190.5-51
	C573.3,105.4,575.4,106.6,576,108.8z"/>
</svg>
