<?xml version="1.0" encoding="utf-8"?>
<!-- Generator: Adobe Illustrator 21.1.0, SVG Export Plug-In . SVG Version: 6.00 Build 0)  -->
<svg version="1.1" id="Laag_1" xmlns="http://www.w3.org/2000/svg" xmlns:xlink="http://www.w3.org/1999/xlink" x="0px" y="0px"
	 viewBox="0 0 448.8 500" style="enable-background:new 0 0 448.8 500;" xml:space="preserve">
<style type="text/css">
	.st0{fill:#8FBB45;}
</style>
<path class="st0" d="M23.3,107C63.6,36.8,154-6,241.5,0.7c41.4,3.2,82.2,15.9,116,37.7c34.8,21.9,61.6,53.3,77.3,88.6
	c16.4,38.7,18,81.9,6.8,121.9c-13.6,53.3-49.3,104.5-104.7,130.2c-10.3,5.3-22.5,6.2-33.4,10c-9.6,4.9-1.7,15.5-1.7,22.9
	c2.6,10.6-4.2,23.5-17.5,24c-24.2,1.6-48.4,0.2-72.6,0.7c1.9,3.1,4.3,6,7.6,8.1c15.5,11.4,31,22.6,46.4,34.1
	c7.1,5,8.7,13.4,6.7,20.9c-46.7,0.3-93.4,0.1-140.1,0.1c-1.3-7.5-0.6-16.5,7.3-21.1c9.2-6,21.2-2,31.2-5.4c-1.3-1.6-2.8-3.1-4.5-4.4
	c-16.6-12-33.1-24.2-49.6-36.3c-7.1-5.2-10.7-14.7-6-22.2c2.7-7.5,11.9-10.6,20.1-10.5c36.3-0.1,72.5-0.9,108.8,0.4
	c6.3,0.2,15.3-0.7,16.7-7.4c0.7-12-7.1-24.5-0.7-36c5-8.7,17.1-9.4,26.5-11.2c31.2-5.2,63.3-15.3,84.9-37.1
	c20.5-20.8,29.3-48.3,35.9-74.8c7.2-36.5,4.2-75.5-15-108.8c-16.5-29.8-44.5-54.2-77.8-68.9c-39.6-18.1-86.1-22.8-129.4-14.2
	c-39.8,8.6-76.8,28.7-102,57.7c-47.2,52.7-49.7,133.8-4.2,188c7.4,10.2,19.4,17.7,23.7,29.6c4.6,12.7-12.5,26.2-26,20.5
	c-10.8-4.3-18.1-13.1-25.4-21C-4.8,258.2-15.3,173,23.3,107z"/>
</svg>
