<?xml version="1.0" encoding="utf-8"?>
<!-- Generator: Adobe Illustrator 21.1.0, SVG Export Plug-In . SVG Version: 6.00 Build 0)  -->
<svg version="1.1" id="Laag_1" xmlns="http://www.w3.org/2000/svg" xmlns:xlink="http://www.w3.org/1999/xlink" x="0px" y="0px"
	 viewBox="0 0 500 500" style="enable-background:new 0 0 500 500;" xml:space="preserve">
<style type="text/css">
	.st0{fill:#3D3884;stroke:#000000;stroke-miterlimit:10;}
	.st1{fill:#8FBB45;stroke:#000000;stroke-miterlimit:10;}
	.st2{fill:none;stroke:#000000;stroke-miterlimit:10;}
	.st3{fill:none;stroke:#1D1D1B;stroke-width:0.25;stroke-miterlimit:10;}
	.st4{fill:none;stroke:#000000;stroke-width:0.25;stroke-miterlimit:10;}
	.st5{fill:#FFFFFF;stroke:#000000;stroke-miterlimit:10;}
	.st6{fill:#FFFFFF;stroke:#1D1D1B;stroke-miterlimit:10;}
	.st7{fill:none;stroke:#1D1D1B;stroke-miterlimit:10;}
	.st8{fill:#0066FF;stroke:#000000;stroke-width:0.5;stroke-linejoin:bevel;stroke-miterlimit:22.9256;}
	.st9{fill:#FFFFFF;}
	.st10{font-family:'ArialMT';}
	.st11{font-size:18px;}
	.st12{fill:#FF0000;stroke:#1D1D1B;stroke-miterlimit:10;}
</style>
<path class="st0" d="M498,132C469.8,74.6,422.4,28.9,364,2.7L139.2,2.4l0,0C78.1,29.9,29.5,79.6,2,140.7v224.6
	C28.2,423.8,73.9,470.9,131.4,499h241c54.7-26.8,98.8-70.9,125.6-125.6L498,132z"/>
<path class="st1" d="M160.7,369.1l-0.1,43.4c0,1.9,1.5,3.7,3.4,3.7h171.5c1.9,0,3.6-1.7,3.6-3.6v-43.4c0-1.9-1.8-3.6-3.7-3.6l0.1,0
	H164.2h-0.1C162.2,365.7,160.7,367.2,160.7,369.1z"/>
<g>
	<path class="st1" d="M227.7,336.7c0-10.1-8.2-18.3-18.3-18.3s-18.3,8.2-18.3,18.3c0,10.1,8.2,18.3,18.3,18.3
		S227.7,346.8,227.7,336.7"/>
	<path class="st1" d="M225,336.7c0-8.6-7-15.6-15.6-15.6c-8.6,0-15.6,7-15.6,15.6c0,8.6,7,15.6,15.6,15.6
		C218,352.3,225,345.3,225,336.7"/>
	<path class="st1" d="M199.6,333.9c-1.6,0-2.8,1.3-2.8,2.8c0,1.6,1.3,2.8,2.8,2.8"/>
	<path class="st1" d="M219.4,339.5c1.6,0,2.8-1.3,2.8-2.8c0-1.6-1.3-2.8-2.8-2.8"/>
	<line class="st1" x1="199.6" y1="333.9" x2="219.4" y2="333.9"/>
	<line class="st1" x1="199.6" y1="339.5" x2="219.4" y2="339.5"/>
</g>
<path class="st2" d="M428.1,131.2l-57.7-57.7c0,0-12.5,12.2-12.5,12.2c0,0,57.7,57.7,57.7,57.7L428.1,131.2l-10.4-10.7l-3.9-3.6
	l-4.8-4.8"/>
<path class="st3" d="M379.9,499"/>
<path class="st3" d="M371.9,3"/>
<path class="st4" d="M498,380.9"/>
<path class="st3" d="M2,372.8"/>
<path class="st2" d="M436.1,288"/>
<path class="st2" d="M436.1,294"/>
<path class="st2" d="M332.6,416.3"/>
<path class="st2" d="M337.9,413.9"/>
<line class="st2" x1="413.5" y1="254.4" x2="413.5" y2="247.9"/>
<path class="st2" d="M337.9,413.9"/>
<path class="st2" d="M339.1,412.7"/>
<line class="st2" x1="403.4" y1="286.2" x2="403.4" y2="273.4"/>
<line class="st2" x1="403.4" y1="228.8" x2="403.4" y2="216"/>
<line class="st2" x1="384.4" y1="255" x2="384.4" y2="247"/>
<line class="st2" x1="379" y1="279.1" x2="379" y2="222.9"/>
<line class="st2" x1="379" y1="275.2" x2="380.2" y2="273.4"/>
<line class="st2" x1="324.5" y1="123.8" x2="175.5" y2="123.8"/>
<line class="st2" x1="324.5" y1="124.7" x2="252.8" y2="124.7"/>
<line class="st2" x1="247.2" y1="124.7" x2="175.5" y2="124.7"/>
<line class="st2" x1="175.5" y1="133.6" x2="247.2" y2="133.6"/>
<line class="st2" x1="252.8" y1="133.6" x2="324.5" y2="133.6"/>
<line class="st2" x1="379" y1="227" x2="380.2" y2="228.8"/>
<line class="st2" x1="176.1" y1="160.4" x2="324.5" y2="160.4"/>
<path class="st2" d="M337.3,412.7"/>
<path class="st2" d="M337.3,369.3"/>
<line class="st2" x1="317.4" y1="133.6" x2="317.4" y2="124.7"/>
<path class="st2" d="M163.3,416"/>
<path class="st2" d="M164.5,414.8"/>
<path class="st2" d="M444.5,208.3"/>
<path class="st2" d="M64.5,208.3"/>
<path class="st2" d="M64.5,208.6"/>
<path class="st2" d="M64.2,210.4"/>
<path class="st2" d="M64.2,210.7"/>
<line class="st2" x1="96.3" y1="216" x2="117.5" y2="216"/>
<line class="st2" x1="382.6" y1="216" x2="403.4" y2="216"/>
<polygon class="st2" points="326.3,187.5 326.3,217.8 309.4,217.8 309.4,187.5 "/>
<line class="st2" x1="403.4" y1="226.7" x2="379" y2="226.7"/>
<line class="st2" x1="121" y1="226.7" x2="96.3" y2="226.7"/>
<line class="st2" x1="259.7" y1="124.7" x2="259.7" y2="133.6"/>
<polyline class="st2" points="252.8,124.7 252.8,152.6 324.5,152.6 "/>
<polyline class="st2" points="247.2,124.7 247.2,152.6 175.5,152.6 "/>
<line class="st2" x1="409.1" y1="251.1" x2="413.2" y2="251.1"/>
<line class="st2" x1="91" y1="251.1" x2="86.5" y2="251.1"/>
<line class="st2" x1="240" y1="133.6" x2="240" y2="124.7"/>
<line class="st2" x1="96.3" y1="275.5" x2="121" y2="275.5"/>
<line class="st2" x1="379" y1="275.5" x2="403.4" y2="275.5"/>
<line class="st2" x1="403.4" y1="286.2" x2="382.6" y2="286.2"/>
<line class="st2" x1="435.5" y1="293.7" x2="436.1" y2="293.7"/>
<path class="st2" d="M435.5,294"/>
<polyline class="st2" points="413.8,385.6 417.4,381.8 380.8,418.7 384.4,414.8 "/>
<path class="st2" d="M415.6,358.8l-57.7,57.7c0,0,12.2,12.5,12.2,12.5c0,0,57.7-57.7,57.7-57.7L415.6,358.8l-10.7,10.4l-3.6,3.9
	l-4.8,4.8"/>
<path class="st2" d="M335.6,414.8"/>
<path class="st2" d="M336.5,416"/>
<line class="st2" x1="182.6" y1="124.7" x2="182.6" y2="133.6"/>
<line class="st2" x1="121" y1="227" x2="119.8" y2="228.8"/>
<line class="st2" x1="121" y1="275.2" x2="119.8" y2="273.4"/>
<line class="st2" x1="121" y1="279.1" x2="121" y2="222.9"/>
<line class="st2" x1="115.7" y1="255" x2="115.7" y2="247"/>
<line class="st2" x1="96.3" y1="216" x2="96.3" y2="228.8"/>
<line class="st2" x1="86.5" y1="247.9" x2="86.5" y2="254.4"/>
<polyline class="st2" points="335.6,412.7 335.6,369.3 164.2,369.3 164.2,369.4 164.2,412.7 335.6,412.7 "/>
<path class="st2" d="M164.2,414.5"/>
<path class="st2" d="M335.6,414.5"/>
<path class="st2" d="M63.6,214.2"/>
<path class="st2" d="M167.4,416.3"/>
<path class="st2" d="M160.9,412.7"/>
<path class="st2" d="M84.4,358.8l57.7,57.7c0,0-12.5,12.5-12.5,12.5c-57.7-57.7,0,0-57.7-57.7L84.4,358.8l43.4,43.4l7.4,7.4"/>
<path class="st2" d="M378.9,227.1c-0.1,0.1-0.2,0.2-0.3,0.3"/>
<path class="st2" d="M379.3,251c0,3.8,1.6,7.3,4.5,9.8"/>
<path class="st2" d="M410.7,258.7c1.6-2.2,2.5-4.9,2.5-7.7"/>
<path class="st2" d="M313.7,177.9c6,0,10.9-4.7,10.9-10.4"/>
<path class="st2" d="M403.3,285.9c19.3,0,35-15.6,35-35c0-19.3-15.7-35-35-35"/>
<path class="st2" d="M403.3,275.2c13.4,0,24.3-10.9,24.3-24.3c0-13.4-10.9-24.2-24.3-24.2"/>
<path class="st2" d="M378.6,274.6c0.1,0.1,0.2,0.2,0.3,0.3"/>
<path class="st2" d="M413.2,251c0-3-1-5.8-2.9-8.1"/>
<path class="st2" d="M383.8,241.2c-2.9,2.5-4.5,6-4.5,9.8"/>
<path class="st2" d="M413.8,251c0-6-4.9-10.9-10.9-10.9c-6,0-10.9,4.9-10.9,10.9c0,6,4.9,10.9,10.9,10.9
	C409,261.8,413.8,257,413.8,251"/>
<path class="st2" d="M403.4,240.4c-3.9-0.2-7.6,1.8-9.6,5.2c-2,3.4-2,7.5,0.1,10.9c2,3.3,5.7,5.3,9.6,5.1"/>
<path class="st2" d="M316.5,392c0-7.3-5.9-13.2-13.2-13.2c-7.3,0-13.2,5.9-13.2,13.2c0,7.3,5.9,13.3,13.2,13.3
	C310.6,405.3,316.5,399.3,316.5,392"/>
<path class="st2" d="M280.8,392c0-7.3-5.9-13.2-13.2-13.2c-7.3,0-13.2,5.9-13.2,13.2c0,7.3,5.9,13.3,13.2,13.3
	C274.9,405.3,280.8,399.3,280.8,392"/>
<path class="st2" d="M335.4,367.5"/>
<path class="st2" d="M337,369.1"/>
<path class="st2" d="M337.1,412.6"/>
<path class="st2" d="M335.4,414.2"/>
<path class="st2" d="M120.8,227.4c-0.1-0.1-0.2-0.2-0.3-0.3"/>
<path class="st2" d="M86.5,251c0,2.9,1,5.7,2.8,8"/>
<path class="st2" d="M115.9,260.8c2.9-2.5,4.5-6,4.5-9.8"/>
<path class="st2" d="M313.8,177.9h-128c-5.7,0-10.4-4.7-10.4-10.4c0,0,0-50.6,0-50.6c0,0,149.1,0,149.1,0v50.6"/>
<g>
	<path class="st5" d="M447,274.3c2.5-21,1.7-42.4-2.5-63.1c-1.4-6.7,2.9-13.2,9.6-14.6c6.7-1.4,13.2,2.9,14.6,9.6
		c4.8,23.6,5.4,48,2.4,72c6.4,6.4,8.3,16.2,4.1,24.3c-4.2,8.1-13.1,12.6-22,11.2c-9-1.5-16-8.6-17.4-17.6
		C434.4,287.1,438.8,278.4,447,274.3z"/>
</g>
<path class="st6" d="M282.6,251c0-18.3-14.7-33.2-32.9-33.2s-32.9,14.9-32.9,33.2c0,18.3,14.7,33.2,32.9,33.2S282.6,269.3,282.6,251
	"/>
<path class="st7" d="M263.9,251c0-7.8-6.3-14.1-14.1-14.1s-14.1,6.3-14.1,14.1c0,7.8,6.3,14.1,14.1,14.1S263.9,258.8,263.9,251"/>
<path class="st7" d="M262.1,251c0-6.8-5.5-12.3-12.3-12.3c-6.8,0-12.3,5.5-12.3,12.3c0,6.8,5.5,12.3,12.3,12.3
	C256.5,263.3,262.1,257.8,262.1,251"/>
<path class="st8" d="M260.6,336.7c0-6-4.9-10.9-10.9-10.9c-6,0-10.9,4.9-10.9,10.9c0,6,4.9,10.9,10.9,10.9
	C255.7,347.5,260.6,342.7,260.6,336.7"/>
<path class="st7" d="M259.1,336.7"/>
<path class="st7" d="M249.7,346.1"/>
<path class="st7" d="M240.3,336.7"/>
<path class="st7" d="M249.7,327.3"/>
<path class="st7" d="M259.1,336.7"/>
<path class="st7" d="M258.2,336.7"/>
<path class="st7" d="M241.2,336.7"/>
<path class="st7" d="M249.7,328.2"/>
<path class="st7" d="M258.2,336.7"/>
<path class="st7" d="M256.7,336.7c0-3.9-3.1-7-7-7c-3.9,0-7,3.1-7,7c0,3.9,3.1,7,7,7C253.6,343.7,256.7,340.5,256.7,336.7"/>
<path class="st2" d="M209.4,392c0-7.3-5.9-13.2-13.2-13.2c-7.3,0-13.2,5.9-13.2,13.2c0,7.3,5.9,13.3,13.2,13.3
	C203.5,405.3,209.4,399.3,209.4,392"/>
<path class="st2" d="M245.1,392c0-7.3-5.9-13.2-13.2-13.2c-7.3,0-13.2,5.9-13.2,13.2c0,7.3,5.9,13.3,13.2,13.3
	C239.2,405.3,245.1,399.3,245.1,392"/>
<path class="st2" d="M164,414.2"/>
<path class="st2" d="M96.2,226.7c-13.4,0-24.3,10.9-24.3,24.3c0,13.4,10.9,24.2,24.3,24.2"/>
<path class="st2" d="M120.5,274.9c0.1-0.1,0.2-0.2,0.3-0.3"/>
<path class="st2" d="M120.4,251c0-3.8-1.6-7.3-4.5-9.8"/>
<path class="st2" d="M89.2,243.1c-1.7,2.3-2.7,5-2.7,7.9"/>
<path class="st2" d="M107.3,251c0-6-4.9-10.9-10.9-10.9c-6,0-10.9,4.9-10.9,10.9c0,6,4.9,10.9,10.9,10.9
	C102.5,261.8,107.3,257,107.3,251"/>
<path class="st2" d="M96,261.5c3.9,0.2,7.6-1.8,9.6-5.2c2-3.4,2-7.5-0.1-10.9c-2-3.3-5.7-5.3-9.6-5.1"/>
<polyline class="st2" points="96.6,261.8 94.2,259.8 92.5,257.1 91.3,254.1 91,251.1 "/>
<polyline class="st2" points="91,251.1 91.3,247.9 92.5,244.9 94.2,242.5 96.6,240.4 "/>
<path class="st2" d="M446,219.3"/>
<polyline class="st2" points="403.1,240.1 405.5,242.2 407.3,244.9 408.5,247.9 409.1,251.1 "/>
<polyline class="st2" points="409.1,251.1 408.5,254.1 407.3,257.1 405.5,259.8 403.1,261.8 "/>
<polyline class="st2" points="384.4,247 384.1,242.2 383.5,237.5 382.3,233 381.4,230.6 380.2,228.8 "/>
<polyline class="st2" points="380.2,273.4 381.4,271.4 382.3,269.3 383.5,264.5 384.1,259.8 384.4,255 "/>
<polyline class="st2" points="115.7,247 116,242.2 116.6,237.5 117.7,233 118.3,230.6 119.8,228.8 "/>
<polyline class="st2" points="119.8,273.4 118.3,271.4 117.7,269.3 116.6,264.5 116,259.8 115.7,255 "/>
<polyline class="st2" points="403.4,273.4 407.6,272.8 411.7,271.4 415.3,269.3 418.3,266.6 420.7,263 422.4,259.2 423.6,255.3 
	423.9,251.1 423.6,247 422.4,242.8 420.7,238.9 418.3,235.7 415.3,233 411.7,230.6 407.6,229.4 403.4,228.8 "/>
<polyline class="st2" points="121,222.9 120.7,221.1 119.8,219.3 117.5,216 "/>
<polyline class="st2" points="380.2,228.8 391.8,228.2 397.7,228.2 403.4,228.8 "/>
<line class="st2" x1="115.7" y1="255" x2="107" y2="254.4"/>
<line class="st2" x1="107" y1="247.9" x2="115.7" y2="247"/>
<polyline class="st2" points="403.4,273.4 397.7,274 391.8,274 380.2,273.4 "/>
<polyline class="st2" points="96.3,228.8 102.3,228.2 107.9,228.2 119.8,228.8 "/>
<polyline class="st2" points="97.8,240.1 98.1,237.2 98.1,234.5 97.5,231.5 96.3,228.8 "/>
<polyline class="st2" points="382.6,286.2 380.2,283 379.3,281.2 379,279.1 "/>
<polyline class="st2" points="97.8,261.8 98.1,264.8 98.1,267.8 97.5,270.8 96.3,273.5 "/>
<polyline class="st2" points="379,275.5 380.2,277.9 381.1,280.6 382.6,286.2 "/>
<line class="st2" x1="384.4" y1="247" x2="392.7" y2="247.9"/>
<polyline class="st2" points="96.3,273.4 102.3,274 107.9,274 119.8,273.4 "/>
<polyline class="st2" points="402.2,261.8 401.9,264.8 401.9,267.8 402.2,270.8 403.4,273.5 "/>
<line class="st2" x1="392.7" y1="254.4" x2="384.4" y2="255"/>
<polyline class="st2" points="402.2,240.1 401.9,237.2 401.9,234.5 402.2,231.5 403.4,228.8 "/>
<polyline class="st2" points="96.3,228.8 92.2,229.4 88.3,230.6 84.7,233 81.7,235.7 79.4,238.9 77.3,242.8 76.4,247 76.1,251.1 
	76.4,255.3 77.3,259.2 79.1,263 81.7,266.6 84.7,269.3 88.3,271.4 92.2,272.9 96.3,273.4 "/>
<polyline class="st2" points="382.6,216 381.1,221.4 380.2,224.1 379,226.7 "/>
<path class="st2" d="M117.5,286.2l2.4-3.3l0.9-1.8l0.3-2.1v-3.6l-1.2,2.4l-0.9,2.7L117.5,286.2c0,0-21.1,0-21.1,0v-12.8l-0.1,12.5
	c-19.3,0-35-15.6-35-35c0-19.3,15.7-35,35-35"/>
<polyline class="st2" points="379,222.9 379.3,221.1 380.2,219.3 382.6,216 "/>
<g>
	<path class="st5" d="M52.8,227.4c-2.5,21-1.7,42.4,2.5,63.1c1.4,6.7-2.9,13.2-9.6,14.6c-6.7,1.4-13.2-2.9-14.6-9.6
		c-4.8-23.6-5.4-48-2.4-72c-6.4-6.4-8.3-16.2-4.1-24.3c4.2-8.1,13.1-12.6,22-11.2c9,1.5,16,8.6,17.4,17.6
		C65.3,214.6,60.9,223.3,52.8,227.4z"/>
</g>
<g>
	<path class="st5" d="M226,447.8c21,2.5,42.4,1.7,63.1-2.5c6.7-1.4,13.2,2.9,14.6,9.6c1.4,6.7-2.9,13.2-9.6,14.6
		c-23.6,4.8-48,5.4-72,2.4c-6.4,6.4-16.2,8.3-24.3,4.1c-8.1-4.2-12.6-13.1-11.2-22c1.5-9,8.6-16,17.6-17.4
		C213.2,435.3,221.9,439.7,226,447.8z"/>
</g>
<g>
	<path class="st6" d="M273.3,54c-21-2.5-42.4-1.7-63.1,2.5c-6.7,1.4-13.2-2.9-14.6-9.6c-1.4-6.7,2.9-13.2,9.6-14.6
		c23.6-4.8,48-5.4,72-2.4c6.4-6.4,16.2-8.3,24.3-4.1c8.1,4.2,12.6,13.1,11.2,22c-1.5,9-8.6,16-17.6,17.4
		C286.1,66.5,277.4,62.1,273.3,54z"/>
</g>
<polyline class="st4" points="127.9,100.1 131.4,96.3 94.8,133.1 98.4,129.3 "/>
<path class="st2" d="M129.7,73.3l-57.7,57.7c0,0,12.2,12.5,12.2,12.5c0,0,57.7-57.7,57.7-57.7L129.7,73.3l-10.7,10.4l-3.6,3.9
	l-4.8,4.8"/>
<polyline class="st2" points="121,226.7 119.8,224.1 118.9,221.4 117.5,216 "/>
<g>
	<path class="st1" d="M308.8,336.7c0-10.1-8.2-18.3-18.3-18.3c-10.1,0-18.3,8.2-18.3,18.3s8.2,18.3,18.3,18.3
		C300.6,355,308.8,346.8,308.8,336.7"/>
	<path class="st1" d="M306.1,336.7c0-8.6-7-15.6-15.6-15.6c-8.6,0-15.6,7-15.6,15.6c0,8.6,7,15.6,15.6,15.6
		C299.1,352.3,306.1,345.3,306.1,336.7"/>
	<path class="st1" d="M280.7,333.9c-1.6,0-2.8,1.3-2.8,2.8c0,1.6,1.3,2.8,2.8,2.8"/>
	<path class="st1" d="M300.4,339.5c1.6,0,2.8-1.3,2.8-2.8c0-1.6-1.3-2.8-2.8-2.8"/>
	<line class="st1" x1="280.7" y1="333.9" x2="300.4" y2="333.9"/>
	<line class="st1" x1="280.7" y1="339.5" x2="300.4" y2="339.5"/>
</g>
<g>
	<path class="st9" d="M349.1,189.5h2l0.6,3.7l0.7-3.7h1.4l0.7,3.7l0.6-3.7h1.9l-1.5,5.5h-1.8l-0.6-2.9l-0.7,2.9h-1.7L349.1,189.5
		L349.1,189.5z M361.9,189.5h2.2l0.9,3.4l1-3.4h2.1l-2.1,5.6h-1.9L361.9,189.5L361.9,189.5z M368.5,189.5v5.5h3.7v-1.4h-1.8v-0.7
		h1.6v-1.4h-1.6v-0.6h1.7v-1.4L368.5,189.5L368.5,189.5z M359.1,193l0.5-1.9l0.4,1.9H359.1z M360.8,189.5h-2.2l-2,5.5h2.1l0.2-0.8
		h1.6l0.2,0.8h2.2L360.8,189.5L360.8,189.5z M346,193.3l-1.1,1.7h-4.6l2.6-4h-2.4l1-1.6h4.5l-2.4,3.8L346,193.3L346,193.3z
		 M343.4,187c-2.9,0-5.3,2.4-5.3,5.3s2.4,5.3,5.3,5.3c2.9,0,5.3-2.4,5.3-5.3S346.3,187,343.4,187L343.4,187z M343.2,180.7V179
		c-7.3,0-13.2,5.9-13.2,13.2c0,0,0,0.1,0,0.1h1.7C331.8,186,336.9,180.8,343.2,180.7z M343.2,184.4v-1.7c0,0,0,0,0,0
		c-5.3,0-9.6,4.3-9.6,9.6c0,0,0,0,0,0h1.7C335.4,188,338.9,184.5,343.2,184.4z"/>
</g>
<g>
	<g id="_x23_ec0444ff">
		<path class="st9" d="M333.5,208.3h0.5c1.2,0.1,2.5,0.6,3.3,1.6c0.7,0.8,1.2,2,1.2,3.1c0,0.9-0.3,1.8-0.7,2.5
			c-0.7,0.1-1.3,0.2-2,0.2c-1.1,0.1-2.3,0.1-3.4,0c1.6-1.6,3.1-3.2,4.7-4.8c0-0.3-0.1-0.6-0.4-0.9c-0.3-0.3-0.6-0.4-1-0.5
			c-0.6-0.1-1.2-0.1-1.8-0.1c-1.1,0-2.3,0.1-3.4,0.2C331.2,208.9,332.4,208.3,333.5,208.3z"/>
		<path class="st9" d="M330,210.2c1.7-0.2,3.5-0.4,5.3-0.2c-1.6,1.6-3.1,3.2-4.7,4.8c0,0.3,0.1,0.6,0.4,0.9c0.3,0.3,0.8,0.4,1.2,0.5
			c1.7,0.2,3.5,0,5.2-0.2c-0.5,0.6-1.1,1-1.8,1.3c-1,0.4-2.1,0.5-3.1,0.2c-0.9-0.3-1.7-0.8-2.3-1.5c-0.6-0.8-1-1.7-1.1-2.7v-0.5
			C329.2,211.8,329.5,211,330,210.2z"/>
	</g>
	<g id="_x23_000000ff">
		<path class="st9" d="M347,208.7c0.4-0.1,0.8,0.1,0.9,0.5c0.2,0.3,0.1,0.7-0.2,1c-0.3,0.3-0.8,0.3-1.1,0.1c-0.3-0.2-0.4-0.7-0.3-1
			C346.5,208.9,346.7,208.7,347,208.7z"/>
		<path class="st9" d="M354.6,209c0.5,0,0.9,0,1.4,0c0,0.8,0,1.5,0,2.3c0.3-0.3,0.6-0.5,1-0.6c0.5-0.1,1.1,0,1.5,0.2
			c0.5,0.3,0.9,0.8,1.1,1.3c0.1,0.4,0.2,0.9,0.1,1.3c0,0.5-0.2,1-0.5,1.4c-0.3,0.4-0.7,0.7-1.1,0.8c-0.4,0.2-0.9,0.2-1.4,0
			c-0.3-0.1-0.6-0.3-0.8-0.6c0,0.2,0,0.4,0,0.7c-0.5,0-0.9,0-1.4,0C354.6,213.5,354.6,211.3,354.6,209 M357,211.8
			c-0.3,0-0.6,0.2-0.8,0.4c-0.3,0.3-0.3,0.8-0.3,1.2c0.1,0.4,0.2,0.7,0.5,0.9c0.4,0.3,1,0.3,1.4,0c0.4-0.3,0.5-0.8,0.5-1.2
			c0-0.4-0.1-0.8-0.4-1C357.8,211.9,357.4,211.8,357,211.8z"/>
		<path class="st9" d="M349.7,210.9c0.4-0.2,0.9-0.3,1.3-0.2c0.5,0.1,1,0.4,1.4,0.9c0-0.3,0-0.5,0-0.8c0.5,0,1,0,1.4,0
			c0,1.4,0,2.8,0,4.2c0,0.6-0.1,1.2-0.3,1.8c-0.2,0.5-0.5,0.9-0.9,1.2c-0.4,0.3-1,0.5-1.6,0.5h-0.3c-0.9,0-1.8-0.4-2.4-1.1
			c0.3-0.3,0.6-0.6,0.9-0.9c0.4,0.4,0.9,0.7,1.4,0.8c0.5,0.1,1.1-0.1,1.4-0.6c0.3-0.4,0.3-0.9,0.3-1.4c-0.2,0.2-0.5,0.5-0.8,0.6
			c-0.4,0.2-0.9,0.2-1.3,0.1c-0.5-0.1-1-0.4-1.3-0.8c-0.4-0.5-0.6-1.1-0.6-1.7c0-0.6,0.1-1.1,0.4-1.6
			C349,211.3,349.4,211,349.7,210.9 M350.9,211.8c-0.3,0.1-0.5,0.2-0.7,0.5c-0.2,0.3-0.3,0.8-0.3,1.2c0,0.4,0.2,0.7,0.5,1
			c0.3,0.2,0.8,0.3,1.1,0.1c0.3-0.1,0.5-0.3,0.6-0.5c0.2-0.4,0.3-0.9,0.1-1.3c-0.1-0.3-0.3-0.6-0.5-0.8
			C351.5,211.8,351.2,211.8,350.9,211.8z"/>
		<path class="st9" d="M361.2,211.2c0.4-0.3,0.9-0.5,1.4-0.5c0.5,0,1,0,1.5,0.2c0.5,0.2,1,0.7,1.2,1.2c0.1,0.3,0.2,0.7,0.2,1
			c-1.2,0.4-2.4,0.7-3.5,1.1c0.2,0.2,0.4,0.4,0.6,0.4c0.6,0.1,1.2-0.1,1.6-0.6c0.3,0.3,0.5,0.6,0.8,0.9c-0.5,0.5-1.2,0.8-1.9,0.9
			c-0.8,0.1-1.6-0.2-2.2-0.7c-0.4-0.4-0.7-0.9-0.8-1.4c-0.1-0.5,0-1,0.1-1.5C360.6,211.9,360.9,211.5,361.2,211.2 M361.9,212.4
			c-0.2,0.2-0.3,0.6-0.3,0.9c0.8-0.3,1.7-0.5,2.5-0.8c-0.2-0.4-0.6-0.6-1-0.6C362.6,211.8,362.1,212,361.9,212.4z"/>
		<path class="st9" d="M368.1,210.7c0.5-0.1,1,0,1.5,0.1c0.5,0.2,0.9,0.5,1.2,0.9c0.3,0.4,0.4,0.9,0.4,1.4c-1.2,0.4-2.4,0.7-3.5,1.1
			c0.2,0.2,0.4,0.4,0.7,0.4c0.6,0.1,1.2-0.1,1.6-0.6c0.3,0.3,0.6,0.6,0.8,0.9c-0.4,0.4-0.8,0.6-1.3,0.8c-0.6,0.2-1.3,0.2-1.9-0.1
			c-0.6-0.2-1-0.6-1.3-1.1c-0.3-0.5-0.4-1.1-0.3-1.7c0.1-0.5,0.3-1.1,0.7-1.4C367.1,211,367.6,210.7,368.1,210.7 M367.7,212.3
			c-0.3,0.3-0.4,0.6-0.4,1c0.8-0.3,1.7-0.5,2.5-0.8c-0.2-0.2-0.4-0.4-0.7-0.5C368.6,211.7,368,211.9,367.7,212.3z"/>
		<path class="st9" d="M341.6,210.7c1.4,0,2.7,0,4.1,0c0,0.4,0,0.7,0,1.1c-0.8,0.9-1.6,1.8-2.4,2.8c0.9,0,1.7,0,2.6,0
			c0,0.4,0,0.8,0,1.2c-1.5,0-2.9,0-4.4,0c0-0.4,0-0.8,0-1.2c0.8-0.9,1.6-1.8,2.4-2.7c-0.7,0-1.5,0-2.2,0
			C341.6,211.5,341.6,211.1,341.6,210.7z"/>
		<path class="st9" d="M346.4,215.8c0-1.7,0-3.4,0-5.1c0.5,0,1,0,1.4,0c0,1.7,0,3.4,0,5.1C347.4,215.8,346.9,215.8,346.4,215.8z"/>
	</g>
</g>
<g>
	<g id="_x23_3d3884ff">
		<path class="st9" d="M275.3,62.1c0,0,0.1,0,0.2,0c0.6,1.2,1.1,2.5,1.7,3.7c0.1,0.1,0.2,0.5-0.1,0.4c-0.6-1.2-1.1-2.5-1.7-3.7
			C275.3,62.4,275.1,62.2,275.3,62.1z"/>
		<path class="st9" d="M276,62.3c0.1-0.1,0.3,0.1,0.3,0.2c0.4,0.9,0.8,1.8,1.2,2.6c0.1,0.2,0.2,0.5-0.1,0.4
			c-0.3-0.6-0.6-1.2-0.8-1.8c-0.2-0.4-0.4-0.9-0.5-1.3L276,62.3z"/>
		<path class="st9" d="M274.6,62.7c-0.1-0.2,0.1-0.3,0.2-0.4c0.4,0.8,0.8,1.7,1.2,2.5c0.2,0.5,0.5,1,0.7,1.5c-0.1,0-0.2,0.1-0.2,0.2
			c-0.2-0.2-0.3-0.5-0.4-0.8C275.5,64.7,275.1,63.7,274.6,62.7z"/>
		<path class="st9" d="M273.9,62.9c-0.1-0.2,0.1-0.2,0.1-0.3c0.6,1.3,1.2,2.6,1.8,3.9c0.1,0.2,0,0.3-0.2,0.3
			C275.1,65.6,274.5,64.3,273.9,62.9z"/>
		<path class="st9" d="M277,63c0.3,0.1,0.6,0.3,0.7,0.6c0.1,0.3,0,0.6,0,0.9C277.4,64,277.2,63.5,277,63z"/>
		<path class="st9" d="M303.4,63.9c0.6-0.1,1.3-0.1,1.8,0.2c0.9,0.4,1.6,1.4,1.6,2.4c0.1,1.2-0.8,2.4-2,2.7c-0.5,0.1-1,0.1-1.5,0
			c-1.1-0.3-2-1.4-2-2.6C301.2,65.4,302.2,64.2,303.4,63.9 M303.5,64.4c-1.1,0.2-1.8,1.3-1.8,2.4c0,0.5,0.2,0.9,0.5,1.3
			c0.6,0.7,1.7,1.1,2.5,0.8c0.5-0.1,0.9-0.5,1.2-0.9c0.5-0.6,0.5-1.5,0.3-2.2C305.8,64.7,304.6,64,303.5,64.4z"/>
		<path class="st9" d="M245.5,64.6c1.7,0,3.3,0,5,0c2.1,0,4.2-0.1,6.3,0.3c1.8,0.3,3.5,1,4.9,2.1c1.9,1.5,3,3.9,3.4,6.2
			c0.4,2,0.4,4.1,0.1,6.1c-0.2,1.5-0.7,3-1.5,4.4c-0.8,1.3-1.9,2.4-3.2,3.2c-1.2,0.7-2.6,1.1-4,1.4c-2.2,0.4-4.4,0.3-6.6,0.3
			c-1.3,0-2.6,0-4,0c-0.2,0-0.5,0-0.6-0.3c-0.1-0.3-0.1-0.6-0.1-0.9c0.1-5.4,0-10.8,0-16.2c0-2,0-4,0-6
			C245.1,65,245.2,64.6,245.5,64.6 M249.9,68.7c-0.2,0.1-0.3,0.3-0.3,0.5c0,4.9,0,9.9,0,14.8c0,0.2,0.1,0.4,0.3,0.4
			c0.8,0,1.6,0,2.4,0c1.8,0,3.8-0.1,5.4-1c1.5-0.8,2.4-2.4,2.7-4c0.3-1.6,0.4-3.2,0.2-4.7c-0.1-0.8-0.3-1.6-0.6-2.4
			c-0.5-1.2-1.5-2.3-2.7-2.8c-1.8-0.8-3.8-0.8-5.8-0.7C251,68.7,250.5,68.7,249.9,68.7z"/>
		<path class="st9" d="M302.7,65c0.6,0,1.2,0,1.8,0.1c0.4,0.1,0.7,0.6,0.6,1c0,0.3-0.3,0.4-0.5,0.6c0.5,0.3,0.6,1,0.9,1.5
			c-0.3,0-0.6,0-0.8,0c-0.2-0.3-0.3-0.7-0.5-1c-0.1-0.2-0.4-0.2-0.6-0.2c0,0.4,0,0.8,0,1.2c-0.3,0-0.5,0-0.8,0
			C302.7,67.1,302.7,66,302.7,65 M303.5,65.6c0,0.3,0,0.5,0,0.8c0.2,0,0.4,0,0.7-0.1c0.2-0.1,0.2-0.5,0-0.7
			C304,65.5,303.8,65.6,303.5,65.6z"/>
		<path class="st9" d="M280.5,72.1c1.2-1,2.8-1.4,4.4-1.2c0.8,0.1,1.6,0.2,2.3,0.6c0.6,0.3,1.1,0.8,1.5,1.3c0.1,0.2,0.3,0.3,0.5,0.1
			c0.8-0.9,1.8-1.6,3-1.9c1-0.2,2-0.2,2.9,0c1.2,0.2,2.3,0.8,3,1.8c0.9,1.4,1.1,3.1,1.2,4.7c0,3.2,0,6.4,0,9.5c0,0.4,0,0.8,0,1.3
			c0,0.3-0.4,0.3-0.6,0.3c-1,0-1.9-0.1-2.9,0c-0.2,0-0.5,0-0.7-0.1c-0.2-0.1-0.2-0.4-0.2-0.6c0-3.5,0-7.1,0-10.6
			c0-0.8,0-1.8-0.7-2.4c-0.6-0.5-1.5-0.3-2.1,0c-0.9,0.4-1.6,1.1-2.2,1.9c0,3.7,0,7.5,0,11.2c0,0.2,0,0.4-0.2,0.6
			c-0.2,0.2-0.5,0.1-0.8,0.1c-1-0.1-1.9,0-2.9,0c-0.3,0-0.5-0.3-0.4-0.6c0-3.5,0-7.1,0-10.6c0-0.7-0.1-1.5-0.5-2.2
			c-0.3-0.5-1-0.7-1.6-0.6c-1.1,0.2-2,0.9-2.7,1.7c-0.1,0.1-0.3,0.3-0.3,0.5c0,3.7,0,7.4,0,11.1c0,0.3,0,0.7-0.4,0.7
			c-1,0-2.1,0-3.1,0c-0.2,0-0.4,0-0.6-0.1c-0.2-0.1-0.2-0.4-0.2-0.5c0-5.4,0-10.8,0-16.2c0-0.2,0-0.6,0.3-0.6c1,0,2,0,3,0
			c0.3,0,0.7-0.1,0.9,0.1C280.6,71.5,280.5,71.8,280.5,72.1z"/>
		<path class="st9" d="M268.6,71.2c0.5-0.1,1,0,1.5,0c0.7,0,1.5,0,2.2,0c0.3,0,0.4,0.3,0.3,0.5c0,3.6,0,7.2,0,10.8
			c0,1.8,0,3.5,0,5.3c0,0.2,0,0.4-0.1,0.6c-0.2,0.1-0.5,0.1-0.7,0.1c-1.1-0.1-2.1,0-3.2,0c-0.3,0-0.3-0.3-0.3-0.5
			c0-5.4,0-10.9,0-16.3C268.4,71.6,268.4,71.3,268.6,71.2z"/>
		<path class="st9" d="M250.8,90.3c4.4,0,8.8,0,13.2,0c5.8,0,11.5,0,17.3,0.2c2,0.1,4.1,0.1,6.1,0.2c4,0.1,8,0.3,12,0.4
			c1.2,0,2.3,0,3.5,0.1c-0.3,0.1-0.6,0.2-0.9,0.2c-5.3,0.2-10.6,0.4-15.9,0.5c-5.2,0-10.5,0-15.7,0c-7.2,0-14.5,0-21.7,0
			c-2.3,0-4.6,0-6.9,0c-1.6,0-3.2,0-4.7-0.1c0.1-0.3,0.2-0.6,0.2-1c0-0.1-0.1-0.3,0-0.4C241.7,90.3,246.3,90.3,250.8,90.3z"/>
		<path class="st9" d="M205.8,90.9c7.2-0.2,14.5-0.4,21.7-0.5c0.2,0,0.4,0,0.3,0.2c-0.1,0.3,0.1,0.7,0.1,1c-0.4,0.1-0.7,0-1.1,0
			c-2.4,0-4.9-0.1-7.3-0.2c-4-0.1-8.1-0.2-12.1-0.3c-1.1,0-2.3,0-3.4-0.1C204.5,90.8,205.2,90.9,205.8,90.9z"/>
	</g>
	<g id="_x23_8fbb45ff">
		<path class="st9" d="M266.3,66.4c0.1-2.2,2.2-3.9,4.3-3.9c1.5,0,2.9,0.9,3.6,2.2c0.5,0.9,0.6,2.1,0.4,3.1c0,0.2-0.1,0.4-0.1,0.6
			c0.1,0.1,0.2,0.2,0.3,0.3c-0.5,0.3-0.9,0.6-1.3,1c-1,1.1-2.7,1.5-4.1,1C267.5,70.2,266.2,68.3,266.3,66.4 M268,64.4
			c-1.2,1.2-1.2,3.3-0.2,4.5c0.9,1.1,2.4,1.6,3.7,1.3c0.7-0.2,1.2-0.7,1.6-1.3c0.2-0.3,0.2-0.6,0.1-1c0.2,0,0.4,0.1,0.5,0
			c0.1-0.1,0.2-0.3,0.2-0.5c0.2-1.1-0.2-2.3-0.9-3.1c-0.5-0.5-1.1-0.8-1.8-1C270,63.1,268.8,63.5,268,64.4z"/>
		<path class="st9" d="M269.9,64.1c0.6-0.1,1.4-0.1,1.9,0.3c0.9,0.5,1.5,1.6,1.4,2.7c-0.1,1-0.9,2-2,2.2c-0.8,0.2-1.7,0-2.3-0.5
			c-0.8-0.6-1.3-1.8-1-2.8C268.2,65.1,269,64.4,269.9,64.1 M269.4,65.1c0.5,0,1.1-0.2,1.6-0.1c0.4,0.1,0.7,0.4,1,0.7
			c0.1-0.1,0.2-0.2,0.1-0.3C271.5,64.5,270.2,64.4,269.4,65.1z"/>
		<path class="st9" d="M194.2,64.6c3.9,0,7.8,0,11.6,0c0.2,0,0.5,0,0.7,0.2c0.1,0.2,0,0.5,0,0.8c-0.1,0.4,0,0.8-0.1,1.2
			c-0.1,0.3-0.5,0.4-0.8,0.4c-2.3,0-4.5,0-6.8,0.1c-0.2,0-0.3,0-0.5,0.1c-0.2,0.2-0.2,0.4-0.2,0.7c0,2.1,0,4.2,0,6.3
			c0,0.2,0,0.6,0.3,0.7c0.2,0.1,0.5,0.1,0.8,0.1c2,0,4,0.1,6,0.1c0.2,0,0.5,0,0.6,0.2c0.1,0.3-0.1,0.6,0,1c0,0.3,0.1,0.9-0.3,1
			c-0.5,0.2-1,0.1-1.5,0.1c-1.7,0-3.4,0.1-5.1,0.1c-0.3-0.1-0.7,0.2-0.6,0.6c0,2.4,0,4.9,0,7.3c0,0.2,0,0.4,0.1,0.5
			c0.2,0.2,0.4,0.2,0.6,0.2c2.6,0,5.3,0.1,7.9,0.1c0.1,0,0.3,0.1,0.3,0.2c0,0.5,0,1.1-0.1,1.6c0,0.3-0.3,0.4-0.5,0.5
			c-0.3,0.1-0.6,0.1-1,0.1c-3.6,0-7.1,0-10.7,0c-0.3,0-0.7,0.1-1-0.1c-0.1-0.1-0.1-0.3-0.1-0.5c0-7.6,0-15.1,0-22.7
			C193.8,64.9,193.9,64.6,194.2,64.6z"/>
		<path class="st9" d="M225,76.9c1.6-3.2,5.3-5.2,8.9-4.9c1.7,0.1,3.4,0.7,4.7,1.7c1.4,1,2.5,2.4,3.2,4.1c0.7,1.8,0.7,3.7,0.3,5.6
			c-0.6,2.4-2,4.8-4.3,6c-0.4,0.2-0.9,0.3-1.4,0.5c-0.4,0.2-0.1,0.7-0.1,1c0.1,0.5-0.2,1.1-0.7,1.1c-1,0.1-2,0-3,0
			c0.1,0.1,0.2,0.3,0.3,0.4c0.6,0.5,1.3,1,1.9,1.6c0.3,0.2,0.4,0.6,0.3,1c-1.9,0-3.8,0-5.7,0c-0.1-0.3,0-0.8,0.3-1
			c0.4-0.3,0.9-0.1,1.3-0.2c-0.1-0.1-0.1-0.1-0.2-0.2c-0.7-0.6-1.4-1.1-2-1.7c-0.3-0.2-0.4-0.7-0.2-1c0.1-0.3,0.5-0.5,0.8-0.5
			c1.5,0,3,0,4.4,0c0.3,0,0.6,0,0.7-0.3c0-0.5-0.3-1.1,0-1.7c0.2-0.4,0.7-0.4,1.1-0.5c1.3-0.2,2.6-0.7,3.5-1.7
			c0.8-1,1.2-2.2,1.5-3.4c0.3-1.7,0.2-3.5-0.6-5c-0.7-1.4-1.8-2.5-3.2-3.2c-1.6-0.8-3.5-1-5.3-0.7c-1.6,0.4-3.1,1.3-4.2,2.6
			c-1.9,2.4-2,6.1-0.2,8.6c0.3,0.5,0.8,0.8,1,1.4c0.2,0.6-0.5,1.2-1.1,0.9c-0.4-0.2-0.7-0.6-1-1C223.9,83.8,223.5,79.9,225,76.9z"/>
		<path class="st9" d="M214.3,72.8c1.9-0.8,4-0.8,6-0.5c0.7,0.1,1.4,0.2,2.1,0.4c0.2,0,0.2,0.3,0.2,0.5c-0.2,0.8-0.4,1.7-0.6,2.5
			c0,0.3-0.3,0.2-0.5,0.1c-0.9-0.4-1.8-0.8-2.7-1c-0.7-0.1-1.5-0.1-2.2,0c-0.5,0.1-1,0.3-1.3,0.7c-0.3,0.4-0.4,0.8-0.5,1.2
			c-0.3,1.1-0.3,2.3-0.3,3.5c0,1.6-0.1,3.4,0.8,4.8c0.5,0.8,1.5,1.2,2.4,1.2c1.7,0,3.3-0.4,4.9-1c0.2,0.3,0.4,0.6,0.4,0.9
			c0,0.2-0.1,0.3-0.2,0.5c-1.1,0.9-2.4,1.6-3.8,2c-1.9,0.5-3.9,0.4-5.7-0.4c-1.2-0.6-2.1-1.6-2.6-2.9c-1.1-2.9-1.1-6.2,0.2-9.1
			C211.4,74.7,212.7,73.4,214.3,72.8z"/>
	</g>
</g>
<text transform="matrix(1 0 0 1 195.1006 110.8872)" class="st9 st10 st11">ECO-DIM.07</text>
<text transform="matrix(1 0 0 1 146.8486 343.6758)" class="st9 st10 st11">MIN</text>
<text transform="matrix(1 0 0 1 313.6924 343.6836)" class="st9 st10 st11">MAX</text>
<text transform="matrix(1 0 0 1 219.9876 316.3131)" class="st9 st10 st11">RESET</text>
<path class="st12" d="M198.8,215.8c0-6.8-5.5-12.3-12.3-12.3c-6.8,0-12.3,5.5-12.3,12.3c0,6.8,5.5,12.3,12.3,12.3
	C193.3,228.1,198.8,222.6,198.8,215.8"/>
<g>
	<path class="st2" d="M172,375.6l-0.1,30.7c0,1.3,1.3,2.6,3,2.6h149.5c1.7,0,3.1-1.2,3.1-2.5v-30.7c0-1.3-1.6-2.5-3.2-2.5l0.1,0H175
		H175C173.3,373.1,172,374.2,172,375.6z"/>
	<path class="st2" d="M174,377.3l-0.1,26.8c0,1.2,1.3,2.3,2.9,2.3h145.2c1.6,0,3-1,3-2.2v-26.8c0-1.2-1.6-2.2-3.1-2.2l0.1,0H177H177
		C175.3,375.2,174,376.2,174,377.3z"/>
</g>
<rect x="310.5" y="188.4" class="st1" width="14.6" height="14"/>
<text transform="matrix(1 0 0 1 142.1482 202.6316)" class="st9 st10 st11">LED</text>
</svg>
