<?xml version="1.0" encoding="utf-8"?>
<!-- Generator: Adobe Illustrator 24.2.1, SVG Export Plug-In . SVG Version: 6.00 Build 0)  -->
<svg version="1.1" id="Laag_1" xmlns="http://www.w3.org/2000/svg" xmlns:xlink="http://www.w3.org/1999/xlink" x="0px" y="0px"
	 viewBox="0 0 835.3 497.6" style="enable-background:new 0 0 835.3 497.6;" xml:space="preserve">
<style type="text/css">
	.st0{fill:#3D3884;stroke:#000000;stroke-miterlimit:10;}
	.st1{fill:#8FBB45;stroke:#000000;stroke-miterlimit:10;}
	.st2{fill:none;stroke:#131309;stroke-miterlimit:10;}
	.st3{fill:none;stroke:#131309;stroke-linecap:round;stroke-miterlimit:10;}
	.st4{fill:#00FF00;stroke:#131309;stroke-miterlimit:10;}
	.st5{fill:none;stroke:#131309;stroke-linejoin:bevel;stroke-miterlimit:10;}
	.st6{fill:#FF0000;stroke:#131309;stroke-linejoin:bevel;stroke-miterlimit:10;}
	.st7{fill:#0066FF;stroke:#000000;stroke-linejoin:bevel;stroke-miterlimit:22.9256;}
	.st8{fill:#FFFFFF;}
	.st9{font-family:'ArialMT';}
	.st10{font-size:13.9493px;}
	.st11{font-size:9.0346px;}
	.st12{fill:none;stroke:#000000;stroke-miterlimit:10;}
	.st13{fill:none;stroke:#1D1D1B;stroke-width:0.25;stroke-miterlimit:10;}
	.st14{fill:none;stroke:#000000;stroke-width:0.25;stroke-miterlimit:10;}
	.st15{fill:#FFFFFF;stroke:#000000;stroke-miterlimit:10;}
	.st16{fill:#FFFFFF;stroke:#1D1D1B;stroke-miterlimit:10;}
	.st17{fill:none;stroke:#1D1D1B;stroke-miterlimit:10;}
	.st18{fill:#0066FF;stroke:#000000;stroke-width:0.5;stroke-linejoin:bevel;stroke-miterlimit:22.9256;}
	.st19{font-size:18px;}
	.st20{fill:#FF0000;stroke:#1D1D1B;stroke-miterlimit:10;}
</style>
<polygon class="st0" points="765.7,342.2 589.5,342.2 589.5,342.2 589.5,397 576,397 576,397 574.7,396.8 573.4,396.5 572,395.7 
	571.2,394.9 571.2,394.9 571.2,394.4 571.2,394.4 566.5,389.1 556.4,379.3 556.4,379.3 555.1,378.8 555.1,378.8 554.8,378.5 
	554.6,378 554.6,377.7 554.6,377.2 554.6,376.9 554.6,376.4 554.8,376.1 555.1,375.9 560.1,370.8 560.1,370.8 560.4,371.1 
	560.4,371.1 560.7,370.8 560.7,370.8 533.9,344.1 533.9,344.1 533.9,343 533.9,343 531,346 531,346 528.6,348.3 527.2,348.9 
	525.7,348.3 525.7,348.3 523.3,346 521.7,343.8 521.2,341.2 521.2,341.2 521.2,173.7 521.2,173.7 521.2,166.5 521.2,166.5 
	521.8,164.4 523.1,162.8 523.6,162 523.6,162 599.6,86.1 600.4,85.6 600.4,85.6 601.9,84.2 604.1,83.7 604.1,83.7 611.2,83.7 
	655.7,83.7 657.1,84.2 657.8,85.8 657.8,89.5 657.8,89.5 657.8,93.5 697.2,93.5 697.2,93.5 657.8,93.5 697.2,93.5 697.2,89.5 
	697.2,85.8 697.8,84.3 699.3,83.7 750.9,83.7 750.9,83.7 753.6,84.2 755.7,85.8 831.6,161.8 831.6,161.8 833.2,163.9 833.8,166.5 
	833.8,341.2 833.8,341.2 833.2,343.8 831.6,346 829.3,348.3 829.3,348.3 827.8,348.9 826.4,348.3 824,346 824,346 821.1,343 
	821.1,343 821.1,344.1 821.1,344.1 794.3,370.8 794.3,370.8 794.6,371.1 795.1,370.8 795.1,370.8 799.9,375.9 799.9,375.9 
	800.1,376.1 800.4,376.4 800.4,376.9 800.4,377.2 800.4,377.7 800.4,378 800.1,378.5 799.9,378.8 799.9,378.8 798.6,379.3 
	788.5,389.1 788.5,389.1 783.7,394.4 783.7,394.4 781.9,395.4 779.8,395.4 778.7,396 778.7,396 770.2,396 770.2,396 767.9,395.2 
	767.1,394.1 766.8,392.8 766.8,392.8 766.8,392.8 765.7,393.3 "/>
<rect x="590.6" y="343" class="st1" width="173.9" height="42.9"/>
<line class="st2" x1="765.7" y1="396.8" x2="589.5" y2="396.8"/>
<line class="st2" x1="590.6" y1="396.5" x2="764.4" y2="396.5"/>
<line class="st3" x1="765.7" y1="394.1" x2="765.7" y2="394.1"/>
<line class="st2" x1="590.6" y1="385.9" x2="764.4" y2="385.9"/>
<path class="st4" d="M764.4,379.3H590.6H764.4z"/>
<line class="st2" x1="590.6" y1="343" x2="764.4" y2="343"/>
<line class="st2" x1="590.6" y1="396.5" x2="590.6" y2="343"/>
<line class="st2" x1="694" y1="124.7" x2="694.6" y2="123.4"/>
<line class="st2" x1="686.1" y1="148" x2="685.6" y2="149.3"/>
<line class="st2" x1="686.1" y1="148" x2="686.1" y2="124.7"/>
<line class="st2" x1="687.2" y1="122.6" x2="687.2" y2="122.1"/>
<line class="st2" x1="687.4" y1="148" x2="687.4" y2="124.7"/>
<line class="st2" x1="687.4" y1="122.6" x2="687.4" y2="122.1"/>
<line class="st2" x1="692.7" y1="122.1" x2="692.7" y2="122.6"/>
<line class="st2" x1="692.7" y1="124.7" x2="692.7" y2="148"/>
<line class="st2" x1="693" y1="122.1" x2="693" y2="122.6"/>
<line class="st2" x1="694" y1="124.7" x2="694" y2="148"/>
<line class="st2" x1="744.8" y1="124.7" x2="745.4" y2="123.4"/>
<line class="st2" x1="736.9" y1="148" x2="736.4" y2="149.3"/>
<line class="st2" x1="686.1" y1="124.7" x2="685.6" y2="123.4"/>
<line class="st2" x1="694" y1="148" x2="694.6" y2="149.3"/>
<line class="st2" x1="736.9" y1="148" x2="736.9" y2="124.7"/>
<line class="st2" x1="738" y1="122.6" x2="738" y2="122.1"/>
<line class="st2" x1="738.2" y1="148" x2="738.2" y2="124.7"/>
<line class="st2" x1="738.2" y1="122.6" x2="738.2" y2="122.1"/>
<line class="st2" x1="780.3" y1="183.7" x2="779" y2="183.7"/>
<line class="st2" x1="772.4" y1="183.7" x2="773.7" y2="183.7"/>
<line class="st2" x1="743.5" y1="122.1" x2="743.5" y2="122.6"/>
<line class="st2" x1="743.5" y1="124.7" x2="743.5" y2="148"/>
<line class="st2" x1="743.5" y1="122.1" x2="743.5" y2="122.6"/>
<line class="st2" x1="744.8" y1="124.7" x2="744.8" y2="148"/>
<line class="st2" x1="772.4" y1="183.7" x2="771.8" y2="185.1"/>
<line class="st2" x1="780.3" y1="160.4" x2="780.8" y2="159.1"/>
<line class="st2" x1="764.4" y1="396.5" x2="764.4" y2="342.2"/>
<line class="st2" x1="780.3" y1="160.4" x2="779" y2="160.4"/>
<line class="st2" x1="772.4" y1="160.4" x2="773.7" y2="160.4"/>
<line class="st2" x1="772.4" y1="183.7" x2="772.4" y2="160.4"/>
<line class="st2" x1="773.7" y1="158.3" x2="773.7" y2="157.8"/>
<line class="st2" x1="773.7" y1="184" x2="773.7" y2="160.4"/>
<line class="st2" x1="773.7" y1="158.3" x2="773.7" y2="157.8"/>
<line class="st2" x1="779" y1="157.8" x2="779" y2="158.3"/>
<line class="st2" x1="779" y1="160.4" x2="779" y2="184"/>
<line class="st2" x1="779.2" y1="157.8" x2="779.2" y2="158.3"/>
<line class="st2" x1="780.3" y1="160.4" x2="780.3" y2="183.7"/>
<line class="st2" x1="694" y1="148" x2="692.7" y2="148"/>
<line class="st2" x1="686.1" y1="148" x2="687.4" y2="148"/>
<line class="st2" x1="744.8" y1="148" x2="743.5" y2="148"/>
<line class="st2" x1="736.9" y1="148" x2="738.2" y2="148"/>
<line class="st2" x1="744.8" y1="148" x2="745.4" y2="149.3"/>
<line class="st2" x1="736.9" y1="124.7" x2="736.4" y2="123.4"/>
<line class="st2" x1="694" y1="124.7" x2="692.7" y2="124.7"/>
<line class="st2" x1="686.1" y1="124.7" x2="687.4" y2="124.7"/>
<line class="st2" x1="744.8" y1="124.7" x2="743.5" y2="124.7"/>
<line class="st2" x1="736.9" y1="124.7" x2="738.2" y2="124.7"/>
<line class="st2" x1="780.3" y1="183.7" x2="780.8" y2="185.1"/>
<line class="st2" x1="772.4" y1="160.4" x2="771.8" y2="159.1"/>
<polyline class="st5" points="642.7,348.3 639.8,348.6 636.9,349.7 634.5,351.2 632.4,353.4 631,356 630.3,358.9 630,361.8 
	630.5,364.7 631.6,367.4 633.4,369.8 635.8,371.6 638.5,372.9 641.1,373.7 644.3,373.7 646.9,372.9 649.6,371.6 652,369.8 
	653.8,367.4 654.9,364.7 655.4,361.8 655.1,358.9 654.3,356 653,353.4 650.9,351.2 648.5,349.7 645.6,348.6 642.7,348.3 "/>
<polyline class="st5" points="608,348.3 605.1,348.6 602.2,349.7 599.8,351.2 597.7,353.4 596.4,356 595.6,358.9 595.3,361.8 
	595.9,364.7 596.9,367.4 598.8,369.8 601.1,371.6 603.8,372.9 606.4,373.7 609.6,373.7 612.3,372.9 614.9,371.6 617.3,369.8 
	619.1,367.4 620.2,364.7 620.7,361.8 620.5,358.9 619.7,356 618.3,353.4 616.2,351.2 613.9,349.7 610.9,348.6 608,348.3 "/>
<polygon class="st6" points="606.4,184.8 604.1,185.1 601.9,186.1 600.1,187.7 598.8,189.8 598,191.9 598,194.6 598.8,196.7 
	600.1,198.8 601.9,200.4 604.1,201.5 606.4,201.7 608.8,201.5 610.9,200.4 612.8,198.8 614.1,196.7 614.9,194.6 614.9,191.9 
	614.1,189.8 612.8,187.7 610.9,186.1 608.8,185.1 "/>
<polyline class="st7" points="645.6,209.9 642.4,207.8 640,205.4 637.9,202.3 636.6,199.1 635.8,195.4 635.8,191.9 636.3,188.2 
	637.7,184.8 639.5,181.9 641.9,179 644.8,176.9 648,175.3 651.4,174.2 655.1,173.9 658.8,174.2 662.3,175.3 665.5,176.9 668.4,179 
	670.7,181.9 672.6,184.8 673.9,188.2 674.5,191.9 674.5,195.4 673.7,199.1 672.3,202.3 670.2,205.4 667.8,207.8 664.9,209.9 
	664.9,237.2 665.2,239 666.6,240.4 668.3,241.2 670,241.2 671.7,240.4 673.1,239 673.4,237.2 673.4,214.2 673.1,214.4 676.3,211.3 
	679,207.8 680.8,203.8 682.1,199.6 682.9,195.4 682.9,191.1 682.1,186.6 680.8,182.7 679,178.7 676.3,175.3 673.1,172.1 
	669.7,169.4 665.7,167.6 661.8,166.3 657.3,165.5 653,165.5 648.5,166.3 644.5,167.6 640.6,169.4 637.1,172.1 634,175.3 
	631.3,178.7 629.5,182.7 628.1,186.6 627.3,191.1 627.3,195.4 628.1,199.6 629.5,203.8 631.3,207.8 634,211.3 637.1,214.4 
	637.1,237.2 637.4,239 638.8,240.4 640.5,241.2 642.2,241.2 643.9,240.4 645.3,239 645.6,237.2 645.6,237.2 645.6,209.9 "/>
<polyline class="st5" points="747.2,348.3 744.3,348.6 741.4,349.7 739,351.2 736.9,353.4 735.6,356 734.8,358.9 734.5,361.8 
	735,364.7 736.1,367.4 738,369.8 740.3,371.6 743,372.9 745.6,373.7 748.8,373.7 751.5,372.9 754.1,371.6 756.5,369.8 758.3,367.4 
	759.4,364.7 759.9,361.8 759.7,358.9 758.9,356 757.5,353.4 755.4,351.2 753,349.7 750.1,348.6 747.2,348.3 "/>
<polyline class="st5" points="677.6,348.3 674.7,348.6 671.8,349.7 669.4,351.2 667.3,353.4 666,356 665.2,358.9 664.9,361.8 
	665.5,364.7 666.5,367.4 668.4,369.8 670.7,371.6 673.4,372.9 676,373.7 679.2,373.7 681.9,372.9 684.5,371.6 686.9,369.8 
	688.7,367.4 689.8,364.7 690.3,361.8 690.1,358.9 689.3,356 687.9,353.4 685.8,351.2 683.4,349.7 680.5,348.6 677.6,348.3 "/>
<polyline class="st5" points="712.3,348.3 709.4,348.6 706.5,349.7 704.1,351.2 702,353.4 700.6,356 699.9,358.9 699.6,361.8 
	700.1,364.7 701.2,367.4 703,369.8 705.4,371.6 708.1,372.9 710.7,373.7 713.9,373.7 716.5,372.9 719.2,371.6 721.6,369.8 
	723.4,367.4 724.5,364.7 725,361.8 724.7,358.9 723.9,356 722.6,353.4 720.5,351.2 718.1,349.7 715.2,348.6 712.3,348.3 "/>
<polyline class="st5" points="692.7,148 693.2,149.1 694.6,149.3 "/>
<polyline class="st5" points="685.6,149.3 686.9,149.1 687.4,148 "/>
<polyline class="st5" points="692.7,148 693.2,149.1 694.6,149.3 "/>
<polyline class="st5" points="685.6,149.3 686.9,149.1 687.4,148 "/>
<line class="st5" x1="692.7" y1="148" x2="692.7" y2="148"/>
<polyline class="st5" points="690.1,120.5 686.9,120.7 683.7,121.8 680.8,123.4 678.2,125.8 676.3,128.4 675,131.3 674.2,134.8 
	674.2,138 675,141.4 676.3,144.3 678.2,147 680.8,149.3 683.7,150.9 686.9,152 690.1,152.2 693.2,152 696.4,150.9 699.3,149.3 
	702,147 703.8,144.3 705.1,141.4 705.9,138 705.9,134.8 705.1,131.3 703.8,128.4 702,125.8 699.3,123.4 696.4,121.8 693.2,120.7 
	690.1,120.5 "/>
<polyline class="st5" points="690.1,121.8 686.9,122.1 684,123.1 681.3,124.7 678.9,126.8 677.1,129.5 676,132.4 675.5,135.6 
	675.8,138.7 676.6,141.7 677.9,144.6 680,146.9 682.7,148.8 685.3,150.1 688.5,150.9 691.7,150.9 694.8,150.1 697.5,148.8 
	700.1,146.9 702.2,144.6 703.6,141.7 704.4,138.7 704.6,135.6 704.1,132.4 703,129.5 701.2,126.8 698.8,124.7 696.2,123.1 
	693.2,122.1 690.1,121.8 "/>
<polyline class="st5" points="687.4,122.6 684.5,123.7 681.9,125 679.5,127.1 677.6,129.7 676.6,132.4 676,135.6 676.3,138.5 
	677.1,141.4 678.4,144 680.3,146.4 682.9,148.3 685.6,149.6 688.5,150.4 691.7,150.4 694.6,149.6 697.2,148.3 699.9,146.4 
	701.7,144 703,141.4 703.8,138.5 704.1,135.6 703.6,132.4 702.5,129.7 700.6,127.1 698.3,125 695.6,123.7 692.7,122.6 "/>
<line class="st5" x1="692.4" y1="122.9" x2="687.7" y2="122.9"/>
<polyline class="st5" points="694.6,123.4 691.7,122.6 688.5,122.6 685.6,123.4 "/>
<polyline class="st5" points="685.6,149.3 688.5,150.1 691.6,150.1 694.6,149.3 "/>
<polyline class="st5" points="685.6,123.7 682.9,125 680.5,126.8 678.7,129.2 677.4,131.9 676.6,134.8 676.6,138 677.4,140.9 
	678.7,143.5 680.5,145.9 682.9,147.7 685.6,149.1 "/>
<polyline class="st5" points="694.6,149.1 697.2,147.7 699.6,145.9 701.4,143.5 702.8,140.9 703.6,138 703.6,134.8 702.8,131.9 
	701.4,129.2 699.6,126.8 697.2,125 694.6,123.7 "/>
<polyline class="st5" points="686.1,124.7 683.4,126 681.1,128.2 679.5,130.5 678.2,133.4 677.9,136.4 678.2,139.3 679.5,142.2 
	681.1,144.6 683.4,146.7 686.1,148 "/>
<polyline class="st5" points="694,148 696.7,146.7 699.1,144.6 700.6,142.2 702,139.3 702.2,136.4 702,133.4 700.6,130.5 
	699.1,128.2 696.7,126 694,124.7 "/>
<polyline class="st5" points="743.5,148 744.1,149.1 745.4,149.3 "/>
<polyline class="st5" points="736.4,149.3 737.7,149.1 738.2,148 "/>
<polyline class="st5" points="743.5,148 744.1,149.1 745.4,149.3 "/>
<polyline class="st5" points="736.4,149.3 737.7,149.1 738.2,148 "/>
<line class="st5" x1="743.5" y1="148" x2="743.5" y2="148"/>
<polyline class="st5" points="740.9,120.5 737.7,120.7 734.5,121.8 731.6,123.4 729,125.8 727.1,128.4 725.8,131.3 725,134.8 
	725,138 725.8,141.4 727.1,144.3 729,147 731.6,149.3 734.5,150.9 737.7,152 740.9,152.2 744.1,152 747.2,150.9 750.1,149.3 
	752.8,147 754.6,144.3 756,141.4 756.7,138 756.7,134.8 756,131.3 754.6,128.4 752.8,125.8 750.1,123.4 747.2,121.8 744.1,120.7 
	740.9,120.5 "/>
<polyline class="st5" points="740.9,121.8 737.7,122.1 734.8,123.1 732.1,124.7 729.8,126.8 727.9,129.5 726.8,132.4 726.3,135.6 
	726.6,138.7 727.4,141.7 728.7,144.6 730.8,146.9 733.5,148.8 736.1,150.1 739.3,150.9 742.5,150.9 745.6,150.1 748.3,148.8 
	750.9,146.9 753,144.6 754.4,141.7 755.2,138.7 755.4,135.6 754.9,132.4 753.8,129.5 752,126.8 749.6,124.7 747,123.1 744.1,122.1 
	740.9,121.8 "/>
<polyline class="st5" points="738.2,122.6 735.3,123.7 732.7,125 730.3,127.1 728.4,129.7 727.4,132.4 726.8,135.6 727.1,138.5 
	727.9,141.4 729.2,144 731.1,146.4 733.7,148.3 736.4,149.6 739.3,150.4 742.5,150.4 745.4,149.6 748,148.3 750.7,146.4 752.5,144 
	753.8,141.4 754.6,138.5 754.9,135.6 754.4,132.4 753.3,129.7 751.5,127.1 749.1,125 746.4,123.7 743.5,122.6 "/>
<line class="st5" x1="743.3" y1="122.9" x2="738.5" y2="122.9"/>
<polyline class="st5" points="745.4,123.4 742.5,122.6 739.3,122.6 736.4,123.4 "/>
<polyline class="st5" points="736.4,149.3 739.3,150.1 742.5,150.1 745.4,149.3 "/>
<polyline class="st5" points="736.4,123.7 733.7,125 731.3,126.8 729.5,129.2 728.2,131.9 727.4,134.8 727.4,138 728.2,140.9 
	729.5,143.5 731.3,145.9 733.7,147.7 736.4,149.1 "/>
<polyline class="st5" points="745.4,149.1 748,147.7 750.4,145.9 752.3,143.5 753.6,140.9 754.4,138 754.4,134.8 753.6,131.9 
	752.3,129.2 750.4,126.8 748,125 745.4,123.7 "/>
<polyline class="st5" points="736.9,124.7 734.3,126 731.9,128.2 730.3,130.5 729,133.4 728.7,136.4 729,139.3 730.3,142.2 
	731.9,144.6 734.3,146.7 736.9,148 "/>
<polyline class="st5" points="744.8,148 747.5,146.7 749.9,144.6 751.5,142.2 752.8,139.3 753,136.4 752.8,133.4 751.5,130.5 
	749.9,128.2 747.5,126 744.8,124.7 "/>
<polyline class="st5" points="687.4,124.7 686.9,123.7 685.6,123.4 "/>
<polyline class="st5" points="738.2,124.7 737.7,123.7 736.4,123.4 "/>
<polyline class="st5" points="694.6,123.4 693.2,123.7 692.7,124.7 "/>
<polyline class="st5" points="745.4,123.4 744.1,123.7 743.5,124.7 "/>
<polyline class="st5" points="694.6,123.4 693.2,123.7 692.7,124.7 "/>
<polyline class="st5" points="745.4,123.4 744.1,123.7 743.5,124.7 "/>
<polyline class="st5" points="687.4,124.7 686.9,123.7 685.6,123.4 "/>
<polyline class="st5" points="738.2,124.7 737.7,123.7 736.4,123.4 "/>
<line class="st5" x1="692.7" y1="124.7" x2="692.7" y2="124.7"/>
<line class="st5" x1="743.5" y1="124.7" x2="743.5" y2="124.7"/>
<polyline class="st5" points="776.3,156.2 773.2,156.5 770,157.5 767.1,159.1 764.4,161.5 762.6,164.1 761.3,167.1 760.5,170.5 
	760.5,173.7 761.3,177.1 762.6,180 764.4,182.7 767.1,185.1 770,186.6 773.2,187.7 776.3,188 779.5,187.7 782.7,186.6 785.6,185.1 
	788.2,182.7 790.1,180 791.4,177.1 792.2,173.7 792.2,170.5 791.4,167.1 790.1,164.1 788.2,161.5 785.6,159.1 782.7,157.5 
	779.5,156.5 776.3,156.2 "/>
<polyline class="st5" points="776.3,157.5 773.2,157.8 770.3,158.9 767.6,160.4 765.2,162.6 763.4,165.2 762.3,168.1 761.8,171.3 
	762,174.5 762.8,177.4 764.2,180.3 766.3,182.7 768.9,184.5 771.6,185.8 774.7,186.6 777.9,186.6 781.1,185.8 783.7,184.5 
	786.4,182.7 788.5,180.3 789.8,177.4 790.6,174.5 790.9,171.3 790.4,168.1 789.3,165.2 787.4,162.6 785.1,160.4 782.4,158.9 
	779.5,157.8 776.3,157.5 "/>
<polyline class="st5" points="773.7,158.3 770.8,159.4 768.1,160.7 765.8,162.8 763.9,165.5 762.8,168.1 762.3,171.3 762.6,174.2 
	763.4,177.1 764.7,179.8 766.5,182.1 769.2,184 771.8,185.3 774.7,186.1 777.9,186.1 780.8,185.3 783.5,184 786.1,182.1 788,179.8 
	789.3,177.1 790.1,174.2 790.4,171.3 789.8,168.1 788.8,165.5 786.9,162.8 784.5,160.7 781.9,159.4 779,158.3 "/>
<line class="st5" x1="778.7" y1="158.6" x2="774" y2="158.6"/>
<polyline class="st5" points="780.8,159.1 777.9,158.3 774.7,158.3 771.8,159.1 "/>
<polyline class="st5" points="771.8,185.1 774.7,185.8 777.9,185.8 780.8,185.1 "/>
<polyline class="st5" points="771.8,159.4 769.2,160.7 766.8,162.6 765,164.9 763.6,167.6 762.8,170.5 762.8,173.7 763.6,176.6 
	765,179.2 766.8,181.6 769.2,183.5 771.8,184.8 "/>
<polyline class="st5" points="780.8,184.8 783.5,183.5 785.9,181.6 787.7,179.2 789,176.6 789.8,173.7 789.8,170.5 789,167.6 
	787.7,164.9 785.9,162.6 783.5,160.7 780.8,159.4 "/>
<polyline class="st5" points="772.4,160.4 769.7,161.8 767.3,163.9 765.8,166.3 764.4,169.2 764.2,172.1 764.4,175 765.8,177.9 
	767.3,180.3 769.7,182.4 772.4,183.7 "/>
<polyline class="st5" points="780.3,183.7 782.9,182.4 785.3,180.3 786.9,177.9 788.2,175 788.5,172.1 788.2,169.2 786.9,166.3 
	785.3,163.9 782.9,161.8 780.3,160.4 "/>
<polyline class="st5" points="773.7,160.4 773.2,159.4 771.8,159.1 "/>
<polyline class="st5" points="779,183.7 779.5,184.8 780.8,185.1 "/>
<polyline class="st5" points="771.8,185.1 773.2,184.8 773.7,183.7 "/>
<polyline class="st5" points="780.8,159.1 779.5,159.4 779,160.4 "/>
<polyline class="st5" points="779,184 779.5,185.1 780.8,185.3 "/>
<polyline class="st5" points="771.8,185.3 773.2,185.1 773.7,184 "/>
<polyline class="st5" points="780.8,159.1 779.5,159.4 779,160.4 "/>
<polyline class="st5" points="773.7,160.4 773.2,159.4 771.8,159.1 "/>
<line class="st5" x1="779" y1="160.4" x2="779" y2="160.4"/>
<line class="st5" x1="773.7" y1="183.7" x2="773.7" y2="183.7"/>
<line class="st5" x1="779" y1="183.7" x2="779" y2="183.7"/>
<line class="st3" x1="694.6" y1="123.4" x2="694.6" y2="123.4"/>
<line class="st3" x1="685.6" y1="123.4" x2="685.6" y2="123.4"/>
<line class="st3" x1="694.6" y1="149.3" x2="694.6" y2="149.3"/>
<line class="st3" x1="685.6" y1="149.3" x2="685.6" y2="149.3"/>
<line class="st2" x1="771.8" y1="185.1" x2="771.8" y2="185.3"/>
<line class="st2" x1="780.8" y1="185.1" x2="780.8" y2="185.3"/>
<line class="st3" x1="771.8" y1="159.1" x2="771.8" y2="159.1"/>
<line class="st3" x1="780.8" y1="159.1" x2="780.8" y2="159.1"/>
<line class="st3" x1="736.4" y1="149.3" x2="736.4" y2="149.3"/>
<line class="st3" x1="745.4" y1="149.3" x2="745.4" y2="149.3"/>
<line class="st3" x1="736.4" y1="123.4" x2="736.4" y2="123.4"/>
<line class="st3" x1="745.4" y1="123.4" x2="745.4" y2="123.4"/>
<line class="st2" x1="687.4" y1="122.6" x2="687.2" y2="122.6"/>
<line class="st2" x1="693" y1="122.6" x2="692.7" y2="122.6"/>
<line class="st3" x1="773.7" y1="158.3" x2="773.7" y2="158.3"/>
<line class="st2" x1="779.2" y1="158.3" x2="779" y2="158.3"/>
<line class="st2" x1="738.2" y1="122.6" x2="738" y2="122.6"/>
<line class="st3" x1="743.5" y1="122.6" x2="743.5" y2="122.6"/>
<polyline class="st2" points="765.7,393.3 765.7,395.6 765.7,396.8 "/>
<g>
	<g id="_x23_3d3884ff_1_">
		<path class="st8" d="M782.1,212.8c0,0,0.1,0,0.2,0c0.6,1.2,1.1,2.4,1.7,3.6c0.1,0.1,0.2,0.5-0.1,0.4c-0.6-1.2-1.1-2.4-1.7-3.6
			C782.1,213.1,781.9,212.9,782.1,212.8z"/>
		<path class="st8" d="M782.8,213c0.1-0.1,0.3,0.1,0.3,0.2c0.4,0.9,0.8,1.8,1.2,2.5c0.1,0.2,0.2,0.5-0.1,0.4
			c-0.3-0.6-0.6-1.2-0.8-1.8C783.2,214,783,213.5,782.8,213L782.8,213z"/>
		<path class="st8" d="M781.4,213.4c-0.1-0.2,0.1-0.3,0.2-0.4c0.4,0.8,0.8,1.7,1.2,2.4c0.2,0.5,0.5,1,0.7,1.5
			c-0.1,0-0.2,0.1-0.2,0.2c-0.2-0.2-0.3-0.5-0.4-0.8C782.3,215.3,781.9,214.3,781.4,213.4z"/>
		<path class="st8" d="M780.7,213.6c-0.1-0.2,0.1-0.2,0.1-0.3c0.6,1.3,1.2,2.5,1.8,3.8c0.1,0.2,0,0.3-0.2,0.3
			C781.9,216.2,781.3,214.9,780.7,213.6z"/>
		<path class="st8" d="M783.8,213.7c0.3,0.1,0.6,0.3,0.7,0.6s0,0.6,0,0.9C784.1,214.6,783.9,214.1,783.8,213.7z"/>
		<path class="st8" d="M809.6,214.5c0.6-0.1,1.3-0.1,1.8,0.2c0.9,0.4,1.6,1.4,1.6,2.3c0.1,1.2-0.8,2.3-2,2.6c-0.5,0.1-1,0.1-1.5,0
			c-1.1-0.3-2-1.4-2-2.5C807.4,216,808.4,214.8,809.6,214.5 M809.7,215c-1.1,0.2-1.8,1.3-1.8,2.3c0,0.5,0.2,0.9,0.5,1.3
			c0.6,0.7,1.7,1.1,2.4,0.8c0.5-0.1,0.9-0.5,1.2-0.9c0.5-0.6,0.5-1.5,0.3-2.2C811.9,215.3,810.7,214.6,809.7,215z"/>
		<path class="st8" d="M753,215.2c1.7,0,3.2,0,4.9,0c2.1,0,4.1-0.1,6.2,0.3c1.8,0.3,3.4,1,4.8,2.1c1.9,1.5,2.9,3.8,3.3,6.1
			c0.4,2,0.4,4,0.1,6c-0.2,1.5-0.7,2.9-1.5,4.3c-0.8,1.3-1.9,2.3-3.1,3.1c-1.2,0.7-2.5,1.1-3.9,1.4c-2.2,0.4-4.3,0.3-6.5,0.3
			c-1.3,0-2.5,0-3.9,0c-0.2,0-0.5,0-0.6-0.3s-0.1-0.6-0.1-0.9c0.1-5.3,0-10.6,0-15.8c0-2,0-3.9,0-5.9
			C752.6,215.6,752.7,215.2,753,215.2 M757.3,219.2c-0.2,0.1-0.3,0.3-0.3,0.5c0,4.8,0,9.7,0,14.5c0,0.2,0.1,0.4,0.3,0.4
			c0.8,0,1.6,0,2.3,0c1.8,0,3.7-0.1,5.3-1c1.5-0.8,2.3-2.3,2.6-3.9c0.3-1.6,0.4-3.1,0.2-4.6c-0.1-0.8-0.3-1.6-0.6-2.3
			c-0.5-1.2-1.5-2.2-2.6-2.7c-1.8-0.8-3.7-0.8-5.7-0.7C758.3,219.2,757.8,219.2,757.3,219.2z"/>
		<path class="st8" d="M808.9,215.6c0.6,0,1.2,0,1.8,0.1c0.4,0.1,0.7,0.6,0.6,1c0,0.3-0.3,0.4-0.5,0.6c0.5,0.3,0.6,1,0.9,1.5
			c-0.3,0-0.6,0-0.8,0c-0.2-0.3-0.3-0.7-0.5-1c-0.1-0.2-0.4-0.2-0.6-0.2c0,0.4,0,0.8,0,1.2c-0.3,0-0.5,0-0.8,0
			C808.9,217.7,808.9,216.6,808.9,215.6 M809.7,216.2c0,0.3,0,0.5,0,0.8c0.2,0,0.4,0,0.7-0.1c0.2-0.1,0.2-0.5,0-0.7
			C810.2,216.1,810,216.2,809.7,216.2z"/>
		<path class="st8" d="M787.2,222.6c1.2-1,2.7-1.4,4.3-1.2c0.8,0.1,1.6,0.2,2.2,0.6c0.6,0.3,1.1,0.8,1.5,1.3
			c0.1,0.2,0.3,0.3,0.5,0.1c0.8-0.9,1.8-1.6,2.9-1.9c1-0.2,2-0.2,2.8,0c1.2,0.2,2.2,0.8,2.9,1.8c0.9,1.4,1.1,3,1.2,4.6
			c0,3.1,0,6.3,0,9.3c0,0.4,0,0.8,0,1.3c0,0.3-0.4,0.3-0.6,0.3c-1,0-1.9-0.1-2.8,0c-0.2,0-0.5,0-0.7-0.1s-0.2-0.4-0.2-0.6
			c0-3.4,0-6.9,0-10.4c0-0.8,0-1.8-0.7-2.3c-0.6-0.5-1.5-0.3-2.1,0c-0.9,0.4-1.6,1.1-2.2,1.9c0,3.6,0,7.3,0,11c0,0.2,0,0.4-0.2,0.6
			c-0.2,0.2-0.5,0.1-0.8,0.1c-1-0.1-1.9,0-2.8,0c-0.3,0-0.5-0.3-0.4-0.6c0-3.4,0-6.9,0-10.4c0-0.7-0.1-1.5-0.5-2.2
			c-0.3-0.5-1-0.7-1.6-0.6c-1.1,0.2-2,0.9-2.6,1.7c-0.1,0.1-0.3,0.3-0.3,0.5c0,3.6,0,7.2,0,10.9c0,0.3,0,0.7-0.4,0.7c-1,0-2.1,0-3,0
			c-0.2,0-0.4,0-0.6-0.1s-0.2-0.4-0.2-0.5c0-5.3,0-10.6,0-15.8c0-0.2,0-0.6,0.3-0.6c1,0,2,0,2.9,0c0.3,0,0.7-0.1,0.9,0.1
			C787.3,222,787.2,222.3,787.2,222.6z"/>
		<path class="st8" d="M775.5,221.7c0.5-0.1,1,0,1.5,0c0.7,0,1.5,0,2.2,0c0.3,0,0.4,0.3,0.3,0.5c0,3.5,0,7,0,10.6c0,1.8,0,3.4,0,5.2
			c0,0.2,0,0.4-0.1,0.6c-0.2,0.1-0.5,0.1-0.7,0.1c-1.1-0.1-2.1,0-3.1,0c-0.3,0-0.3-0.3-0.3-0.5c0-5.3,0-10.7,0-15.9
			C775.3,222.1,775.3,221.8,775.5,221.7z"/>
		<path class="st8" d="M758.1,240.4c4.3,0,8.6,0,12.9,0c5.7,0,11.2,0,16.9,0.2c2,0.1,4,0.1,6,0.2c3.9,0.1,7.8,0.3,11.7,0.4
			c1.2,0,2.2,0,3.4,0.1c-0.3,0.1-0.6,0.2-0.9,0.2c-5.2,0.2-10.4,0.4-15.5,0.5c-5.1,0-10.3,0-15.4,0c-7,0-14.2,0-21.2,0
			c-2.2,0-4.5,0-6.7,0c-1.6,0-3.1,0-4.6-0.1c0.1-0.3,0.2-0.6,0.2-1c0-0.1-0.1-0.3,0-0.4C749.2,240.4,753.7,240.4,758.1,240.4z"/>
		<path class="st8" d="M714.1,240.9c7-0.2,14.2-0.4,21.2-0.5c0.2,0,0.4,0,0.3,0.2c-0.1,0.3,0.1,0.7,0.1,1c-0.4,0.1-0.7,0-1.1,0
			c-2.3,0-4.8-0.1-7.1-0.2c-3.9-0.1-7.9-0.2-11.8-0.3c-1.1,0-2.2,0-3.3-0.1C712.9,240.8,713.5,240.9,714.1,240.9z"/>
	</g>
	<g id="_x23_8fbb45ff_1_">
		<path class="st8" d="M773.3,217c0.1-2.2,2.2-3.8,4.2-3.8c1.5,0,2.8,0.9,3.5,2.2c0.5,0.9,0.6,2.1,0.4,3c0,0.2-0.1,0.4-0.1,0.6
			c0.1,0.1,0.2,0.2,0.3,0.3c-0.5,0.3-0.9,0.6-1.3,1c-1,1.1-2.6,1.5-4,1C774.5,220.7,773.2,218.8,773.3,217 M775,215
			c-1.2,1.2-1.2,3.2-0.2,4.4c0.9,1.1,2.3,1.6,3.6,1.3c0.7-0.2,1.2-0.7,1.6-1.3c0.2-0.3,0.2-0.6,0.1-1c0.2,0,0.4,0.1,0.5,0
			s0.2-0.3,0.2-0.5c0.2-1.1-0.2-2.2-0.9-3c-0.5-0.5-1.1-0.8-1.8-1C776.9,213.8,775.7,214.1,775,215z"/>
		<path class="st8" d="M776.8,214.7c0.6-0.1,1.4-0.1,1.9,0.3c0.9,0.5,1.5,1.6,1.4,2.6c-0.1,1-0.9,2-2,2.2c-0.8,0.2-1.7,0-2.2-0.5
			c-0.8-0.6-1.3-1.8-1-2.7C775.1,215.7,775.9,215,776.8,214.7 M776.3,215.7c0.5,0,1.1-0.2,1.6-0.1c0.4,0.1,0.7,0.4,1,0.7
			c0.1-0.1,0.2-0.2,0.1-0.3C778.4,215.1,777.1,215,776.3,215.7z"/>
		<path class="st8" d="M702.8,215.2c3.8,0,7.6,0,11.3,0c0.2,0,0.5,0,0.7,0.2c0.1,0.2,0,0.5,0,0.8c-0.1,0.4,0,0.8-0.1,1.2
			c-0.1,0.3-0.5,0.4-0.8,0.4c-2.2,0-4.4,0-6.6,0.1c-0.2,0-0.3,0-0.5,0.1c-0.2,0.2-0.2,0.4-0.2,0.7c0,2.1,0,4.1,0,6.2
			c0,0.2,0,0.6,0.3,0.7c0.2,0.1,0.5,0.1,0.8,0.1c2,0,3.9,0.1,5.9,0.1c0.2,0,0.5,0,0.6,0.2c0.1,0.3-0.1,0.6,0,1c0,0.3,0.1,0.9-0.3,1
			c-0.5,0.2-1,0.1-1.5,0.1c-1.7,0-3.3,0.1-5,0.1c-0.3-0.1-0.7,0.2-0.6,0.6c0,2.3,0,4.8,0,7.1c0,0.2,0,0.4,0.1,0.5
			c0.2,0.2,0.4,0.2,0.6,0.2c2.5,0,5.2,0.1,7.7,0.1c0.1,0,0.3,0.1,0.3,0.2c0,0.5,0,1.1-0.1,1.6c0,0.3-0.3,0.4-0.5,0.5
			c-0.3,0.1-0.6,0.1-1,0.1c-3.5,0-6.9,0-10.5,0c-0.3,0-0.7,0.1-1-0.1c-0.1-0.1-0.1-0.3-0.1-0.5c0-7.4,0-14.8,0-22.2
			C702.4,215.5,702.5,215.2,702.8,215.2z"/>
		<path class="st8" d="M732.9,227.2c1.6-3.1,5.2-5.1,8.7-4.8c1.7,0.1,3.3,0.7,4.6,1.7c1.4,1,2.4,2.3,3.1,4c0.7,1.8,0.7,3.6,0.3,5.5
			c-0.6,2.3-2,4.7-4.2,5.9c-0.4,0.2-0.9,0.3-1.4,0.5c-0.4,0.2-0.1,0.7-0.1,1c0.1,0.5-0.2,1.1-0.7,1.1c-1,0.1-2,0-2.9,0
			c0.1,0.1,0.2,0.3,0.3,0.4c0.6,0.5,1.3,1,1.9,1.6c0.3,0.2,0.4,0.6,0.3,1c-1.9,0-3.7,0-5.6,0c-0.1-0.3,0-0.8,0.3-1
			c0.4-0.3,0.9-0.1,1.3-0.2c-0.1-0.1-0.1-0.1-0.2-0.2c-0.7-0.6-1.4-1.1-2-1.7c-0.3-0.2-0.4-0.7-0.2-1c0.1-0.3,0.5-0.5,0.8-0.5
			c1.5,0,2.9,0,4.3,0c0.3,0,0.6,0,0.7-0.3c0-0.5-0.3-1.1,0-1.7c0.2-0.4,0.7-0.4,1.1-0.5c1.3-0.2,2.5-0.7,3.4-1.7
			c0.8-1,1.2-2.2,1.5-3.3c0.3-1.7,0.2-3.4-0.6-4.9c-0.7-1.4-1.8-2.4-3.1-3.1c-1.6-0.8-3.4-1-5.2-0.7c-1.6,0.4-3,1.3-4.1,2.5
			c-1.9,2.3-2,6-0.2,8.4c0.3,0.5,0.8,0.8,1,1.4c0.2,0.6-0.5,1.2-1.1,0.9c-0.4-0.2-0.7-0.6-1-1C731.8,234,731.4,230.2,732.9,227.2z"
			/>
		<path class="st8" d="M722.4,223.2c1.9-0.8,3.9-0.8,5.9-0.5c0.7,0.1,1.4,0.2,2.1,0.4c0.2,0,0.2,0.3,0.2,0.5
			c-0.2,0.8-0.4,1.7-0.6,2.4c0,0.3-0.3,0.2-0.5,0.1c-0.9-0.4-1.8-0.8-2.6-1c-0.7-0.1-1.5-0.1-2.2,0c-0.5,0.1-1,0.3-1.3,0.7
			c-0.3,0.4-0.4,0.8-0.5,1.2c-0.3,1.1-0.3,2.2-0.3,3.4c0,1.6-0.1,3.3,0.8,4.7c0.5,0.8,1.5,1.2,2.3,1.2c1.7,0,3.2-0.4,4.8-1
			c0.2,0.3,0.4,0.6,0.4,0.9c0,0.2-0.1,0.3-0.2,0.5c-1.1,0.9-2.3,1.6-3.7,2c-1.9,0.5-3.8,0.4-5.6-0.4c-1.2-0.6-2.1-1.6-2.5-2.8
			c-1.1-2.8-1.1-6.1,0.2-8.9C719.6,225.1,720.9,223.8,722.4,223.2z"/>
	</g>
</g>
<text transform="matrix(1 0 0 1 710.8711 264.8019)" class="st8 st9 st10">ECO-DIM.10</text>
<text transform="matrix(1 0 0 1 664.9238 116.7189)" class="st8 st9 st11">MIN</text>
<text transform="matrix(1 0 0 1 715.0586 116.7199)" class="st8 st9 st11">MAX</text>
<text transform="matrix(1 0 0 1 640.8242 195.8204)" class="st8 st9 st11">RESET</text>
<text transform="matrix(1 0 0 1 579.1084 213.6906)" class="st8 st9 st11">INDICATOR</text>
<line class="st2" x1="590.6" y1="343" x2="590.6" y2="379.3"/>
<path class="st2" d="M590.6,343v36.3V343z"/>
<path class="st2" d="M764.4,379.3V343V379.3z"/>
<path class="st4" d="M590.6,343h173.9H590.6z"/>
<g>
	<path class="st1" d="M788.6,161.9c-5.7-6.8-15.7-7.6-22.5-2c-6.8,5.7-7.6,15.7-2,22.5c5.7,6.8,15.7,7.6,22.5,2
		C793.4,178.8,794.3,168.7,788.6,161.9"/>
	<path class="st1" d="M786.8,163.4c-4.8-5.7-13.4-6.5-19.2-1.7c-5.7,4.8-6.5,13.4-1.7,19.2c4.8,5.7,13.4,6.5,19.2,1.7
		S791.6,169.2,786.8,163.4"/>
	<path class="st1" d="M768.3,175.8c-1.1,0.9-1.1,2.4-0.3,3.4c0.9,1.1,2.4,1.1,3.4,0.3"/>
	<path class="st1" d="M784.6,168.4c1.1-0.9,1.1-2.4,0.3-3.4c-0.9-1.1-2.4-1.1-3.4-0.3"/>
	<line class="st12" x1="768.3" y1="175.8" x2="781.5" y2="164.7"/>
	<line class="st12" x1="771.4" y1="179.6" x2="784.6" y2="168.4"/>
</g>
<g>
	<path class="st1" d="M753.5,126c-5.7-6.8-15.7-7.6-22.5-2c-6.8,5.7-7.6,15.7-2,22.5c5.7,6.8,15.7,7.6,22.5,2
		C758.3,142.9,759.1,132.8,753.5,126"/>
	<path class="st1" d="M751.7,127.6c-4.8-5.7-13.4-6.5-19.2-1.7c-5.7,4.8-6.5,13.4-1.7,19.2c4.8,5.7,13.4,6.5,19.2,1.7
		C755.7,141.9,756.5,133.3,751.7,127.6"/>
	<path class="st1" d="M733.1,139.9c-1.1,0.9-1.1,2.4-0.3,3.4c0.9,1.1,2.4,1.1,3.4,0.3"/>
	<path class="st1" d="M749.5,132.6c1.1-0.9,1.1-2.4,0.3-3.4c-0.9-1.1-2.4-1.1-3.4-0.3"/>
	<line class="st12" x1="733.1" y1="139.9" x2="746.4" y2="128.8"/>
	<line class="st12" x1="736.3" y1="143.7" x2="749.5" y2="132.6"/>
</g>
<g>
	<path class="st1" d="M702.1,126.2c-5.7-6.8-15.7-7.6-22.5-2s-7.6,15.7-2,22.5c5.7,6.8,15.7,7.6,22.5,2
		C706.9,143,707.8,132.9,702.1,126.2"/>
	<path class="st1" d="M700.3,127.7c-4.8-5.7-13.4-6.5-19.2-1.7s-6.5,13.4-1.7,19.2c4.8,5.7,13.4,6.5,19.2,1.7
		C704.4,142,705.1,133.4,700.3,127.7"/>
	<path class="st1" d="M681.8,140c-1.1,0.9-1.1,2.4-0.3,3.4c0.9,1.1,2.4,1.1,3.4,0.3"/>
	<path class="st1" d="M698.1,132.7c1.1-0.9,1.1-2.4,0.3-3.4c-0.9-1.1-2.4-1.1-3.4-0.3"/>
	<line class="st12" x1="681.8" y1="140" x2="695" y2="128.9"/>
	<line class="st12" x1="684.9" y1="143.8" x2="698.1" y2="132.7"/>
</g>
<text transform="matrix(1 0 0 1 726.6504 163.7306)" class="st8 st9 st11">SPEED</text>
<path class="st0" d="M496.1,130.9c-28.2-57.4-75.6-103.1-134-129.3L137.3,1.3l0,0C76.2,28.8,27.6,78.5,0.1,139.6v224.6
	C26.3,422.7,72,469.8,129.5,497.9h241c54.7-26.8,98.8-70.9,125.6-125.6V130.9z"/>
<path class="st1" d="M158.8,368l-0.1,43.4c0,1.9,1.5,3.7,3.4,3.7h171.5c1.9,0,3.6-1.7,3.6-3.6v-43.4c0-1.9-1.8-3.6-3.7-3.6h0.1
	H162.3h-0.1C160.3,364.6,158.8,366.1,158.8,368z"/>
<g>
	<path class="st1" d="M225.8,335.6c0-10.1-8.2-18.3-18.3-18.3s-18.3,8.2-18.3,18.3c0,10.1,8.2,18.3,18.3,18.3
		S225.8,345.7,225.8,335.6"/>
	<path class="st1" d="M223.1,335.6c0-8.6-7-15.6-15.6-15.6s-15.6,7-15.6,15.6s7,15.6,15.6,15.6C216.1,351.2,223.1,344.2,223.1,335.6
		"/>
	<path class="st1" d="M197.7,332.8c-1.6,0-2.8,1.3-2.8,2.8c0,1.6,1.3,2.8,2.8,2.8"/>
	<path class="st1" d="M217.5,338.4c1.6,0,2.8-1.3,2.8-2.8c0-1.6-1.3-2.8-2.8-2.8"/>
	<line class="st12" x1="197.7" y1="332.8" x2="217.5" y2="332.8"/>
	<line class="st12" x1="197.7" y1="338.4" x2="217.5" y2="338.4"/>
</g>
<path class="st12" d="M426.2,130.1l-57.7-57.7L356,84.6l57.7,57.7L426.2,130.1l-10.4-10.7l-3.9-3.6l-4.8-4.8"/>
<path class="st13" d="M378,497.9"/>
<path class="st13" d="M370,1.9"/>
<path class="st14" d="M496.1,379.8"/>
<path class="st13" d="M0.1,371.7"/>
<path class="st12" d="M434.2,286.9"/>
<path class="st12" d="M434.2,292.9"/>
<path class="st12" d="M330.7,415.2"/>
<path class="st12" d="M336,412.8"/>
<line class="st12" x1="411.6" y1="253.3" x2="411.6" y2="246.8"/>
<path class="st12" d="M336,412.8"/>
<path class="st12" d="M337.2,411.6"/>
<line class="st12" x1="401.5" y1="285.1" x2="401.5" y2="272.3"/>
<line class="st12" x1="401.5" y1="227.7" x2="401.5" y2="214.9"/>
<line class="st12" x1="382.5" y1="253.9" x2="382.5" y2="245.9"/>
<line class="st12" x1="377.1" y1="278" x2="377.1" y2="221.8"/>
<line class="st12" x1="377.1" y1="274.1" x2="378.3" y2="272.3"/>
<line class="st12" x1="322.6" y1="122.7" x2="173.6" y2="122.7"/>
<line class="st12" x1="322.6" y1="123.6" x2="250.9" y2="123.6"/>
<line class="st12" x1="245.3" y1="123.6" x2="173.6" y2="123.6"/>
<line class="st12" x1="173.6" y1="132.5" x2="245.3" y2="132.5"/>
<line class="st12" x1="250.9" y1="132.5" x2="322.6" y2="132.5"/>
<line class="st12" x1="377.1" y1="225.9" x2="378.3" y2="227.7"/>
<line class="st12" x1="174.2" y1="159.3" x2="322.6" y2="159.3"/>
<path class="st12" d="M335.4,411.6"/>
<path class="st12" d="M335.4,368.2"/>
<line class="st12" x1="315.5" y1="132.5" x2="315.5" y2="123.6"/>
<path class="st12" d="M161.4,414.9"/>
<path class="st12" d="M162.6,413.7"/>
<path class="st12" d="M442.6,207.2"/>
<path class="st12" d="M62.6,207.2"/>
<path class="st12" d="M62.6,207.5"/>
<path class="st12" d="M62.3,209.3"/>
<path class="st12" d="M62.3,209.6"/>
<line class="st12" x1="94.4" y1="214.9" x2="115.6" y2="214.9"/>
<line class="st12" x1="380.7" y1="214.9" x2="401.5" y2="214.9"/>
<line class="st12" x1="401.5" y1="225.6" x2="377.1" y2="225.6"/>
<line class="st12" x1="119.1" y1="225.6" x2="94.4" y2="225.6"/>
<line class="st12" x1="257.8" y1="123.6" x2="257.8" y2="132.5"/>
<polyline class="st12" points="250.9,123.6 250.9,151.5 322.6,151.5 "/>
<polyline class="st12" points="245.3,123.6 245.3,151.5 173.6,151.5 "/>
<line class="st12" x1="407.2" y1="250" x2="411.3" y2="250"/>
<line class="st12" x1="89.1" y1="250" x2="84.6" y2="250"/>
<line class="st12" x1="238.1" y1="132.5" x2="238.1" y2="123.6"/>
<line class="st12" x1="94.4" y1="274.4" x2="119.1" y2="274.4"/>
<line class="st12" x1="377.1" y1="274.4" x2="401.5" y2="274.4"/>
<line class="st12" x1="401.5" y1="285.1" x2="380.7" y2="285.1"/>
<line class="st12" x1="433.6" y1="292.6" x2="434.2" y2="292.6"/>
<path class="st12" d="M433.6,292.9"/>
<polyline class="st12" points="411.9,384.5 415.5,380.7 378.9,417.6 382.5,413.7 "/>
<path class="st12" d="M413.7,357.7L356,415.4l12.2,12.5l57.7-57.7L413.7,357.7L403,368.1l-3.6,3.9l-4.8,4.8"/>
<path class="st12" d="M333.7,413.7"/>
<path class="st12" d="M334.6,414.9"/>
<line class="st12" x1="180.7" y1="123.6" x2="180.7" y2="132.5"/>
<line class="st12" x1="119.1" y1="225.9" x2="117.9" y2="227.7"/>
<line class="st12" x1="119.1" y1="274.1" x2="117.9" y2="272.3"/>
<line class="st12" x1="119.1" y1="278" x2="119.1" y2="221.8"/>
<line class="st12" x1="113.8" y1="253.9" x2="113.8" y2="245.9"/>
<line class="st12" x1="94.4" y1="214.9" x2="94.4" y2="227.7"/>
<line class="st12" x1="84.6" y1="246.8" x2="84.6" y2="253.3"/>
<polyline class="st12" points="333.7,411.6 333.7,368.2 162.3,368.2 162.3,368.3 162.3,411.6 333.7,411.6 "/>
<path class="st12" d="M162.3,413.4"/>
<path class="st12" d="M333.7,413.4"/>
<path class="st12" d="M61.7,213.1"/>
<path class="st12" d="M165.5,415.2"/>
<path class="st12" d="M159,411.6"/>
<path class="st12" d="M82.5,357.7l57.7,57.7l-12.5,12.5c-57.7-57.7,0,0-57.7-57.7L82.5,357.7l43.4,43.4l7.4,7.4"/>
<path class="st12" d="M377,226c-0.1,0.1-0.2,0.2-0.3,0.3"/>
<path class="st12" d="M377.4,249.9c0,3.8,1.6,7.3,4.5,9.8"/>
<path class="st12" d="M408.8,257.6c1.6-2.2,2.5-4.9,2.5-7.7"/>
<path class="st12" d="M311.8,176.8c6,0,10.9-4.7,10.9-10.4"/>
<path class="st12" d="M401.4,284.8c19.3,0,35-15.6,35-35c0-19.3-15.7-35-35-35"/>
<path class="st12" d="M401.4,274.1c13.4,0,24.3-10.9,24.3-24.3s-10.9-24.2-24.3-24.2"/>
<path class="st12" d="M376.7,273.5c0.1,0.1,0.2,0.2,0.3,0.3"/>
<path class="st12" d="M411.3,249.9c0-3-1-5.8-2.9-8.1"/>
<path class="st12" d="M381.9,240.1c-2.9,2.5-4.5,6-4.5,9.8"/>
<path class="st12" d="M411.9,249.9c0-6-4.9-10.9-10.9-10.9s-10.9,4.9-10.9,10.9s4.9,10.9,10.9,10.9
	C407.1,260.7,411.9,255.9,411.9,249.9"/>
<path class="st12" d="M401.5,239.3c-3.9-0.2-7.6,1.8-9.6,5.2s-2,7.5,0.1,10.9c2,3.3,5.7,5.3,9.6,5.1"/>
<path class="st12" d="M314.6,390.9c0-7.3-5.9-13.2-13.2-13.2c-7.3,0-13.2,5.9-13.2,13.2c0,7.3,5.9,13.3,13.2,13.3
	S314.6,398.2,314.6,390.9"/>
<path class="st12" d="M278.9,390.9c0-7.3-5.9-13.2-13.2-13.2c-7.3,0-13.2,5.9-13.2,13.2c0,7.3,5.9,13.3,13.2,13.3
	C273,404.2,278.9,398.2,278.9,390.9"/>
<path class="st12" d="M333.5,366.4"/>
<path class="st12" d="M335.1,368"/>
<path class="st12" d="M335.2,411.5"/>
<path class="st12" d="M333.5,413.1"/>
<path class="st12" d="M118.9,226.3c-0.1-0.1-0.2-0.2-0.3-0.3"/>
<path class="st12" d="M84.6,249.9c0,2.9,1,5.7,2.8,8"/>
<path class="st12" d="M114,259.7c2.9-2.5,4.5-6,4.5-9.8"/>
<path class="st12" d="M311.9,176.8h-128c-5.7,0-10.4-4.7-10.4-10.4v-50.6h149.1v50.6"/>
<g>
	<path class="st15" d="M445.1,273.2c2.5-21,1.7-42.4-2.5-63.1c-1.4-6.7,2.9-13.2,9.6-14.6c6.7-1.4,13.2,2.9,14.6,9.6
		c4.8,23.6,5.4,48,2.4,72c6.4,6.4,8.3,16.2,4.1,24.3c-4.2,8.1-13.1,12.6-22,11.2c-9-1.5-16-8.6-17.4-17.6
		C432.5,286,436.9,277.3,445.1,273.2z"/>
</g>
<path class="st16" d="M280.7,249.9c0-18.3-14.7-33.2-32.9-33.2s-32.9,14.9-32.9,33.2c0,18.3,14.7,33.2,32.9,33.2
	C266,283.1,280.7,268.2,280.7,249.9"/>
<path class="st17" d="M262,249.9c0-7.8-6.3-14.1-14.1-14.1s-14.1,6.3-14.1,14.1c0,7.8,6.3,14.1,14.1,14.1
	C255.7,264,262,257.7,262,249.9"/>
<path class="st17" d="M260.2,249.9c0-6.8-5.5-12.3-12.3-12.3s-12.3,5.5-12.3,12.3c0,6.8,5.5,12.3,12.3,12.3
	C254.6,262.2,260.2,256.7,260.2,249.9"/>
<path class="st18" d="M258.7,335.6c0-6-4.9-10.9-10.9-10.9s-10.9,4.9-10.9,10.9s4.9,10.9,10.9,10.9
	C253.8,346.4,258.7,341.6,258.7,335.6"/>
<path class="st17" d="M257.2,335.6"/>
<path class="st17" d="M247.8,345"/>
<path class="st17" d="M238.4,335.6"/>
<path class="st17" d="M247.8,326.2"/>
<path class="st17" d="M257.2,335.6"/>
<path class="st17" d="M256.3,335.6"/>
<path class="st17" d="M239.3,335.6"/>
<path class="st17" d="M247.8,327.1"/>
<path class="st17" d="M256.3,335.6"/>
<path class="st17" d="M254.8,335.6c0-3.9-3.1-7-7-7s-7,3.1-7,7s3.1,7,7,7S254.8,339.4,254.8,335.6"/>
<path class="st12" d="M207.5,390.9c0-7.3-5.9-13.2-13.2-13.2s-13.2,5.9-13.2,13.2s5.9,13.3,13.2,13.3S207.5,398.2,207.5,390.9"/>
<path class="st12" d="M243.2,390.9c0-7.3-5.9-13.2-13.2-13.2s-13.2,5.9-13.2,13.2c0,7.3,5.9,13.3,13.2,13.3
	C237.3,404.2,243.2,398.2,243.2,390.9"/>
<path class="st12" d="M162.1,413.1"/>
<path class="st12" d="M94.3,225.6c-13.4,0-24.3,10.9-24.3,24.3c0,13.4,10.9,24.2,24.3,24.2"/>
<path class="st12" d="M118.6,273.8c0.1-0.1,0.2-0.2,0.3-0.3"/>
<path class="st12" d="M118.5,249.9c0-3.8-1.6-7.3-4.5-9.8"/>
<path class="st12" d="M87.3,242c-1.7,2.3-2.7,5-2.7,7.9"/>
<path class="st12" d="M105.4,249.9c0-6-4.9-10.9-10.9-10.9s-10.9,4.9-10.9,10.9s4.9,10.9,10.9,10.9
	C100.6,260.7,105.4,255.9,105.4,249.9"/>
<path class="st12" d="M94.1,260.4c3.9,0.2,7.6-1.8,9.6-5.2c2-3.4,2-7.5-0.1-10.9c-2-3.3-5.7-5.3-9.6-5.1"/>
<polyline class="st12" points="94.7,260.7 92.3,258.7 90.6,256 89.4,253 89.1,250 "/>
<polyline class="st12" points="89.1,250 89.4,246.8 90.6,243.8 92.3,241.4 94.7,239.3 "/>
<path class="st12" d="M444.1,218.2"/>
<polyline class="st12" points="401.2,239 403.6,241.1 405.4,243.8 406.6,246.8 407.2,250 "/>
<polyline class="st12" points="407.2,250 406.6,253 405.4,256 403.6,258.7 401.2,260.7 "/>
<polyline class="st12" points="382.5,245.9 382.2,241.1 381.6,236.4 380.4,231.9 379.5,229.5 378.3,227.7 "/>
<polyline class="st12" points="378.3,272.3 379.5,270.3 380.4,268.2 381.6,263.4 382.2,258.7 382.5,253.9 "/>
<polyline class="st12" points="113.8,245.9 114.1,241.1 114.7,236.4 115.8,231.9 116.4,229.5 117.9,227.7 "/>
<polyline class="st12" points="117.9,272.3 116.4,270.3 115.8,268.2 114.7,263.4 114.1,258.7 113.8,253.9 "/>
<polyline class="st12" points="401.5,272.3 405.7,271.7 409.8,270.3 413.4,268.2 416.4,265.5 418.8,261.9 420.5,258.1 421.7,254.2 
	422,250 421.7,245.9 420.5,241.7 418.8,237.8 416.4,234.6 413.4,231.9 409.8,229.5 405.7,228.3 401.5,227.7 "/>
<polyline class="st12" points="119.1,221.8 118.8,220 117.9,218.2 115.6,214.9 "/>
<polyline class="st12" points="378.3,227.7 389.9,227.1 395.8,227.1 401.5,227.7 "/>
<line class="st12" x1="113.8" y1="253.9" x2="105.1" y2="253.3"/>
<line class="st12" x1="105.1" y1="246.8" x2="113.8" y2="245.9"/>
<polyline class="st12" points="401.5,272.3 395.8,272.9 389.9,272.9 378.3,272.3 "/>
<polyline class="st12" points="94.4,227.7 100.4,227.1 106,227.1 117.9,227.7 "/>
<polyline class="st12" points="95.9,239 96.2,236.1 96.2,233.4 95.6,230.4 94.4,227.7 "/>
<polyline class="st12" points="380.7,285.1 378.3,281.9 377.4,280.1 377.1,278 "/>
<polyline class="st12" points="95.9,260.7 96.2,263.7 96.2,266.7 95.6,269.7 94.4,272.4 "/>
<polyline class="st12" points="377.1,274.4 378.3,276.8 379.2,279.5 380.7,285.1 "/>
<line class="st12" x1="382.5" y1="245.9" x2="390.8" y2="246.8"/>
<polyline class="st12" points="94.4,272.3 100.4,272.9 106,272.9 117.9,272.3 "/>
<polyline class="st12" points="400.3,260.7 400,263.7 400,266.7 400.3,269.7 401.5,272.4 "/>
<line class="st12" x1="390.8" y1="253.3" x2="382.5" y2="253.9"/>
<polyline class="st12" points="400.3,239 400,236.1 400,233.4 400.3,230.4 401.5,227.7 "/>
<polyline class="st12" points="94.4,227.7 90.3,228.3 86.4,229.5 82.8,231.9 79.8,234.6 77.5,237.8 75.4,241.7 74.5,245.9 74.2,250 
	74.5,254.2 75.4,258.1 77.2,261.9 79.8,265.5 82.8,268.2 86.4,270.3 90.3,271.8 94.4,272.3 "/>
<polyline class="st12" points="380.7,214.9 379.2,220.3 378.3,223 377.1,225.6 "/>
<path class="st12" d="M115.6,285.1l2.4-3.3l0.9-1.8l0.3-2.1v-3.6l-1.2,2.4l-0.9,2.7L115.6,285.1H94.5v-12.8l-0.1,12.5
	c-19.3,0-35-15.6-35-35c0-19.3,15.7-35,35-35"/>
<polyline class="st12" points="377.1,221.8 377.4,220 378.3,218.2 380.7,214.9 "/>
<g>
	<path class="st15" d="M50.9,226.3c-2.5,21-1.7,42.4,2.5,63.1c1.4,6.7-2.9,13.2-9.6,14.6c-6.7,1.4-13.2-2.9-14.6-9.6
		c-4.8-23.6-5.4-48-2.4-72c-6.4-6.4-8.3-16.2-4.1-24.3s13.1-12.6,22-11.2c9,1.5,16,8.6,17.4,17.6C63.4,213.5,59,222.2,50.9,226.3z"
		/>
</g>
<g>
	<path class="st15" d="M224.1,446.7c21,2.5,42.4,1.7,63.1-2.5c6.7-1.4,13.2,2.9,14.6,9.6s-2.9,13.2-9.6,14.6
		c-23.6,4.8-48,5.4-72,2.4c-6.4,6.4-16.2,8.3-24.3,4.1c-8.1-4.2-12.6-13.1-11.2-22c1.5-9,8.6-16,17.6-17.4
		C211.3,434.2,220,438.6,224.1,446.7z"/>
</g>
<g>
	<path class="st16" d="M271.4,52.9c-21-2.5-42.4-1.7-63.1,2.5c-6.7,1.4-13.2-2.9-14.6-9.6c-1.4-6.7,2.9-13.2,9.6-14.6
		c23.6-4.8,48-5.4,72-2.4c6.4-6.4,16.2-8.3,24.3-4.1c8.1,4.2,12.6,13.1,11.2,22c-1.5,9-8.6,16-17.6,17.4
		C284.2,65.4,275.5,61,271.4,52.9z"/>
</g>
<polyline class="st14" points="126,99 129.5,95.2 92.9,132 96.5,128.2 "/>
<path class="st12" d="M127.8,72.2l-57.7,57.7l12.2,12.5L140,84.7L127.8,72.2l-10.7,10.4l-3.6,3.9l-4.8,4.8"/>
<polyline class="st12" points="119.1,225.6 117.9,223 117,220.3 115.6,214.9 "/>
<g>
	<path class="st1" d="M306.9,335.6c0-10.1-8.2-18.3-18.3-18.3c-10.1,0-18.3,8.2-18.3,18.3s8.2,18.3,18.3,18.3
		C298.7,353.9,306.9,345.7,306.9,335.6"/>
	<path class="st1" d="M304.2,335.6c0-8.6-7-15.6-15.6-15.6s-15.6,7-15.6,15.6s7,15.6,15.6,15.6C297.2,351.2,304.2,344.2,304.2,335.6
		"/>
	<path class="st1" d="M278.8,332.8c-1.6,0-2.8,1.3-2.8,2.8c0,1.6,1.3,2.8,2.8,2.8"/>
	<path class="st1" d="M298.5,338.4c1.6,0,2.8-1.3,2.8-2.8c0-1.6-1.3-2.8-2.8-2.8"/>
	<line class="st12" x1="278.8" y1="332.8" x2="298.5" y2="332.8"/>
	<line class="st12" x1="278.8" y1="338.4" x2="298.5" y2="338.4"/>
</g>
<g>
	<path class="st8" d="M345.2,193.9h2l0.6,3.7l0.7-3.7h1.4l0.7,3.7l0.6-3.7h1.9l-1.5,5.5h-1.8l-0.6-2.9l-0.7,2.9h-1.7L345.2,193.9
		L345.2,193.9z M358,193.9h2.2l0.9,3.4l1-3.4h2.1l-2.1,5.6h-1.9L358,193.9L358,193.9z M364.6,193.9v5.5h3.7V198h-1.8v-0.7h1.6v-1.4
		h-1.6v-0.6h1.7v-1.4H364.6L364.6,193.9z M355.2,197.4l0.5-1.9l0.4,1.9H355.2z M356.9,193.9h-2.2l-2,5.5h2.1l0.2-0.8h1.6l0.2,0.8
		h2.2L356.9,193.9L356.9,193.9z M342.1,197.7l-1.1,1.7h-4.6l2.6-4h-2.4l1-1.6h4.5l-2.4,3.8L342.1,197.7L342.1,197.7z M339.5,191.4
		c-2.9,0-5.3,2.4-5.3,5.3s2.4,5.3,5.3,5.3s5.3-2.4,5.3-5.3S342.4,191.4,339.5,191.4L339.5,191.4z M339.3,185.1v-1.7
		c-7.3,0-13.2,5.9-13.2,13.2v0.1h1.7C327.9,190.4,333,185.2,339.3,185.1z M339.3,188.8v-1.7l0,0c-5.3,0-9.6,4.3-9.6,9.6l0,0h1.7
		C331.5,192.4,335,188.9,339.3,188.8z"/>
</g>
<g>
	<g id="_x23_3d3884ff">
		<path class="st8" d="M273.4,61c0,0,0.1,0,0.2,0c0.6,1.2,1.1,2.5,1.7,3.7c0.1,0.1,0.2,0.5-0.1,0.4c-0.6-1.2-1.1-2.5-1.7-3.7
			C273.4,61.3,273.2,61.1,273.4,61z"/>
		<path class="st8" d="M274.1,61.2c0.1-0.1,0.3,0.1,0.3,0.2c0.4,0.9,0.8,1.8,1.2,2.6c0.1,0.2,0.2,0.5-0.1,0.4
			c-0.3-0.6-0.6-1.2-0.8-1.8c-0.2-0.4-0.4-0.9-0.5-1.3L274.1,61.2z"/>
		<path class="st8" d="M272.7,61.6c-0.1-0.2,0.1-0.3,0.2-0.4c0.4,0.8,0.8,1.7,1.2,2.5c0.2,0.5,0.5,1,0.7,1.5c-0.1,0-0.2,0.1-0.2,0.2
			c-0.2-0.2-0.3-0.5-0.4-0.8C273.6,63.6,273.2,62.6,272.7,61.6z"/>
		<path class="st8" d="M272,61.8c-0.1-0.2,0.1-0.2,0.1-0.3c0.6,1.3,1.2,2.6,1.8,3.9c0.1,0.2,0,0.3-0.2,0.3
			C273.2,64.5,272.6,63.2,272,61.8z"/>
		<path class="st8" d="M275.1,61.9c0.3,0.1,0.6,0.3,0.7,0.6s0,0.6,0,0.9C275.5,62.9,275.3,62.4,275.1,61.9z"/>
		<path class="st8" d="M301.5,62.8c0.6-0.1,1.3-0.1,1.8,0.2c0.9,0.4,1.6,1.4,1.6,2.4c0.1,1.2-0.8,2.4-2,2.7c-0.5,0.1-1,0.1-1.5,0
			c-1.1-0.3-2-1.4-2-2.6C299.3,64.3,300.3,63.1,301.5,62.8 M301.6,63.3c-1.1,0.2-1.8,1.3-1.8,2.4c0,0.5,0.2,0.9,0.5,1.3
			c0.6,0.7,1.7,1.1,2.5,0.8c0.5-0.1,0.9-0.5,1.2-0.9c0.5-0.6,0.5-1.5,0.3-2.2C303.9,63.6,302.7,62.9,301.6,63.3z"/>
		<path class="st8" d="M243.6,63.5c1.7,0,3.3,0,5,0c2.1,0,4.2-0.1,6.3,0.3c1.8,0.3,3.5,1,4.9,2.1c1.9,1.5,3,3.9,3.4,6.2
			c0.4,2,0.4,4.1,0.1,6.1c-0.2,1.5-0.7,3-1.5,4.4c-0.8,1.3-1.9,2.4-3.2,3.2c-1.2,0.7-2.6,1.1-4,1.4c-2.2,0.4-4.4,0.3-6.6,0.3
			c-1.3,0-2.6,0-4,0c-0.2,0-0.5,0-0.6-0.3s-0.1-0.6-0.1-0.9c0.1-5.4,0-10.8,0-16.2c0-2,0-4,0-6C243.2,63.9,243.3,63.5,243.6,63.5
			 M248,67.6c-0.2,0.1-0.3,0.3-0.3,0.5c0,4.9,0,9.9,0,14.8c0,0.2,0.1,0.4,0.3,0.4c0.8,0,1.6,0,2.4,0c1.8,0,3.8-0.1,5.4-1
			c1.5-0.8,2.4-2.4,2.7-4c0.3-1.6,0.4-3.2,0.2-4.7c-0.1-0.8-0.3-1.6-0.6-2.4c-0.5-1.2-1.5-2.3-2.7-2.8c-1.8-0.8-3.8-0.8-5.8-0.7
			C249.1,67.6,248.6,67.6,248,67.6z"/>
		<path class="st8" d="M300.8,63.9c0.6,0,1.2,0,1.8,0.1c0.4,0.1,0.7,0.6,0.6,1c0,0.3-0.3,0.4-0.5,0.6c0.5,0.3,0.6,1,0.9,1.5
			c-0.3,0-0.6,0-0.8,0c-0.2-0.3-0.3-0.7-0.5-1c-0.1-0.2-0.4-0.2-0.6-0.2c0,0.4,0,0.8,0,1.2c-0.3,0-0.5,0-0.8,0
			C300.8,66,300.8,64.9,300.8,63.9 M301.6,64.5c0,0.3,0,0.5,0,0.8c0.2,0,0.4,0,0.7-0.1c0.2-0.1,0.2-0.5,0-0.7
			C302.1,64.4,301.9,64.5,301.6,64.5z"/>
		<path class="st8" d="M278.6,71c1.2-1,2.8-1.4,4.4-1.2c0.8,0.1,1.6,0.2,2.3,0.6c0.6,0.3,1.1,0.8,1.5,1.3c0.1,0.2,0.3,0.3,0.5,0.1
			c0.8-0.9,1.8-1.6,3-1.9c1-0.2,2-0.2,2.9,0c1.2,0.2,2.3,0.8,3,1.8c0.9,1.4,1.1,3.1,1.2,4.7c0,3.2,0,6.4,0,9.5c0,0.4,0,0.8,0,1.3
			c0,0.3-0.4,0.3-0.6,0.3c-1,0-1.9-0.1-2.9,0c-0.2,0-0.5,0-0.7-0.1S293,87,293,86.8c0-3.5,0-7.1,0-10.6c0-0.8,0-1.8-0.7-2.4
			c-0.6-0.5-1.5-0.3-2.1,0c-0.9,0.4-1.6,1.1-2.2,1.9c0,3.7,0,7.5,0,11.2c0,0.2,0,0.4-0.2,0.6s-0.5,0.1-0.8,0.1c-1-0.1-1.9,0-2.9,0
			c-0.3,0-0.5-0.3-0.4-0.6c0-3.5,0-7.1,0-10.6c0-0.7-0.1-1.5-0.5-2.2c-0.3-0.5-1-0.7-1.6-0.6c-1.1,0.2-2,0.9-2.7,1.7
			c-0.1,0.1-0.3,0.3-0.3,0.5c0,3.7,0,7.4,0,11.1c0,0.3,0,0.7-0.4,0.7c-1,0-2.1,0-3.1,0c-0.2,0-0.4,0-0.6-0.1s-0.2-0.4-0.2-0.5
			c0-5.4,0-10.8,0-16.2c0-0.2,0-0.6,0.3-0.6c1,0,2,0,3,0c0.3,0,0.7-0.1,0.9,0.1C278.7,70.4,278.6,70.7,278.6,71z"/>
		<path class="st8" d="M266.7,70.1c0.5-0.1,1,0,1.5,0c0.7,0,1.5,0,2.2,0c0.3,0,0.4,0.3,0.3,0.5c0,3.6,0,7.2,0,10.8
			c0,1.8,0,3.5,0,5.3c0,0.2,0,0.4-0.1,0.6c-0.2,0.1-0.5,0.1-0.7,0.1c-1.1-0.1-2.1,0-3.2,0c-0.3,0-0.3-0.3-0.3-0.5
			c0-5.4,0-10.9,0-16.3C266.5,70.5,266.5,70.2,266.7,70.1z"/>
		<path class="st8" d="M248.9,89.2c4.4,0,8.8,0,13.2,0c5.8,0,11.5,0,17.3,0.2c2,0.1,4.1,0.1,6.1,0.2c4,0.1,8,0.3,12,0.4
			c1.2,0,2.3,0,3.5,0.1c-0.3,0.1-0.6,0.2-0.9,0.2c-5.3,0.2-10.6,0.4-15.9,0.5c-5.2,0-10.5,0-15.7,0c-7.2,0-14.5,0-21.7,0
			c-2.3,0-4.6,0-6.9,0c-1.6,0-3.2,0-4.7-0.1c0.1-0.3,0.2-0.6,0.2-1c0-0.1-0.1-0.3,0-0.4C239.8,89.2,244.4,89.2,248.9,89.2z"/>
		<path class="st8" d="M203.9,89.8c7.2-0.2,14.5-0.4,21.7-0.5c0.2,0,0.4,0,0.3,0.2c-0.1,0.3,0.1,0.7,0.1,1c-0.4,0.1-0.7,0-1.1,0
			c-2.4,0-4.9-0.1-7.3-0.2c-4-0.1-8.1-0.2-12.1-0.3c-1.1,0-2.3,0-3.4-0.1C202.6,89.7,203.3,89.8,203.9,89.8z"/>
	</g>
	<g id="_x23_8fbb45ff">
		<path class="st8" d="M264.4,65.3c0.1-2.2,2.2-3.9,4.3-3.9c1.5,0,2.9,0.9,3.6,2.2c0.5,0.9,0.6,2.1,0.4,3.1c0,0.2-0.1,0.4-0.1,0.6
			c0.1,0.1,0.2,0.2,0.3,0.3c-0.5,0.3-0.9,0.6-1.3,1c-1,1.1-2.7,1.5-4.1,1C265.6,69.1,264.3,67.2,264.4,65.3 M266.1,63.3
			c-1.2,1.2-1.2,3.3-0.2,4.5c0.9,1.1,2.4,1.6,3.7,1.3c0.7-0.2,1.2-0.7,1.6-1.3c0.2-0.3,0.2-0.6,0.1-1c0.2,0,0.4,0.1,0.5,0
			s0.2-0.3,0.2-0.5c0.2-1.1-0.2-2.3-0.9-3.1c-0.5-0.5-1.1-0.8-1.8-1C268.1,62,266.9,62.4,266.1,63.3z"/>
		<path class="st8" d="M268,63c0.6-0.1,1.4-0.1,1.9,0.3c0.9,0.5,1.5,1.6,1.4,2.7c-0.1,1-0.9,2-2,2.2c-0.8,0.2-1.7,0-2.3-0.5
			c-0.8-0.6-1.3-1.8-1-2.8C266.3,64,267.1,63.3,268,63 M267.5,64c0.5,0,1.1-0.2,1.6-0.1c0.4,0.1,0.7,0.4,1,0.7
			c0.1-0.1,0.2-0.2,0.1-0.3C269.6,63.4,268.3,63.3,267.5,64z"/>
		<path class="st8" d="M192.3,63.5c3.9,0,7.8,0,11.6,0c0.2,0,0.5,0,0.7,0.2c0.1,0.2,0,0.5,0,0.8c-0.1,0.4,0,0.8-0.1,1.2
			c-0.1,0.3-0.5,0.4-0.8,0.4c-2.3,0-4.5,0-6.8,0.1c-0.2,0-0.3,0-0.5,0.1c-0.2,0.2-0.2,0.4-0.2,0.7c0,2.1,0,4.2,0,6.3
			c0,0.2,0,0.6,0.3,0.7c0.2,0.1,0.5,0.1,0.8,0.1c2,0,4,0.1,6,0.1c0.2,0,0.5,0,0.6,0.2c0.1,0.3-0.1,0.6,0,1c0,0.3,0.1,0.9-0.3,1
			c-0.5,0.2-1,0.1-1.5,0.1c-1.7,0-3.4,0.1-5.1,0.1c-0.3-0.1-0.7,0.2-0.6,0.6c0,2.4,0,4.9,0,7.3c0,0.2,0,0.4,0.1,0.5
			c0.2,0.2,0.4,0.2,0.6,0.2c2.6,0,5.3,0.1,7.9,0.1c0.1,0,0.3,0.1,0.3,0.2c0,0.5,0,1.1-0.1,1.6c0,0.3-0.3,0.4-0.5,0.5
			c-0.3,0.1-0.6,0.1-1,0.1c-3.6,0-7.1,0-10.7,0c-0.3,0-0.7,0.1-1-0.1c-0.1-0.1-0.1-0.3-0.1-0.5c0-7.6,0-15.1,0-22.7
			C191.9,63.8,192,63.5,192.3,63.5z"/>
		<path class="st8" d="M223.1,75.8c1.6-3.2,5.3-5.2,8.9-4.9c1.7,0.1,3.4,0.7,4.7,1.7c1.4,1,2.5,2.4,3.2,4.1c0.7,1.8,0.7,3.7,0.3,5.6
			c-0.6,2.4-2,4.8-4.3,6c-0.4,0.2-0.9,0.3-1.4,0.5c-0.4,0.2-0.1,0.7-0.1,1c0.1,0.5-0.2,1.1-0.7,1.1c-1,0.1-2,0-3,0
			c0.1,0.1,0.2,0.3,0.3,0.4c0.6,0.5,1.3,1,1.9,1.6c0.3,0.2,0.4,0.6,0.3,1c-1.9,0-3.8,0-5.7,0c-0.1-0.3,0-0.8,0.3-1
			c0.4-0.3,0.9-0.1,1.3-0.2c-0.1-0.1-0.1-0.1-0.2-0.2c-0.7-0.6-1.4-1.1-2-1.7c-0.3-0.2-0.4-0.7-0.2-1c0.1-0.3,0.5-0.5,0.8-0.5
			c1.5,0,3,0,4.4,0c0.3,0,0.6,0,0.7-0.3c0-0.5-0.3-1.1,0-1.7c0.2-0.4,0.7-0.4,1.1-0.5c1.3-0.2,2.6-0.7,3.5-1.7
			c0.8-1,1.2-2.2,1.5-3.4c0.3-1.7,0.2-3.5-0.6-5c-0.7-1.4-1.8-2.5-3.2-3.2c-1.6-0.8-3.5-1-5.3-0.7c-1.6,0.4-3.1,1.3-4.2,2.6
			c-1.9,2.4-2,6.1-0.2,8.6c0.3,0.5,0.8,0.8,1,1.4s-0.5,1.2-1.1,0.9c-0.4-0.2-0.7-0.6-1-1C222,82.7,221.6,78.8,223.1,75.8z"/>
		<path class="st8" d="M212.4,71.7c1.9-0.8,4-0.8,6-0.5c0.7,0.1,1.4,0.2,2.1,0.4c0.2,0,0.2,0.3,0.2,0.5c-0.2,0.8-0.4,1.7-0.6,2.5
			c0,0.3-0.3,0.2-0.5,0.1c-0.9-0.4-1.8-0.8-2.7-1c-0.7-0.1-1.5-0.1-2.2,0c-0.5,0.1-1,0.3-1.3,0.7c-0.3,0.4-0.4,0.8-0.5,1.2
			c-0.3,1.1-0.3,2.3-0.3,3.5c0,1.6-0.1,3.4,0.8,4.8c0.5,0.8,1.5,1.2,2.4,1.2c1.7,0,3.3-0.4,4.9-1c0.2,0.3,0.4,0.6,0.4,0.9
			c0,0.2-0.1,0.3-0.2,0.5c-1.1,0.9-2.4,1.6-3.8,2c-1.9,0.5-3.9,0.4-5.7-0.4c-1.2-0.6-2.1-1.6-2.6-2.9c-1.1-2.9-1.1-6.2,0.2-9.1
			C209.5,73.6,210.8,72.3,212.4,71.7z"/>
	</g>
</g>
<text transform="matrix(1 0 0 1 193.2006 109.7875)" class="st8 st9 st19">ECO-DIM.07</text>
<text transform="matrix(1 0 0 1 144.9486 342.5761)" class="st8 st9 st19">MIN</text>
<text transform="matrix(1 0 0 1 311.7924 342.5839)" class="st8 st9 st19">MAX</text>
<text transform="matrix(1 0 0 1 218.0876 315.2134)" class="st8 st9 st19">RESET</text>
<path class="st20" d="M196.9,214.7c0-6.8-5.5-12.3-12.3-12.3s-12.3,5.5-12.3,12.3s5.5,12.3,12.3,12.3S196.9,221.5,196.9,214.7"/>
<g>
	<path class="st12" d="M170.1,374.5l-0.1,30.7c0,1.3,1.3,2.6,3,2.6h149.5c1.7,0,3.1-1.2,3.1-2.5v-30.7c0-1.3-1.6-2.5-3.2-2.5h0.1
		H173.1l0,0C171.4,372,170.1,373.1,170.1,374.5z"/>
	<path class="st12" d="M172.1,376.2L172,403c0,1.2,1.3,2.3,2.9,2.3h145.2c1.6,0,3-1,3-2.2v-26.8c0-1.2-1.6-2.2-3.1-2.2h0.1h-145l0,0
		C173.4,374.1,172.1,375.1,172.1,376.2z"/>
</g>
<text transform="matrix(1 0 0 1 140.2482 201.5319)" class="st8 st9 st19">LED</text>
<g>
	<path class="st8" d="M598.7,282.1h4.3l1.3,8l1.5-8h3l1.5,8l1.3-8h4.1l-3.2,11.8h-3.9l-1.3-6.2l-1.5,6.2h-3.7L598.7,282.1
		L598.7,282.1z M626.2,282.1h4.7l1.9,7.3l2.2-7.3h4.5l-4.5,12.1H631L626.2,282.1L626.2,282.1z M640.4,282.1V294h8v-3h-3.9v-1.5h3.4
		v-3h-3.4v-1.3h3.7v-3H640.4L640.4,282.1z M620.2,289.7l1.1-4.1l0.9,4.1H620.2z M623.9,282.1h-4.7l-4.3,11.8h4.5l0.4-1.7h3.4
		l0.4,1.7h4.7L623.9,282.1L623.9,282.1z M592,290.3l-2.4,3.7h-9.9l5.6-8.6h-5.2l2.2-3.4h9.7l-5.2,8.2L592,290.3L592,290.3z
		 M586.4,276.8c-6.2,0-11.4,5.2-11.4,11.4c0,6.2,5.2,11.4,11.4,11.4s11.4-5.2,11.4-11.4C597.8,281.9,592.6,276.8,586.4,276.8
		L586.4,276.8z M585.9,263.2v-3.7c-15.7,0-28.4,12.7-28.4,28.4v0.2h3.7C561.4,274.6,572.4,263.4,585.9,263.2z M585.9,271.2v-3.7l0,0
		c-11.4,0-20.7,9.3-20.7,20.7l0,0h3.7C569.1,278.9,576.7,271.4,585.9,271.2z"/>
</g>
</svg>
