<?xml version="1.0" encoding="utf-8"?>
<!-- Generator: Adobe Illustrator 21.1.0, SVG Export Plug-In . SVG Version: 6.00 Build 0)  -->
<svg version="1.1" id="Layer_1" xmlns="http://www.w3.org/2000/svg" xmlns:xlink="http://www.w3.org/1999/xlink" x="0px" y="0px"
	 viewBox="0 0 1417.3 1417.3" style="enable-background:new 0 0 1417.3 1417.3;" xml:space="preserve">
<style type="text/css">
	.st0{fill:#90B94D;}
	.st1{fill:#FFFFFF;}
</style>
<g>
	<g id="_x23_90b94dff">
		<path class="st0" d="M874.4,784.2c8.7,3.6,18.6,7.2,28,4.1c6.8-2.1,11.5-8.1,14.2-14.5c4.1-9.6,5.7-20,7.7-30.2
			c1.5-6.8,1.4-13.9,2.4-20.7c0.4-9,0.4-18,0-26.9c-0.7-4.8-1-9.7-1.4-14.5c-4.6-32.5-16.4-64-34.6-91.3c-5.8-8.3-12.3-16.1-18.7-24
			c-7.8-8.2-15.6-16.5-24.7-23.3c-11.6-10-24.7-18.1-38.1-25.4c-10.4-6-21.9-10-33.2-14c-23.5-7.8-48.3-11.5-73-10.8
			c-35.3,1.4-70.3,11-101.1,28.2c-15.6,8.4-30.3,18.5-43.3,30.5c-10.6,9.6-19.7,20.8-28.6,32c-9,13-17.2,26.6-23.2,41.2
			c-8.3,20.1-13.9,41.5-15.2,63.3c-2.5,39.2,2.2,79.9,20,115.3c7.9,16.7,18.2,32.1,30.1,46.1c5.4,6.8,11.6,12.9,18.1,18.7
			c11.8,9.5,23.1,19.7,36.3,27.3c9,5.3,17.8,11.1,27.4,15.3c7.2,3,14.1,6.5,21.5,9c16.6,5.5,33.8,9.3,51.1,11.4
			c6.2,1,12.5,0.6,18.7,1.2c6.1,0.6,12.1-0.4,18.2-0.4c6.2,0,12.4-1.1,18.5-2.1c9.4-1.6,18.7-3.7,27.7-6.7
			c11.3-4,22.6-8.2,32.7-14.7c12.1-7.8,23.3-17.1,32.9-27.8c5.8-5.5,10.2-12.2,14.9-18.6c4.7-6.5,8.6-13.6,12.3-20.7
			c1.1,8.1,3.4,15.9,5.3,23.9c3.2,12.4,6,24.9,9,37.4c-2.7,2.7-5.7,5.1-8.6,7.6c-4.1,4-8.3,7.8-13,11c-7.9,5.4-15.4,11.5-23.7,16.3
			c-15.4,8.7-31.4,16.3-48.3,21.9c-9.1,3.2-18.6,5.1-28,7.5c-12.2,2.5-24.5,4.3-36.9,5.2c-11.7,0.4-23.4,0.3-35.1,0.1
			c-19.3-1.3-38.3-4.8-56.9-10c-17.7-4.7-34.5-12.2-50.7-20.6c-13.3-7-25.3-16.1-37.4-25c-24.2-19.8-45-43.7-61.4-70.3
			c-23-38-37.2-81.5-39.7-126c-0.3-16.9-0.4-33.9,2.5-50.6c4.6-32.1,16-63.1,32.4-91.1c9-16.3,20.7-31.1,33.2-44.9
			c6.9-6.8,13.5-13.9,20.7-20.3c8.6-7.1,17.6-13.8,26.5-20.5c8.4-6.1,17.6-10.9,26.6-16.2c32.5-17,68.4-27.8,105-30
			c42-2.9,84.7,5.1,122.5,23.8c8.3,4.5,16.5,9.2,24.8,13.7c15,9.1,29.2,19.5,42.3,31.1c9.9,9.9,20.3,19.2,28.9,30.2
			c4.9,5.2,9.1,10.9,13.2,16.7c4.1,7,9.2,13.2,12.9,20.5c19.4,34.3,30.5,73.4,31.7,112.8c-0.1,12,0.6,24-0.9,35.9
			c-1.4,18.6-5.1,37-10.4,54.9c-2.6,9.9-5,20.9-0.5,30.6c4.1,8.6,12.9,13.4,21.3,16.8c-7.6,4-15.2,8-22.5,12.7
			c-2.2,1.4-4.4,2.6-6.7,3.7c4-3.1,8.5-5.7,12.5-9c-9.5,2.3-18.3,6.9-27.5,10.3c-12.7,4.8-24.9,10.5-37.8,14.7"/>
		<path class="st0" d="M706.8,541.8c38.8-1.2,77.8,11.7,108,36.1c14.1,11,26,24.5,35.8,39.4c8.9,14,16.2,29.1,20.3,45.2
			c3.8,12.1,5.6,24.8,6.3,37.5c0.2,12.3,0.1,24.8-2.3,36.9c-2.8,15.2-7.3,30.2-14.6,44c-6.4,13.7-15,26.3-25.1,37.6
			c-6.5,6.4-12.5,13.2-19.7,18.7c-5.8,4.6-11.8,8.9-18.1,12.6c-7.5,4.2-14.9,8.7-23.1,11.5c-16.5,6.6-33.9,11-51.6,12.1
			c-15,0.5-30.2,0.3-44.9-3.1c-8.4-1.9-16.7-4-24.8-7.1c-13.4-5.4-26.5-11.7-38.2-20.3c-25.8-18.5-46.5-44.5-57.6-74.4
			c-6.5-16-10.2-33-11.4-50.2c-1.4-13.9,0.4-27.9,2.7-41.6c2.3-12.3,6-24.4,11-36c15.5-35.5,43.8-65.4,79-81.8
			C659.6,548.3,683.1,542.7,706.8,541.8 M667.8,589.1c-8.8,3.6-17,8.7-24.9,14c-1.8,1-2.5,2.9-3.2,4.8c2.9,0.2,5.8,0.1,8.7-0.6
			c15.3-3,30.6-5.5,46.1-6.9c15.2-0.6,30.7-0.7,45.6,3.3c7.5,2.3,15.2,4.3,22.2,8.2c7.7,4.3,15.2,9,21.3,15.3
			c4.8,4.6,9.3,9.5,14,14.2c2.1,2.4,5.7,2.3,8.5,1.5c3.3-1.4,5.1-4.9,5.9-8.2c0.5-4.5-2.7-8.4-5.1-11.9
			c-8.7-12.4-20.5-22.5-33.9-29.6c-10.7-5.5-22-10-34-11.9C715.1,577.4,690.1,579.6,667.8,589.1z"/>
	</g>
	<g id="_x23_819a44ff">
		<path class="st1" d="M879.9,804.4c6,18.5,11.7,42.5,17.4,61.1c12.9-4.2,25.1-9.9,37.8-14.7c9.2-3.4,10-4.1,44.2-17.7
			c-33.7,20.2-11.5,6.9-39.5,23.6c-14.9,10.3-19.5,13.5-32.8,25.8c-7.3,6.1-13.5,13.4-20.8,19.6c-3.1-12.4-5.8-25-9-37.4
			c-1.9-7.9-4.3-15.8-5.3-23.9c0.8-1.6,1.6-3.1,2.3-4.7C878.8,827.9,879.6,813.7,879.9,804.4z"/>
	</g>
</g>
<g>
	<path d="M1118.9,1224.9H298.4c-58.4,0-106-47.5-106-106V298.4c0-58.4,47.5-106,106-106h820.5c58.4,0,106,47.5,106,106v820.5
		C1224.9,1177.4,1177.4,1224.9,1118.9,1224.9z M298.4,206.5c-50.7,0-91.9,41.2-91.9,91.9v820.5c0,50.7,41.2,91.9,91.9,91.9h820.5
		c50.7,0,91.9-41.2,91.9-91.9V298.4c0-50.7-41.2-91.9-91.9-91.9H298.4z"/>
</g>
<g>
	<path d="M1019.6,1041H397.8c-11.8,0-21.4-9.6-21.4-21.4V397.8c0-11.8,9.6-21.4,21.4-21.4h621.8c11.8,0,21.4,9.6,21.4,21.4v621.8
		C1041,1031.4,1031.4,1041,1019.6,1041z M397.8,383.3c-7.9,0-14.4,6.5-14.4,14.4v621.8c0,7.9,6.5,14.4,14.4,14.4h621.8
		c7.9,0,14.4-6.5,14.4-14.4V397.8c0-7.9-6.5-14.4-14.4-14.4H397.8V383.3z"/>
</g>
<g>
	<defs>
		<rect id="SVGID_1_" x="706.7" y="1050.4" width="330.4" height="91.6"/>
	</defs>
	<clipPath id="SVGID_2_">
		<use xlink:href="#SVGID_1_"  style="overflow:visible;"/>
	</clipPath>
	<g style="clip-path:url(#SVGID_2_);">
		
			<image style="overflow:visible;" width="5266" height="1454" xlink:href="12D7902BCBEE6BAE.png"  transform="matrix(6.277457e-02 0 0 6.277457e-02 706.6859 1050.403)">
		</image>
	</g>
</g>
</svg>
