<?xml version="1.0" encoding="utf-8"?>
<!-- Generator: Adobe Illustrator 24.2.1, SVG Export Plug-In . SVG Version: 6.00 Build 0)  -->
<svg version="1.1" id="Laag_1" xmlns="http://www.w3.org/2000/svg" xmlns:xlink="http://www.w3.org/1999/xlink" x="0px" y="0px"
	 viewBox="0 0 835.3 497.6" style="enable-background:new 0 0 835.3 497.6;" xml:space="preserve">
<style type="text/css">
	.st0{fill:#3D3884;stroke:#000000;stroke-miterlimit:10;}
	.st1{fill:#8FBB45;stroke:#000000;stroke-miterlimit:10;}
	.st2{fill:none;stroke:#000000;stroke-miterlimit:10;}
	.st3{fill:none;stroke:#1D1D1B;stroke-width:0.25;stroke-miterlimit:10;}
	.st4{fill:none;stroke:#000000;stroke-width:0.25;stroke-miterlimit:10;}
	.st5{fill:#FFFFFF;stroke:#000000;stroke-miterlimit:10;}
	.st6{fill:#FFFFFF;stroke:#1D1D1B;stroke-miterlimit:10;}
	.st7{fill:none;stroke:#1D1D1B;stroke-miterlimit:10;}
	.st8{fill:#0066FF;stroke:#000000;stroke-width:0.5;stroke-linejoin:bevel;stroke-miterlimit:22.9256;}
	.st9{fill:#FFFFFF;}
	.st10{font-family:'ArialMT';}
	.st11{font-size:18px;}
	.st12{fill:#FF0000;stroke:#1D1D1B;stroke-miterlimit:10;}
	.st13{fill:none;stroke:#131309;stroke-miterlimit:10;}
	.st14{fill:none;stroke:#131309;stroke-linecap:round;stroke-miterlimit:10;}
	.st15{fill:#00FF00;stroke:#131309;stroke-miterlimit:10;}
	.st16{fill:none;stroke:#131309;stroke-linejoin:bevel;stroke-miterlimit:10;}
	.st17{fill:#FF0000;stroke:#131309;stroke-linejoin:bevel;stroke-miterlimit:10;}
	.st18{fill:#0066FF;stroke:#000000;stroke-linejoin:bevel;stroke-miterlimit:22.9256;}
	.st19{font-size:13.9493px;}
	.st20{font-size:9.0346px;}
</style>
<path class="st0" d="M496.5,130.1C468.3,72.7,420.9,27,362.5,0.8L137.7,0.5l0,0C76.6,28,28,77.7,0.5,138.8v224.6
	C26.7,421.9,72.4,469,129.9,497.1h241c54.7-26.8,98.8-70.9,125.6-125.6V130.1z"/>
<path class="st1" d="M159.2,367.2l-0.1,43.4c0,1.9,1.5,3.7,3.4,3.7H334c1.9,0,3.6-1.7,3.6-3.6v-43.4c0-1.9-1.8-3.6-3.7-3.6h0.1
	H162.7h-0.1C160.7,363.8,159.2,365.3,159.2,367.2z"/>
<g>
	<path class="st1" d="M226.2,334.8c0-10.1-8.2-18.3-18.3-18.3s-18.3,8.2-18.3,18.3c0,10.1,8.2,18.3,18.3,18.3
		S226.2,344.9,226.2,334.8"/>
	<path class="st1" d="M223.5,334.8c0-8.6-7-15.6-15.6-15.6s-15.6,7-15.6,15.6s7,15.6,15.6,15.6C216.5,350.4,223.5,343.4,223.5,334.8
		"/>
	<path class="st1" d="M198.1,332c-1.6,0-2.8,1.3-2.8,2.8c0,1.6,1.3,2.8,2.8,2.8"/>
	<path class="st1" d="M217.9,337.6c1.6,0,2.8-1.3,2.8-2.8c0-1.6-1.3-2.8-2.8-2.8"/>
	<line class="st2" x1="198.1" y1="332" x2="217.9" y2="332"/>
	<line class="st2" x1="198.1" y1="337.6" x2="217.9" y2="337.6"/>
</g>
<path class="st2" d="M426.6,129.3l-57.7-57.7l-12.5,12.2l57.7,57.7L426.6,129.3l-10.4-10.7l-3.9-3.6l-4.8-4.8"/>
<path class="st3" d="M378.4,497.1"/>
<path class="st3" d="M370.4,1.1"/>
<path class="st4" d="M496.5,379"/>
<path class="st3" d="M0.5,370.9"/>
<path class="st2" d="M434.6,286.1"/>
<path class="st2" d="M434.6,292.1"/>
<path class="st2" d="M331.1,414.4"/>
<path class="st2" d="M336.4,412"/>
<line class="st2" x1="412" y1="252.5" x2="412" y2="246"/>
<path class="st2" d="M336.4,412"/>
<path class="st2" d="M337.6,410.8"/>
<line class="st2" x1="401.9" y1="284.3" x2="401.9" y2="271.5"/>
<line class="st2" x1="401.9" y1="226.9" x2="401.9" y2="214.1"/>
<line class="st2" x1="382.9" y1="253.1" x2="382.9" y2="245.1"/>
<line class="st2" x1="377.5" y1="277.2" x2="377.5" y2="221"/>
<line class="st2" x1="377.5" y1="273.3" x2="378.7" y2="271.5"/>
<line class="st2" x1="323" y1="121.9" x2="174" y2="121.9"/>
<line class="st2" x1="323" y1="122.8" x2="251.3" y2="122.8"/>
<line class="st2" x1="245.7" y1="122.8" x2="174" y2="122.8"/>
<line class="st2" x1="174" y1="131.7" x2="245.7" y2="131.7"/>
<line class="st2" x1="251.3" y1="131.7" x2="323" y2="131.7"/>
<line class="st2" x1="377.5" y1="225.1" x2="378.7" y2="226.9"/>
<line class="st2" x1="174.6" y1="158.5" x2="323" y2="158.5"/>
<path class="st2" d="M335.8,410.8"/>
<path class="st2" d="M335.8,367.4"/>
<line class="st2" x1="315.9" y1="131.7" x2="315.9" y2="122.8"/>
<path class="st2" d="M161.8,414.1"/>
<path class="st2" d="M163,412.9"/>
<path class="st2" d="M443,206.4"/>
<path class="st2" d="M63,206.4"/>
<path class="st2" d="M63,206.7"/>
<path class="st2" d="M62.7,208.5"/>
<path class="st2" d="M62.7,208.8"/>
<line class="st2" x1="94.8" y1="214.1" x2="116" y2="214.1"/>
<line class="st2" x1="381.1" y1="214.1" x2="401.9" y2="214.1"/>
<line class="st2" x1="401.9" y1="224.8" x2="377.5" y2="224.8"/>
<line class="st2" x1="119.5" y1="224.8" x2="94.8" y2="224.8"/>
<line class="st2" x1="258.2" y1="122.8" x2="258.2" y2="131.7"/>
<polyline class="st2" points="251.3,122.8 251.3,150.7 323,150.7 "/>
<polyline class="st2" points="245.7,122.8 245.7,150.7 174,150.7 "/>
<line class="st2" x1="407.6" y1="249.2" x2="411.7" y2="249.2"/>
<line class="st2" x1="89.5" y1="249.2" x2="85" y2="249.2"/>
<line class="st2" x1="238.5" y1="131.7" x2="238.5" y2="122.8"/>
<line class="st2" x1="94.8" y1="273.6" x2="119.5" y2="273.6"/>
<line class="st2" x1="377.5" y1="273.6" x2="401.9" y2="273.6"/>
<line class="st2" x1="401.9" y1="284.3" x2="381.1" y2="284.3"/>
<line class="st2" x1="434" y1="291.8" x2="434.6" y2="291.8"/>
<path class="st2" d="M434,292.1"/>
<polyline class="st2" points="412.3,383.7 415.9,379.9 379.3,416.8 382.9,412.9 "/>
<path class="st2" d="M414.1,356.9l-57.7,57.7l12.2,12.5l57.7-57.7L414.1,356.9l-10.7,10.4l-3.6,3.9L395,376"/>
<path class="st2" d="M334.1,412.9"/>
<path class="st2" d="M335,414.1"/>
<line class="st2" x1="181.1" y1="122.8" x2="181.1" y2="131.7"/>
<line class="st2" x1="119.5" y1="225.1" x2="118.3" y2="226.9"/>
<line class="st2" x1="119.5" y1="273.3" x2="118.3" y2="271.5"/>
<line class="st2" x1="119.5" y1="277.2" x2="119.5" y2="221"/>
<line class="st2" x1="114.2" y1="253.1" x2="114.2" y2="245.1"/>
<line class="st2" x1="94.8" y1="214.1" x2="94.8" y2="226.9"/>
<line class="st2" x1="85" y1="246" x2="85" y2="252.5"/>
<polyline class="st2" points="334.1,410.8 334.1,367.4 162.7,367.4 162.7,367.5 162.7,410.8 334.1,410.8 "/>
<path class="st2" d="M162.7,412.6"/>
<path class="st2" d="M334.1,412.6"/>
<path class="st2" d="M62.1,212.3"/>
<path class="st2" d="M165.9,414.4"/>
<path class="st2" d="M159.4,410.8"/>
<path class="st2" d="M82.9,356.9l57.7,57.7l-12.5,12.5c-57.7-57.7,0,0-57.7-57.7L82.9,356.9l43.4,43.4l7.4,7.4"/>
<path class="st2" d="M377.4,225.2c-0.1,0.1-0.2,0.2-0.3,0.3"/>
<path class="st2" d="M377.8,249.1c0,3.8,1.6,7.3,4.5,9.8"/>
<path class="st2" d="M409.2,256.8c1.6-2.2,2.5-4.9,2.5-7.7"/>
<path class="st2" d="M312.2,176c6,0,10.9-4.7,10.9-10.4"/>
<path class="st2" d="M401.8,284c19.3,0,35-15.6,35-35c0-19.3-15.7-35-35-35"/>
<path class="st2" d="M401.8,273.3c13.4,0,24.3-10.9,24.3-24.3s-10.9-24.2-24.3-24.2"/>
<path class="st2" d="M377.1,272.7c0.1,0.1,0.2,0.2,0.3,0.3"/>
<path class="st2" d="M411.7,249.1c0-3-1-5.8-2.9-8.1"/>
<path class="st2" d="M382.3,239.3c-2.9,2.5-4.5,6-4.5,9.8"/>
<path class="st2" d="M412.3,249.1c0-6-4.9-10.9-10.9-10.9s-10.9,4.9-10.9,10.9s4.9,10.9,10.9,10.9
	C407.5,259.9,412.3,255.1,412.3,249.1"/>
<path class="st2" d="M401.9,238.5c-3.9-0.2-7.6,1.8-9.6,5.2s-2,7.5,0.1,10.9c2,3.3,5.7,5.3,9.6,5.1"/>
<path class="st2" d="M315,390.1c0-7.3-5.9-13.2-13.2-13.2c-7.3,0-13.2,5.9-13.2,13.2c0,7.3,5.9,13.3,13.2,13.3S315,397.4,315,390.1"
	/>
<path class="st2" d="M279.3,390.1c0-7.3-5.9-13.2-13.2-13.2c-7.3,0-13.2,5.9-13.2,13.2c0,7.3,5.9,13.3,13.2,13.3
	C273.4,403.4,279.3,397.4,279.3,390.1"/>
<path class="st2" d="M333.9,365.6"/>
<path class="st2" d="M335.5,367.2"/>
<path class="st2" d="M335.6,410.7"/>
<path class="st2" d="M333.9,412.3"/>
<path class="st2" d="M119.3,225.5c-0.1-0.1-0.2-0.2-0.3-0.3"/>
<path class="st2" d="M85,249.1c0,2.9,1,5.7,2.8,8"/>
<path class="st2" d="M114.4,258.9c2.9-2.5,4.5-6,4.5-9.8"/>
<path class="st2" d="M312.3,176h-128c-5.7,0-10.4-4.7-10.4-10.4V115H323v50.6"/>
<g>
	<path class="st5" d="M445.5,272.4c2.5-21,1.7-42.4-2.5-63.1c-1.4-6.7,2.9-13.2,9.6-14.6c6.7-1.4,13.2,2.9,14.6,9.6
		c4.8,23.6,5.4,48,2.4,72c6.4,6.4,8.3,16.2,4.1,24.3c-4.2,8.1-13.1,12.6-22,11.2c-9-1.5-16-8.6-17.4-17.6
		C432.9,285.2,437.3,276.5,445.5,272.4z"/>
</g>
<path class="st6" d="M281.1,249.1c0-18.3-14.7-33.2-32.9-33.2s-32.9,14.9-32.9,33.2c0,18.3,14.7,33.2,32.9,33.2
	S281.1,267.4,281.1,249.1"/>
<path class="st7" d="M262.4,249.1c0-7.8-6.3-14.1-14.1-14.1s-14.1,6.3-14.1,14.1c0,7.8,6.3,14.1,14.1,14.1
	C256.1,263.2,262.4,256.9,262.4,249.1"/>
<path class="st7" d="M260.6,249.1c0-6.8-5.5-12.3-12.3-12.3s-12.3,5.5-12.3,12.3c0,6.8,5.5,12.3,12.3,12.3
	C255,261.4,260.6,255.9,260.6,249.1"/>
<path class="st8" d="M259.1,334.8c0-6-4.9-10.9-10.9-10.9s-10.9,4.9-10.9,10.9s4.9,10.9,10.9,10.9
	C254.2,345.6,259.1,340.8,259.1,334.8"/>
<path class="st7" d="M257.6,334.8"/>
<path class="st7" d="M248.2,344.2"/>
<path class="st7" d="M238.8,334.8"/>
<path class="st7" d="M248.2,325.4"/>
<path class="st7" d="M257.6,334.8"/>
<path class="st7" d="M256.7,334.8"/>
<path class="st7" d="M239.7,334.8"/>
<path class="st7" d="M248.2,326.3"/>
<path class="st7" d="M256.7,334.8"/>
<path class="st7" d="M255.2,334.8c0-3.9-3.1-7-7-7s-7,3.1-7,7s3.1,7,7,7S255.2,338.6,255.2,334.8"/>
<path class="st2" d="M207.9,390.1c0-7.3-5.9-13.2-13.2-13.2s-13.2,5.9-13.2,13.2s5.9,13.3,13.2,13.3S207.9,397.4,207.9,390.1"/>
<path class="st2" d="M243.6,390.1c0-7.3-5.9-13.2-13.2-13.2s-13.2,5.9-13.2,13.2c0,7.3,5.9,13.3,13.2,13.3
	C237.7,403.4,243.6,397.4,243.6,390.1"/>
<path class="st2" d="M162.5,412.3"/>
<path class="st2" d="M94.7,224.8c-13.4,0-24.3,10.9-24.3,24.3c0,13.4,10.9,24.2,24.3,24.2"/>
<path class="st2" d="M119,273c0.1-0.1,0.2-0.2,0.3-0.3"/>
<path class="st2" d="M118.9,249.1c0-3.8-1.6-7.3-4.5-9.8"/>
<path class="st2" d="M87.7,241.2c-1.7,2.3-2.7,5-2.7,7.9"/>
<path class="st2" d="M105.8,249.1c0-6-4.9-10.9-10.9-10.9S84,243.1,84,249.1S88.9,260,94.9,260C101,259.9,105.8,255.1,105.8,249.1"
	/>
<path class="st2" d="M94.5,259.6c3.9,0.2,7.6-1.8,9.6-5.2c2-3.4,2-7.5-0.1-10.9c-2-3.3-5.7-5.3-9.6-5.1"/>
<polyline class="st2" points="95.1,259.9 92.7,257.9 91,255.2 89.8,252.2 89.5,249.2 "/>
<polyline class="st2" points="89.5,249.2 89.8,246 91,243 92.7,240.6 95.1,238.5 "/>
<path class="st2" d="M444.5,217.4"/>
<polyline class="st2" points="401.6,238.2 404,240.3 405.8,243 407,246 407.6,249.2 "/>
<polyline class="st2" points="407.6,249.2 407,252.2 405.8,255.2 404,257.9 401.6,259.9 "/>
<polyline class="st2" points="382.9,245.1 382.6,240.3 382,235.6 380.8,231.1 379.9,228.7 378.7,226.9 "/>
<polyline class="st2" points="378.7,271.5 379.9,269.5 380.8,267.4 382,262.6 382.6,257.9 382.9,253.1 "/>
<polyline class="st2" points="114.2,245.1 114.5,240.3 115.1,235.6 116.2,231.1 116.8,228.7 118.3,226.9 "/>
<polyline class="st2" points="118.3,271.5 116.8,269.5 116.2,267.4 115.1,262.6 114.5,257.9 114.2,253.1 "/>
<polyline class="st2" points="401.9,271.5 406.1,270.9 410.2,269.5 413.8,267.4 416.8,264.7 419.2,261.1 420.9,257.3 422.1,253.4 
	422.4,249.2 422.1,245.1 420.9,240.9 419.2,237 416.8,233.8 413.8,231.1 410.2,228.7 406.1,227.5 401.9,226.9 "/>
<polyline class="st2" points="119.5,221 119.2,219.2 118.3,217.4 116,214.1 "/>
<polyline class="st2" points="378.7,226.9 390.3,226.3 396.2,226.3 401.9,226.9 "/>
<line class="st2" x1="114.2" y1="253.1" x2="105.5" y2="252.5"/>
<line class="st2" x1="105.5" y1="246" x2="114.2" y2="245.1"/>
<polyline class="st2" points="401.9,271.5 396.2,272.1 390.3,272.1 378.7,271.5 "/>
<polyline class="st2" points="94.8,226.9 100.8,226.3 106.4,226.3 118.3,226.9 "/>
<polyline class="st2" points="96.3,238.2 96.6,235.3 96.6,232.6 96,229.6 94.8,226.9 "/>
<polyline class="st2" points="381.1,284.3 378.7,281.1 377.8,279.3 377.5,277.2 "/>
<polyline class="st2" points="96.3,259.9 96.6,262.9 96.6,265.9 96,268.9 94.8,271.6 "/>
<polyline class="st2" points="377.5,273.6 378.7,276 379.6,278.7 381.1,284.3 "/>
<line class="st2" x1="382.9" y1="245.1" x2="391.2" y2="246"/>
<polyline class="st2" points="94.8,271.5 100.8,272.1 106.4,272.1 118.3,271.5 "/>
<polyline class="st2" points="400.7,259.9 400.4,262.9 400.4,265.9 400.7,268.9 401.9,271.6 "/>
<line class="st2" x1="391.2" y1="252.5" x2="382.9" y2="253.1"/>
<polyline class="st2" points="400.7,238.2 400.4,235.3 400.4,232.6 400.7,229.6 401.9,226.9 "/>
<polyline class="st2" points="94.8,226.9 90.7,227.5 86.8,228.7 83.2,231.1 80.2,233.8 77.9,237 75.8,240.9 74.9,245.1 74.6,249.2 
	74.9,253.4 75.8,257.3 77.6,261.1 80.2,264.7 83.2,267.4 86.8,269.5 90.7,271 94.8,271.5 "/>
<polyline class="st2" points="381.1,214.1 379.6,219.5 378.7,222.2 377.5,224.8 "/>
<path class="st2" d="M116,284.3l2.4-3.3l0.9-1.8l0.3-2.1v-3.6l-1.2,2.4l-0.9,2.7L116,284.3H94.9v-12.8L94.8,284
	c-19.3,0-35-15.6-35-35c0-19.3,15.7-35,35-35"/>
<polyline class="st2" points="377.5,221 377.8,219.2 378.7,217.4 381.1,214.1 "/>
<g>
	<path class="st5" d="M51.3,225.5c-2.5,21-1.7,42.4,2.5,63.1c1.4,6.7-2.9,13.2-9.6,14.6s-13.2-2.9-14.6-9.6c-4.8-23.6-5.4-48-2.4-72
		c-6.4-6.4-8.3-16.2-4.1-24.3s13.1-12.6,22-11.2c9,1.5,16,8.6,17.4,17.6C63.8,212.7,59.4,221.4,51.3,225.5z"/>
</g>
<g>
	<path class="st5" d="M224.5,445.9c21,2.5,42.4,1.7,63.1-2.5c6.7-1.4,13.2,2.9,14.6,9.6s-2.9,13.2-9.6,14.6c-23.6,4.8-48,5.4-72,2.4
		c-6.4,6.4-16.2,8.3-24.3,4.1c-8.1-4.2-12.6-13.1-11.2-22c1.5-9,8.6-16,17.6-17.4C211.7,433.4,220.4,437.8,224.5,445.9z"/>
</g>
<g>
	<path class="st6" d="M271.8,52.1c-21-2.5-42.4-1.7-63.1,2.5c-6.7,1.4-13.2-2.9-14.6-9.6c-1.4-6.7,2.9-13.2,9.6-14.6
		c23.6-4.8,48-5.4,72-2.4c6.4-6.4,16.2-8.3,24.3-4.1c8.1,4.2,12.6,13.1,11.2,22c-1.5,9-8.6,16-17.6,17.4
		C284.6,64.6,275.9,60.2,271.8,52.1z"/>
</g>
<polyline class="st4" points="126.4,98.2 129.9,94.4 93.3,131.2 96.9,127.4 "/>
<path class="st2" d="M128.2,71.4l-57.7,57.7l12.2,12.5l57.7-57.7L128.2,71.4l-10.7,10.4l-3.6,3.9l-4.8,4.8"/>
<polyline class="st2" points="119.5,224.8 118.3,222.2 117.4,219.5 116,214.1 "/>
<g>
	<path class="st1" d="M307.3,334.8c0-10.1-8.2-18.3-18.3-18.3c-10.1,0-18.3,8.2-18.3,18.3s8.2,18.3,18.3,18.3
		C299.1,353.1,307.3,344.9,307.3,334.8"/>
	<path class="st1" d="M304.6,334.8c0-8.6-7-15.6-15.6-15.6s-15.6,7-15.6,15.6s7,15.6,15.6,15.6C297.6,350.4,304.6,343.4,304.6,334.8
		"/>
	<path class="st1" d="M279.2,332c-1.6,0-2.8,1.3-2.8,2.8c0,1.6,1.3,2.8,2.8,2.8"/>
	<path class="st1" d="M298.9,337.6c1.6,0,2.8-1.3,2.8-2.8c0-1.6-1.3-2.8-2.8-2.8"/>
	<line class="st2" x1="279.2" y1="332" x2="298.9" y2="332"/>
	<line class="st2" x1="279.2" y1="337.6" x2="298.9" y2="337.6"/>
</g>
<g>
	<g id="_x23_ec0444ff">
		<path class="st9" d="M331.7,190.3h0.5c1.2,0.1,2.5,0.6,3.3,1.6c0.7,0.8,1.2,2,1.2,3.1c0,0.9-0.3,1.8-0.7,2.5
			c-0.7,0.1-1.3,0.2-2,0.2c-1.1,0.1-2.3,0.1-3.4,0c1.6-1.6,3.1-3.2,4.7-4.8c0-0.3-0.1-0.6-0.4-0.9c-0.3-0.3-0.6-0.4-1-0.5
			c-0.6-0.1-1.2-0.1-1.8-0.1c-1.1,0-2.3,0.1-3.4,0.2C329.5,190.9,330.6,190.3,331.7,190.3z"/>
		<path class="st9" d="M328.3,192.2c1.7-0.2,3.5-0.4,5.3-0.2c-1.6,1.6-3.1,3.2-4.7,4.8c0,0.3,0.1,0.6,0.4,0.9
			c0.3,0.3,0.8,0.4,1.2,0.5c1.7,0.2,3.5,0,5.2-0.2c-0.5,0.6-1.1,1-1.8,1.3c-1,0.4-2.1,0.5-3.1,0.2c-0.9-0.3-1.7-0.8-2.3-1.5
			c-0.6-0.8-1-1.7-1.1-2.7v-0.5C327.5,193.8,327.7,193,328.3,192.2z"/>
	</g>
	<g id="_x23_000000ff">
		<path class="st9" d="M345.3,190.7c0.4-0.1,0.8,0.1,0.9,0.5c0.2,0.3,0.1,0.7-0.2,1c-0.3,0.3-0.8,0.3-1.1,0.1s-0.4-0.7-0.3-1
			C344.7,190.9,345,190.7,345.3,190.7z"/>
		<path class="st9" d="M352.8,191c0.5,0,0.9,0,1.4,0c0,0.8,0,1.5,0,2.3c0.3-0.3,0.6-0.5,1-0.6c0.5-0.1,1.1,0,1.5,0.2
			c0.5,0.3,0.9,0.8,1.1,1.3c0.1,0.4,0.2,0.9,0.1,1.3c0,0.5-0.2,1-0.5,1.4s-0.7,0.7-1.1,0.8c-0.4,0.2-0.9,0.2-1.4,0
			c-0.3-0.1-0.6-0.3-0.8-0.6c0,0.2,0,0.4,0,0.7c-0.5,0-0.9,0-1.4,0C352.8,195.5,352.8,193.3,352.8,191 M355.3,193.8
			c-0.3,0-0.6,0.2-0.8,0.4c-0.3,0.3-0.3,0.8-0.3,1.2c0.1,0.4,0.2,0.7,0.5,0.9c0.4,0.3,1,0.3,1.4,0s0.5-0.8,0.5-1.2s-0.1-0.8-0.4-1
			C356,193.9,355.6,193.8,355.3,193.8z"/>
		<path class="st9" d="M348,192.9c0.4-0.2,0.9-0.3,1.3-0.2c0.5,0.1,1,0.4,1.4,0.9c0-0.3,0-0.5,0-0.8c0.5,0,1,0,1.4,0
			c0,1.4,0,2.8,0,4.2c0,0.6-0.1,1.2-0.3,1.8c-0.2,0.5-0.5,0.9-0.9,1.2s-1,0.5-1.6,0.5H349c-0.9,0-1.8-0.4-2.4-1.1
			c0.3-0.3,0.6-0.6,0.9-0.9c0.4,0.4,0.9,0.7,1.4,0.8s1.1-0.1,1.4-0.6c0.3-0.4,0.3-0.9,0.3-1.4c-0.2,0.2-0.5,0.5-0.8,0.6
			c-0.4,0.2-0.9,0.2-1.3,0.1c-0.5-0.1-1-0.4-1.3-0.8c-0.4-0.5-0.6-1.1-0.6-1.7c0-0.6,0.1-1.1,0.4-1.6
			C347.3,193.3,347.6,193,348,192.9 M349.1,193.8c-0.3,0.1-0.5,0.2-0.7,0.5s-0.3,0.8-0.3,1.2s0.2,0.7,0.5,1c0.3,0.2,0.8,0.3,1.1,0.1
			c0.3-0.1,0.5-0.3,0.6-0.5c0.2-0.4,0.3-0.9,0.1-1.3c-0.1-0.3-0.3-0.6-0.5-0.8S349.5,193.8,349.1,193.8z"/>
		<path class="st9" d="M359.5,193.2c0.4-0.3,0.9-0.5,1.4-0.5s1,0,1.5,0.2s1,0.7,1.2,1.2c0.1,0.3,0.2,0.7,0.2,1
			c-1.2,0.4-2.4,0.7-3.5,1.1c0.2,0.2,0.4,0.4,0.6,0.4c0.6,0.1,1.2-0.1,1.6-0.6c0.3,0.3,0.5,0.6,0.8,0.9c-0.5,0.5-1.2,0.8-1.9,0.9
			c-0.8,0.1-1.6-0.2-2.2-0.7c-0.4-0.4-0.7-0.9-0.8-1.4c-0.1-0.5,0-1,0.1-1.5C358.8,193.9,359.1,193.5,359.5,193.2 M360.1,194.4
			c-0.2,0.2-0.3,0.6-0.3,0.9c0.8-0.3,1.7-0.5,2.5-0.8c-0.2-0.4-0.6-0.6-1-0.6C360.8,193.8,360.3,194,360.1,194.4z"/>
		<path class="st9" d="M366.3,192.7c0.5-0.1,1,0,1.5,0.1c0.5,0.2,0.9,0.5,1.2,0.9s0.4,0.9,0.4,1.4c-1.2,0.4-2.4,0.7-3.5,1.1
			c0.2,0.2,0.4,0.4,0.7,0.4c0.6,0.1,1.2-0.1,1.6-0.6c0.3,0.3,0.6,0.6,0.8,0.9c-0.4,0.4-0.8,0.6-1.3,0.8c-0.6,0.2-1.3,0.2-1.9-0.1
			c-0.6-0.2-1-0.6-1.3-1.1s-0.4-1.1-0.3-1.7c0.1-0.5,0.3-1.1,0.7-1.4C365.3,193,365.8,192.7,366.3,192.7 M366,194.3
			c-0.3,0.3-0.4,0.6-0.4,1c0.8-0.3,1.7-0.5,2.5-0.8c-0.2-0.2-0.4-0.4-0.7-0.5C366.8,193.7,366.3,193.9,366,194.3z"/>
		<path class="st9" d="M339.8,192.7c1.4,0,2.7,0,4.1,0c0,0.4,0,0.7,0,1.1c-0.8,0.9-1.6,1.8-2.4,2.8c0.9,0,1.7,0,2.6,0
			c0,0.4,0,0.8,0,1.2c-1.5,0-2.9,0-4.4,0c0-0.4,0-0.8,0-1.2c0.8-0.9,1.6-1.8,2.4-2.7c-0.7,0-1.5,0-2.2,0
			C339.8,193.5,339.8,193.1,339.8,192.7z"/>
		<path class="st9" d="M344.6,197.8c0-1.7,0-3.4,0-5.1c0.5,0,1,0,1.4,0c0,1.7,0,3.4,0,5.1C345.6,197.8,345.1,197.8,344.6,197.8z"/>
	</g>
</g>
<g>
	<g id="_x23_3d3884ff">
		<path class="st9" d="M273.8,60.2c0,0,0.1,0,0.2,0c0.6,1.2,1.1,2.5,1.7,3.7c0.1,0.1,0.2,0.5-0.1,0.4c-0.6-1.2-1.1-2.5-1.7-3.7
			C273.8,60.5,273.6,60.3,273.8,60.2z"/>
		<path class="st9" d="M274.5,60.4c0.1-0.1,0.3,0.1,0.3,0.2c0.4,0.9,0.8,1.8,1.2,2.6c0.1,0.2,0.2,0.5-0.1,0.4
			c-0.3-0.6-0.6-1.2-0.8-1.8c-0.2-0.4-0.4-0.9-0.5-1.3L274.5,60.4z"/>
		<path class="st9" d="M273.1,60.8c-0.1-0.2,0.1-0.3,0.2-0.4c0.4,0.8,0.8,1.7,1.2,2.5c0.2,0.5,0.5,1,0.7,1.5c-0.1,0-0.2,0.1-0.2,0.2
			c-0.2-0.2-0.3-0.5-0.4-0.8C274,62.8,273.6,61.8,273.1,60.8z"/>
		<path class="st9" d="M272.4,61c-0.1-0.2,0.1-0.2,0.1-0.3c0.6,1.3,1.2,2.6,1.8,3.9c0.1,0.2,0,0.3-0.2,0.3
			C273.6,63.7,273,62.4,272.4,61z"/>
		<path class="st9" d="M275.5,61.1c0.3,0.1,0.6,0.3,0.7,0.6s0,0.6,0,0.9C275.9,62.1,275.7,61.6,275.5,61.1z"/>
		<path class="st9" d="M301.9,62c0.6-0.1,1.3-0.1,1.8,0.2c0.9,0.4,1.6,1.4,1.6,2.4c0.1,1.2-0.8,2.4-2,2.7c-0.5,0.1-1,0.1-1.5,0
			c-1.1-0.3-2-1.4-2-2.6C299.7,63.5,300.7,62.3,301.9,62 M302,62.5c-1.1,0.2-1.8,1.3-1.8,2.4c0,0.5,0.2,0.9,0.5,1.3
			c0.6,0.7,1.7,1.1,2.5,0.8c0.5-0.1,0.9-0.5,1.2-0.9c0.5-0.6,0.5-1.5,0.3-2.2C304.3,62.8,303.1,62.1,302,62.5z"/>
		<path class="st9" d="M244,62.7c1.7,0,3.3,0,5,0c2.1,0,4.2-0.1,6.3,0.3c1.8,0.3,3.5,1,4.9,2.1c1.9,1.5,3,3.9,3.4,6.2
			c0.4,2,0.4,4.1,0.1,6.1c-0.2,1.5-0.7,3-1.5,4.4c-0.8,1.3-1.9,2.4-3.2,3.2c-1.2,0.7-2.6,1.1-4,1.4c-2.2,0.4-4.4,0.3-6.6,0.3
			c-1.3,0-2.6,0-4,0c-0.2,0-0.5,0-0.6-0.3s-0.1-0.6-0.1-0.9c0.1-5.4,0-10.8,0-16.2c0-2,0-4,0-6C243.6,63.1,243.7,62.7,244,62.7
			 M248.4,66.8c-0.2,0.1-0.3,0.3-0.3,0.5c0,4.9,0,9.9,0,14.8c0,0.2,0.1,0.4,0.3,0.4c0.8,0,1.6,0,2.4,0c1.8,0,3.8-0.1,5.4-1
			c1.5-0.8,2.4-2.4,2.7-4c0.3-1.6,0.4-3.2,0.2-4.7c-0.1-0.8-0.3-1.6-0.6-2.4c-0.5-1.2-1.5-2.3-2.7-2.8c-1.8-0.8-3.8-0.8-5.8-0.7
			C249.5,66.8,249,66.8,248.4,66.8z"/>
		<path class="st9" d="M301.2,63.1c0.6,0,1.2,0,1.8,0.1c0.4,0.1,0.7,0.6,0.6,1c0,0.3-0.3,0.4-0.5,0.6c0.5,0.3,0.6,1,0.9,1.5
			c-0.3,0-0.6,0-0.8,0c-0.2-0.3-0.3-0.7-0.5-1c-0.1-0.2-0.4-0.2-0.6-0.2c0,0.4,0,0.8,0,1.2c-0.3,0-0.5,0-0.8,0
			C301.2,65.2,301.2,64.1,301.2,63.1 M302,63.7c0,0.3,0,0.5,0,0.8c0.2,0,0.4,0,0.7-0.1c0.2-0.1,0.2-0.5,0-0.7
			C302.5,63.6,302.3,63.7,302,63.7z"/>
		<path class="st9" d="M279,70.2c1.2-1,2.8-1.4,4.4-1.2c0.8,0.1,1.6,0.2,2.3,0.6c0.6,0.3,1.1,0.8,1.5,1.3c0.1,0.2,0.3,0.3,0.5,0.1
			c0.8-0.9,1.8-1.6,3-1.9c1-0.2,2-0.2,2.9,0c1.2,0.2,2.3,0.8,3,1.8c0.9,1.4,1.1,3.1,1.2,4.7c0,3.2,0,6.4,0,9.5c0,0.4,0,0.8,0,1.3
			c0,0.3-0.4,0.3-0.6,0.3c-1,0-1.9-0.1-2.9,0c-0.2,0-0.5,0-0.7-0.1s-0.2-0.4-0.2-0.6c0-3.5,0-7.1,0-10.6c0-0.8,0-1.8-0.7-2.4
			c-0.6-0.5-1.5-0.3-2.1,0c-0.9,0.4-1.6,1.1-2.2,1.9c0,3.7,0,7.5,0,11.2c0,0.2,0,0.4-0.2,0.6s-0.5,0.1-0.8,0.1c-1-0.1-1.9,0-2.9,0
			c-0.3,0-0.5-0.3-0.4-0.6c0-3.5,0-7.1,0-10.6c0-0.7-0.1-1.5-0.5-2.2c-0.3-0.5-1-0.7-1.6-0.6c-1.1,0.2-2,0.9-2.7,1.7
			c-0.1,0.1-0.3,0.3-0.3,0.5c0,3.7,0,7.4,0,11.1c0,0.3,0,0.7-0.4,0.7c-1,0-2.1,0-3.1,0c-0.2,0-0.4,0-0.6-0.1s-0.2-0.4-0.2-0.5
			c0-5.4,0-10.8,0-16.2c0-0.2,0-0.6,0.3-0.6c1,0,2,0,3,0c0.3,0,0.7-0.1,0.9,0.1C279.1,69.6,279,69.9,279,70.2z"/>
		<path class="st9" d="M267.1,69.3c0.5-0.1,1,0,1.5,0c0.7,0,1.5,0,2.2,0c0.3,0,0.4,0.3,0.3,0.5c0,3.6,0,7.2,0,10.8
			c0,1.8,0,3.5,0,5.3c0,0.2,0,0.4-0.1,0.6c-0.2,0.1-0.5,0.1-0.7,0.1c-1.1-0.1-2.1,0-3.2,0c-0.3,0-0.3-0.3-0.3-0.5
			c0-5.4,0-10.9,0-16.3C266.9,69.7,266.9,69.4,267.1,69.3z"/>
		<path class="st9" d="M249.3,88.4c4.4,0,8.8,0,13.2,0c5.8,0,11.5,0,17.3,0.2c2,0.1,4.1,0.1,6.1,0.2c4,0.1,8,0.3,12,0.4
			c1.2,0,2.3,0,3.5,0.1c-0.3,0.1-0.6,0.2-0.9,0.2c-5.3,0.2-10.6,0.4-15.9,0.5c-5.2,0-10.5,0-15.7,0c-7.2,0-14.5,0-21.7,0
			c-2.3,0-4.6,0-6.9,0c-1.6,0-3.2,0-4.7-0.1c0.1-0.3,0.2-0.6,0.2-1c0-0.1-0.1-0.3,0-0.4C240.2,88.4,244.8,88.4,249.3,88.4z"/>
		<path class="st9" d="M204.3,89c7.2-0.2,14.5-0.4,21.7-0.5c0.2,0,0.4,0,0.3,0.2c-0.1,0.3,0.1,0.7,0.1,1c-0.4,0.1-0.7,0-1.1,0
			c-2.4,0-4.9-0.1-7.3-0.2c-4-0.1-8.1-0.2-12.1-0.3c-1.1,0-2.3,0-3.4-0.1C203,88.9,203.7,89,204.3,89z"/>
	</g>
	<g id="_x23_8fbb45ff">
		<path class="st9" d="M264.8,64.5c0.1-2.2,2.2-3.9,4.3-3.9c1.5,0,2.9,0.9,3.6,2.2c0.5,0.9,0.6,2.1,0.4,3.1c0,0.2-0.1,0.4-0.1,0.6
			c0.1,0.1,0.2,0.2,0.3,0.3c-0.5,0.3-0.9,0.6-1.3,1c-1,1.1-2.7,1.5-4.1,1C266,68.3,264.7,66.4,264.8,64.5 M266.5,62.5
			c-1.2,1.2-1.2,3.3-0.2,4.5c0.9,1.1,2.4,1.6,3.7,1.3c0.7-0.2,1.2-0.7,1.6-1.3c0.2-0.3,0.2-0.6,0.1-1c0.2,0,0.4,0.1,0.5,0
			s0.2-0.3,0.2-0.5c0.2-1.1-0.2-2.3-0.9-3.1c-0.5-0.5-1.1-0.8-1.8-1C268.5,61.2,267.3,61.6,266.5,62.5z"/>
		<path class="st9" d="M268.4,62.2c0.6-0.1,1.4-0.1,1.9,0.3c0.9,0.5,1.5,1.6,1.4,2.7c-0.1,1-0.9,2-2,2.2c-0.8,0.2-1.7,0-2.3-0.5
			c-0.8-0.6-1.3-1.8-1-2.8C266.7,63.2,267.5,62.5,268.4,62.2 M267.9,63.2c0.5,0,1.1-0.2,1.6-0.1c0.4,0.1,0.7,0.4,1,0.7
			c0.1-0.1,0.2-0.2,0.1-0.3C270,62.6,268.7,62.5,267.9,63.2z"/>
		<path class="st9" d="M192.7,62.7c3.9,0,7.8,0,11.6,0c0.2,0,0.5,0,0.7,0.2c0.1,0.2,0,0.5,0,0.8c-0.1,0.4,0,0.8-0.1,1.2
			c-0.1,0.3-0.5,0.4-0.8,0.4c-2.3,0-4.5,0-6.8,0.1c-0.2,0-0.3,0-0.5,0.1c-0.2,0.2-0.2,0.4-0.2,0.7c0,2.1,0,4.2,0,6.3
			c0,0.2,0,0.6,0.3,0.7c0.2,0.1,0.5,0.1,0.8,0.1c2,0,4,0.1,6,0.1c0.2,0,0.5,0,0.6,0.2c0.1,0.3-0.1,0.6,0,1c0,0.3,0.1,0.9-0.3,1
			c-0.5,0.2-1,0.1-1.5,0.1c-1.7,0-3.4,0.1-5.1,0.1c-0.3-0.1-0.7,0.2-0.6,0.6c0,2.4,0,4.9,0,7.3c0,0.2,0,0.4,0.1,0.5
			c0.2,0.2,0.4,0.2,0.6,0.2c2.6,0,5.3,0.1,7.9,0.1c0.1,0,0.3,0.1,0.3,0.2c0,0.5,0,1.1-0.1,1.6c0,0.3-0.3,0.4-0.5,0.5
			c-0.3,0.1-0.6,0.1-1,0.1c-3.6,0-7.1,0-10.7,0c-0.3,0-0.7,0.1-1-0.1c-0.1-0.1-0.1-0.3-0.1-0.5c0-7.6,0-15.1,0-22.7
			C192.3,63,192.4,62.7,192.7,62.7z"/>
		<path class="st9" d="M223.5,75c1.6-3.2,5.3-5.2,8.9-4.9c1.7,0.1,3.4,0.7,4.7,1.7c1.4,1,2.5,2.4,3.2,4.1c0.7,1.8,0.7,3.7,0.3,5.6
			c-0.6,2.4-2,4.8-4.3,6c-0.4,0.2-0.9,0.3-1.4,0.5c-0.4,0.2-0.1,0.7-0.1,1c0.1,0.5-0.2,1.1-0.7,1.1c-1,0.1-2,0-3,0
			c0.1,0.1,0.2,0.3,0.3,0.4c0.6,0.5,1.3,1,1.9,1.6c0.3,0.2,0.4,0.6,0.3,1c-1.9,0-3.8,0-5.7,0c-0.1-0.3,0-0.8,0.3-1
			c0.4-0.3,0.9-0.1,1.3-0.2c-0.1-0.1-0.1-0.1-0.2-0.2c-0.7-0.6-1.4-1.1-2-1.7c-0.3-0.2-0.4-0.7-0.2-1c0.1-0.3,0.5-0.5,0.8-0.5
			c1.5,0,3,0,4.4,0c0.3,0,0.6,0,0.7-0.3c0-0.5-0.3-1.1,0-1.7c0.2-0.4,0.7-0.4,1.1-0.5c1.3-0.2,2.6-0.7,3.5-1.7
			c0.8-1,1.2-2.2,1.5-3.4c0.3-1.7,0.2-3.5-0.6-5c-0.7-1.4-1.8-2.5-3.2-3.2c-1.6-0.8-3.5-1-5.3-0.7c-1.6,0.4-3.1,1.3-4.2,2.6
			c-1.9,2.4-2,6.1-0.2,8.6c0.3,0.5,0.8,0.8,1,1.4s-0.5,1.2-1.1,0.9c-0.4-0.2-0.7-0.6-1-1C222.4,81.9,222,78,223.5,75z"/>
		<path class="st9" d="M212.8,70.9c1.9-0.8,4-0.8,6-0.5c0.7,0.1,1.4,0.2,2.1,0.4c0.2,0,0.2,0.3,0.2,0.5c-0.2,0.8-0.4,1.7-0.6,2.5
			c0,0.3-0.3,0.2-0.5,0.1c-0.9-0.4-1.8-0.8-2.7-1c-0.7-0.1-1.5-0.1-2.2,0c-0.5,0.1-1,0.3-1.3,0.7c-0.3,0.4-0.4,0.8-0.5,1.2
			c-0.3,1.1-0.3,2.3-0.3,3.5c0,1.6-0.1,3.4,0.8,4.8c0.5,0.8,1.5,1.2,2.4,1.2c1.7,0,3.3-0.4,4.9-1c0.2,0.3,0.4,0.6,0.4,0.9
			c0,0.2-0.1,0.3-0.2,0.5c-1.1,0.9-2.4,1.6-3.8,2c-1.9,0.5-3.9,0.4-5.7-0.4c-1.2-0.6-2.1-1.6-2.6-2.9c-1.1-2.9-1.1-6.2,0.2-9.1
			C209.9,72.8,211.2,71.5,212.8,70.9z"/>
	</g>
</g>
<text transform="matrix(1 0 0 1 193.6006 108.9874)" class="st9 st10 st11">ECO-DIM.07</text>
<text transform="matrix(1 0 0 1 145.3486 341.7759)" class="st9 st10 st11">MIN</text>
<text transform="matrix(1 0 0 1 312.1924 341.7837)" class="st9 st10 st11">MAX</text>
<text transform="matrix(1 0 0 1 218.4876 314.4132)" class="st9 st10 st11">RESET</text>
<path class="st12" d="M197.3,213.9c0-6.8-5.5-12.3-12.3-12.3s-12.3,5.5-12.3,12.3s5.5,12.3,12.3,12.3S197.3,220.7,197.3,213.9"/>
<g>
	<path class="st2" d="M170.5,373.7l-0.1,30.7c0,1.3,1.3,2.6,3,2.6h149.5c1.7,0,3.1-1.2,3.1-2.5v-30.7c0-1.3-1.6-2.5-3.2-2.5h0.1
		H173.5l0,0C171.8,371.2,170.5,372.3,170.5,373.7z"/>
	<path class="st2" d="M172.5,375.4l-0.1,26.8c0,1.2,1.3,2.3,2.9,2.3h145.2c1.6,0,3-1,3-2.2v-26.8c0-1.2-1.6-2.2-3.1-2.2h0.1h-145
		l0,0C173.8,373.3,172.5,374.3,172.5,375.4z"/>
</g>
<text transform="matrix(1 0 0 1 140.6482 200.7317)" class="st9 st10 st11">LED</text>
<polygon class="st0" points="765.7,342.2 589.5,342.2 589.5,342.2 589.5,397 576,397 576,397 574.7,396.8 573.4,396.5 572,395.7 
	571.2,394.9 571.2,394.9 571.2,394.4 571.2,394.4 566.5,389.1 556.4,379.3 556.4,379.3 555.1,378.8 555.1,378.8 554.8,378.5 
	554.6,378 554.6,377.7 554.6,377.2 554.6,376.9 554.6,376.4 554.8,376.1 555.1,375.9 560.1,370.8 560.1,370.8 560.4,371.1 
	560.4,371.1 560.7,370.8 560.7,370.8 533.9,344.1 533.9,344.1 533.9,343 533.9,343 531,346 531,346 528.6,348.3 527.2,348.9 
	525.7,348.3 525.7,348.3 523.3,346 521.7,343.8 521.2,341.2 521.2,341.2 521.2,173.7 521.2,173.7 521.2,166.5 521.2,166.5 
	521.8,164.4 523.1,162.8 523.6,162 523.6,162 599.6,86.1 600.4,85.6 600.4,85.6 601.9,84.2 604.1,83.7 604.1,83.7 611.2,83.7 
	655.7,83.7 657.1,84.2 657.8,85.8 657.8,89.5 657.8,89.5 657.8,93.5 697.2,93.5 697.2,93.5 657.8,93.5 697.2,93.5 697.2,89.5 
	697.2,85.8 697.8,84.3 699.3,83.7 750.9,83.7 750.9,83.7 753.6,84.2 755.7,85.8 831.6,161.8 831.6,161.8 833.2,163.9 833.8,166.5 
	833.8,341.2 833.8,341.2 833.2,343.8 831.6,346 829.3,348.3 829.3,348.3 827.8,348.9 826.4,348.3 824,346 824,346 821.1,343 
	821.1,343 821.1,344.1 821.1,344.1 794.3,370.8 794.3,370.8 794.6,371.1 795.1,370.8 795.1,370.8 799.9,375.9 799.9,375.9 
	800.1,376.1 800.4,376.4 800.4,376.9 800.4,377.2 800.4,377.7 800.4,378 800.1,378.5 799.9,378.8 799.9,378.8 798.6,379.3 
	788.5,389.1 788.5,389.1 783.7,394.4 783.7,394.4 781.9,395.4 779.8,395.4 778.7,396 778.7,396 770.2,396 770.2,396 767.9,395.2 
	767.1,394.1 766.8,392.8 766.8,392.8 766.8,392.8 765.7,393.3 "/>
<rect x="590.6" y="343" class="st1" width="173.9" height="42.9"/>
<line class="st13" x1="765.7" y1="396.8" x2="589.5" y2="396.8"/>
<line class="st13" x1="590.6" y1="396.5" x2="764.4" y2="396.5"/>
<line class="st14" x1="765.7" y1="394.1" x2="765.7" y2="394.1"/>
<line class="st13" x1="590.6" y1="385.9" x2="764.4" y2="385.9"/>
<path class="st15" d="M764.4,379.3H590.6H764.4z"/>
<line class="st13" x1="590.6" y1="343" x2="764.4" y2="343"/>
<line class="st13" x1="590.6" y1="396.5" x2="590.6" y2="343"/>
<line class="st13" x1="694" y1="124.7" x2="694.6" y2="123.4"/>
<line class="st13" x1="686.1" y1="148" x2="685.6" y2="149.3"/>
<line class="st13" x1="686.1" y1="148" x2="686.1" y2="124.7"/>
<line class="st13" x1="687.2" y1="122.6" x2="687.2" y2="122.1"/>
<line class="st13" x1="687.4" y1="148" x2="687.4" y2="124.7"/>
<line class="st13" x1="687.4" y1="122.6" x2="687.4" y2="122.1"/>
<line class="st13" x1="692.7" y1="122.1" x2="692.7" y2="122.6"/>
<line class="st13" x1="692.7" y1="124.7" x2="692.7" y2="148"/>
<line class="st13" x1="693" y1="122.1" x2="693" y2="122.6"/>
<line class="st13" x1="694" y1="124.7" x2="694" y2="148"/>
<line class="st13" x1="744.8" y1="124.7" x2="745.4" y2="123.4"/>
<line class="st13" x1="736.9" y1="148" x2="736.4" y2="149.3"/>
<line class="st13" x1="686.1" y1="124.7" x2="685.6" y2="123.4"/>
<line class="st13" x1="694" y1="148" x2="694.6" y2="149.3"/>
<line class="st13" x1="736.9" y1="148" x2="736.9" y2="124.7"/>
<line class="st13" x1="738" y1="122.6" x2="738" y2="122.1"/>
<line class="st13" x1="738.2" y1="148" x2="738.2" y2="124.7"/>
<line class="st13" x1="738.2" y1="122.6" x2="738.2" y2="122.1"/>
<line class="st13" x1="780.3" y1="183.7" x2="779" y2="183.7"/>
<line class="st13" x1="772.4" y1="183.7" x2="773.7" y2="183.7"/>
<line class="st13" x1="743.5" y1="122.1" x2="743.5" y2="122.6"/>
<line class="st13" x1="743.5" y1="124.7" x2="743.5" y2="148"/>
<line class="st13" x1="743.5" y1="122.1" x2="743.5" y2="122.6"/>
<line class="st13" x1="744.8" y1="124.7" x2="744.8" y2="148"/>
<line class="st13" x1="772.4" y1="183.7" x2="771.8" y2="185.1"/>
<line class="st13" x1="780.3" y1="160.4" x2="780.8" y2="159.1"/>
<line class="st13" x1="764.4" y1="396.5" x2="764.4" y2="342.2"/>
<line class="st13" x1="780.3" y1="160.4" x2="779" y2="160.4"/>
<line class="st13" x1="772.4" y1="160.4" x2="773.7" y2="160.4"/>
<line class="st13" x1="772.4" y1="183.7" x2="772.4" y2="160.4"/>
<line class="st13" x1="773.7" y1="158.3" x2="773.7" y2="157.8"/>
<line class="st13" x1="773.7" y1="184" x2="773.7" y2="160.4"/>
<line class="st13" x1="773.7" y1="158.3" x2="773.7" y2="157.8"/>
<line class="st13" x1="779" y1="157.8" x2="779" y2="158.3"/>
<line class="st13" x1="779" y1="160.4" x2="779" y2="184"/>
<line class="st13" x1="779.2" y1="157.8" x2="779.2" y2="158.3"/>
<line class="st13" x1="780.3" y1="160.4" x2="780.3" y2="183.7"/>
<line class="st13" x1="694" y1="148" x2="692.7" y2="148"/>
<line class="st13" x1="686.1" y1="148" x2="687.4" y2="148"/>
<line class="st13" x1="744.8" y1="148" x2="743.5" y2="148"/>
<line class="st13" x1="736.9" y1="148" x2="738.2" y2="148"/>
<line class="st13" x1="744.8" y1="148" x2="745.4" y2="149.3"/>
<line class="st13" x1="736.9" y1="124.7" x2="736.4" y2="123.4"/>
<line class="st13" x1="694" y1="124.7" x2="692.7" y2="124.7"/>
<line class="st13" x1="686.1" y1="124.7" x2="687.4" y2="124.7"/>
<line class="st13" x1="744.8" y1="124.7" x2="743.5" y2="124.7"/>
<line class="st13" x1="736.9" y1="124.7" x2="738.2" y2="124.7"/>
<line class="st13" x1="780.3" y1="183.7" x2="780.8" y2="185.1"/>
<line class="st13" x1="772.4" y1="160.4" x2="771.8" y2="159.1"/>
<polyline class="st16" points="642.7,348.3 639.8,348.6 636.9,349.7 634.5,351.2 632.4,353.4 631,356 630.3,358.9 630,361.8 
	630.5,364.7 631.6,367.4 633.4,369.8 635.8,371.6 638.5,372.9 641.1,373.7 644.3,373.7 646.9,372.9 649.6,371.6 652,369.8 
	653.8,367.4 654.9,364.7 655.4,361.8 655.1,358.9 654.3,356 653,353.4 650.9,351.2 648.5,349.7 645.6,348.6 642.7,348.3 "/>
<polyline class="st16" points="608,348.3 605.1,348.6 602.2,349.7 599.8,351.2 597.7,353.4 596.4,356 595.6,358.9 595.3,361.8 
	595.9,364.7 596.9,367.4 598.8,369.8 601.1,371.6 603.8,372.9 606.4,373.7 609.6,373.7 612.3,372.9 614.9,371.6 617.3,369.8 
	619.1,367.4 620.2,364.7 620.7,361.8 620.5,358.9 619.7,356 618.3,353.4 616.2,351.2 613.9,349.7 610.9,348.6 608,348.3 "/>
<polygon class="st17" points="606.4,184.8 604.1,185.1 601.9,186.1 600.1,187.7 598.8,189.8 598,191.9 598,194.6 598.8,196.7 
	600.1,198.8 601.9,200.4 604.1,201.5 606.4,201.7 608.8,201.5 610.9,200.4 612.8,198.8 614.1,196.7 614.9,194.6 614.9,191.9 
	614.1,189.8 612.8,187.7 610.9,186.1 608.8,185.1 "/>
<polyline class="st18" points="645.6,209.9 642.4,207.8 640,205.4 637.9,202.3 636.6,199.1 635.8,195.4 635.8,191.9 636.3,188.2 
	637.7,184.8 639.5,181.9 641.9,179 644.8,176.9 648,175.3 651.4,174.2 655.1,173.9 658.8,174.2 662.3,175.3 665.5,176.9 668.4,179 
	670.7,181.9 672.6,184.8 673.9,188.2 674.5,191.9 674.5,195.4 673.7,199.1 672.3,202.3 670.2,205.4 667.8,207.8 664.9,209.9 
	664.9,237.2 665.2,239 666.6,240.4 668.3,241.2 670,241.2 671.7,240.4 673.1,239 673.4,237.2 673.4,214.2 673.1,214.4 676.3,211.3 
	679,207.8 680.8,203.8 682.1,199.6 682.9,195.4 682.9,191.1 682.1,186.6 680.8,182.7 679,178.7 676.3,175.3 673.1,172.1 
	669.7,169.4 665.7,167.6 661.8,166.3 657.3,165.5 653,165.5 648.5,166.3 644.5,167.6 640.6,169.4 637.1,172.1 634,175.3 
	631.3,178.7 629.5,182.7 628.1,186.6 627.3,191.1 627.3,195.4 628.1,199.6 629.5,203.8 631.3,207.8 634,211.3 637.1,214.4 
	637.1,237.2 637.4,239 638.8,240.4 640.5,241.2 642.2,241.2 643.9,240.4 645.3,239 645.6,237.2 645.6,237.2 645.6,209.9 "/>
<polyline class="st16" points="747.2,348.3 744.3,348.6 741.4,349.7 739,351.2 736.9,353.4 735.6,356 734.8,358.9 734.5,361.8 
	735,364.7 736.1,367.4 738,369.8 740.3,371.6 743,372.9 745.6,373.7 748.8,373.7 751.5,372.9 754.1,371.6 756.5,369.8 758.3,367.4 
	759.4,364.7 759.9,361.8 759.7,358.9 758.9,356 757.5,353.4 755.4,351.2 753,349.7 750.1,348.6 747.2,348.3 "/>
<polyline class="st16" points="677.6,348.3 674.7,348.6 671.8,349.7 669.4,351.2 667.3,353.4 666,356 665.2,358.9 664.9,361.8 
	665.5,364.7 666.5,367.4 668.4,369.8 670.7,371.6 673.4,372.9 676,373.7 679.2,373.7 681.9,372.9 684.5,371.6 686.9,369.8 
	688.7,367.4 689.8,364.7 690.3,361.8 690.1,358.9 689.3,356 687.9,353.4 685.8,351.2 683.4,349.7 680.5,348.6 677.6,348.3 "/>
<polyline class="st16" points="712.3,348.3 709.4,348.6 706.5,349.7 704.1,351.2 702,353.4 700.6,356 699.9,358.9 699.6,361.8 
	700.1,364.7 701.2,367.4 703,369.8 705.4,371.6 708.1,372.9 710.7,373.7 713.9,373.7 716.5,372.9 719.2,371.6 721.6,369.8 
	723.4,367.4 724.5,364.7 725,361.8 724.7,358.9 723.9,356 722.6,353.4 720.5,351.2 718.1,349.7 715.2,348.6 712.3,348.3 "/>
<polyline class="st16" points="692.7,148 693.2,149.1 694.6,149.3 "/>
<polyline class="st16" points="685.6,149.3 686.9,149.1 687.4,148 "/>
<polyline class="st16" points="692.7,148 693.2,149.1 694.6,149.3 "/>
<polyline class="st16" points="685.6,149.3 686.9,149.1 687.4,148 "/>
<line class="st16" x1="692.7" y1="148" x2="692.7" y2="148"/>
<polyline class="st16" points="690.1,120.5 686.9,120.7 683.7,121.8 680.8,123.4 678.2,125.8 676.3,128.4 675,131.3 674.2,134.8 
	674.2,138 675,141.4 676.3,144.3 678.2,147 680.8,149.3 683.7,150.9 686.9,152 690.1,152.2 693.2,152 696.4,150.9 699.3,149.3 
	702,147 703.8,144.3 705.1,141.4 705.9,138 705.9,134.8 705.1,131.3 703.8,128.4 702,125.8 699.3,123.4 696.4,121.8 693.2,120.7 
	690.1,120.5 "/>
<polyline class="st16" points="690.1,121.8 686.9,122.1 684,123.1 681.3,124.7 678.9,126.8 677.1,129.5 676,132.4 675.5,135.6 
	675.8,138.7 676.6,141.7 677.9,144.6 680,146.9 682.7,148.8 685.3,150.1 688.5,150.9 691.7,150.9 694.8,150.1 697.5,148.8 
	700.1,146.9 702.2,144.6 703.6,141.7 704.4,138.7 704.6,135.6 704.1,132.4 703,129.5 701.2,126.8 698.8,124.7 696.2,123.1 
	693.2,122.1 690.1,121.8 "/>
<polyline class="st16" points="687.4,122.6 684.5,123.7 681.9,125 679.5,127.1 677.6,129.7 676.6,132.4 676,135.6 676.3,138.5 
	677.1,141.4 678.4,144 680.3,146.4 682.9,148.3 685.6,149.6 688.5,150.4 691.7,150.4 694.6,149.6 697.2,148.3 699.9,146.4 
	701.7,144 703,141.4 703.8,138.5 704.1,135.6 703.6,132.4 702.5,129.7 700.6,127.1 698.3,125 695.6,123.7 692.7,122.6 "/>
<line class="st16" x1="692.4" y1="122.9" x2="687.7" y2="122.9"/>
<polyline class="st16" points="694.6,123.4 691.7,122.6 688.5,122.6 685.6,123.4 "/>
<polyline class="st16" points="685.6,149.3 688.5,150.1 691.6,150.1 694.6,149.3 "/>
<polyline class="st16" points="685.6,123.7 682.9,125 680.5,126.8 678.7,129.2 677.4,131.9 676.6,134.8 676.6,138 677.4,140.9 
	678.7,143.5 680.5,145.9 682.9,147.7 685.6,149.1 "/>
<polyline class="st16" points="694.6,149.1 697.2,147.7 699.6,145.9 701.4,143.5 702.8,140.9 703.6,138 703.6,134.8 702.8,131.9 
	701.4,129.2 699.6,126.8 697.2,125 694.6,123.7 "/>
<polyline class="st16" points="686.1,124.7 683.4,126 681.1,128.2 679.5,130.5 678.2,133.4 677.9,136.4 678.2,139.3 679.5,142.2 
	681.1,144.6 683.4,146.7 686.1,148 "/>
<polyline class="st16" points="694,148 696.7,146.7 699.1,144.6 700.6,142.2 702,139.3 702.2,136.4 702,133.4 700.6,130.5 
	699.1,128.2 696.7,126 694,124.7 "/>
<polyline class="st16" points="743.5,148 744.1,149.1 745.4,149.3 "/>
<polyline class="st16" points="736.4,149.3 737.7,149.1 738.2,148 "/>
<polyline class="st16" points="743.5,148 744.1,149.1 745.4,149.3 "/>
<polyline class="st16" points="736.4,149.3 737.7,149.1 738.2,148 "/>
<line class="st16" x1="743.5" y1="148" x2="743.5" y2="148"/>
<polyline class="st16" points="740.9,120.5 737.7,120.7 734.5,121.8 731.6,123.4 729,125.8 727.1,128.4 725.8,131.3 725,134.8 
	725,138 725.8,141.4 727.1,144.3 729,147 731.6,149.3 734.5,150.9 737.7,152 740.9,152.2 744.1,152 747.2,150.9 750.1,149.3 
	752.8,147 754.6,144.3 756,141.4 756.7,138 756.7,134.8 756,131.3 754.6,128.4 752.8,125.8 750.1,123.4 747.2,121.8 744.1,120.7 
	740.9,120.5 "/>
<polyline class="st16" points="740.9,121.8 737.7,122.1 734.8,123.1 732.1,124.7 729.8,126.8 727.9,129.5 726.8,132.4 726.3,135.6 
	726.6,138.7 727.4,141.7 728.7,144.6 730.8,146.9 733.5,148.8 736.1,150.1 739.3,150.9 742.5,150.9 745.6,150.1 748.3,148.8 
	750.9,146.9 753,144.6 754.4,141.7 755.2,138.7 755.4,135.6 754.9,132.4 753.8,129.5 752,126.8 749.6,124.7 747,123.1 744.1,122.1 
	740.9,121.8 "/>
<polyline class="st16" points="738.2,122.6 735.3,123.7 732.7,125 730.3,127.1 728.4,129.7 727.4,132.4 726.8,135.6 727.1,138.5 
	727.9,141.4 729.2,144 731.1,146.4 733.7,148.3 736.4,149.6 739.3,150.4 742.5,150.4 745.4,149.6 748,148.3 750.7,146.4 752.5,144 
	753.8,141.4 754.6,138.5 754.9,135.6 754.4,132.4 753.3,129.7 751.5,127.1 749.1,125 746.4,123.7 743.5,122.6 "/>
<line class="st16" x1="743.3" y1="122.9" x2="738.5" y2="122.9"/>
<polyline class="st16" points="745.4,123.4 742.5,122.6 739.3,122.6 736.4,123.4 "/>
<polyline class="st16" points="736.4,149.3 739.3,150.1 742.5,150.1 745.4,149.3 "/>
<polyline class="st16" points="736.4,123.7 733.7,125 731.3,126.8 729.5,129.2 728.2,131.9 727.4,134.8 727.4,138 728.2,140.9 
	729.5,143.5 731.3,145.9 733.7,147.7 736.4,149.1 "/>
<polyline class="st16" points="745.4,149.1 748,147.7 750.4,145.9 752.3,143.5 753.6,140.9 754.4,138 754.4,134.8 753.6,131.9 
	752.3,129.2 750.4,126.8 748,125 745.4,123.7 "/>
<polyline class="st16" points="736.9,124.7 734.3,126 731.9,128.2 730.3,130.5 729,133.4 728.7,136.4 729,139.3 730.3,142.2 
	731.9,144.6 734.3,146.7 736.9,148 "/>
<polyline class="st16" points="744.8,148 747.5,146.7 749.9,144.6 751.5,142.2 752.8,139.3 753,136.4 752.8,133.4 751.5,130.5 
	749.9,128.2 747.5,126 744.8,124.7 "/>
<polyline class="st16" points="687.4,124.7 686.9,123.7 685.6,123.4 "/>
<polyline class="st16" points="738.2,124.7 737.7,123.7 736.4,123.4 "/>
<polyline class="st16" points="694.6,123.4 693.2,123.7 692.7,124.7 "/>
<polyline class="st16" points="745.4,123.4 744.1,123.7 743.5,124.7 "/>
<polyline class="st16" points="694.6,123.4 693.2,123.7 692.7,124.7 "/>
<polyline class="st16" points="745.4,123.4 744.1,123.7 743.5,124.7 "/>
<polyline class="st16" points="687.4,124.7 686.9,123.7 685.6,123.4 "/>
<polyline class="st16" points="738.2,124.7 737.7,123.7 736.4,123.4 "/>
<line class="st16" x1="692.7" y1="124.7" x2="692.7" y2="124.7"/>
<line class="st16" x1="743.5" y1="124.7" x2="743.5" y2="124.7"/>
<polyline class="st16" points="776.3,156.2 773.2,156.5 770,157.5 767.1,159.1 764.4,161.5 762.6,164.1 761.3,167.1 760.5,170.5 
	760.5,173.7 761.3,177.1 762.6,180 764.4,182.7 767.1,185.1 770,186.6 773.2,187.7 776.3,188 779.5,187.7 782.7,186.6 785.6,185.1 
	788.2,182.7 790.1,180 791.4,177.1 792.2,173.7 792.2,170.5 791.4,167.1 790.1,164.1 788.2,161.5 785.6,159.1 782.7,157.5 
	779.5,156.5 776.3,156.2 "/>
<polyline class="st16" points="776.3,157.5 773.2,157.8 770.3,158.9 767.6,160.4 765.2,162.6 763.4,165.2 762.3,168.1 761.8,171.3 
	762,174.5 762.8,177.4 764.2,180.3 766.3,182.7 768.9,184.5 771.6,185.8 774.7,186.6 777.9,186.6 781.1,185.8 783.7,184.5 
	786.4,182.7 788.5,180.3 789.8,177.4 790.6,174.5 790.9,171.3 790.4,168.1 789.3,165.2 787.4,162.6 785.1,160.4 782.4,158.9 
	779.5,157.8 776.3,157.5 "/>
<polyline class="st16" points="773.7,158.3 770.8,159.4 768.1,160.7 765.8,162.8 763.9,165.5 762.8,168.1 762.3,171.3 762.6,174.2 
	763.4,177.1 764.7,179.8 766.5,182.1 769.2,184 771.8,185.3 774.7,186.1 777.9,186.1 780.8,185.3 783.5,184 786.1,182.1 788,179.8 
	789.3,177.1 790.1,174.2 790.4,171.3 789.8,168.1 788.8,165.5 786.9,162.8 784.5,160.7 781.9,159.4 779,158.3 "/>
<line class="st16" x1="778.7" y1="158.6" x2="774" y2="158.6"/>
<polyline class="st16" points="780.8,159.1 777.9,158.3 774.7,158.3 771.8,159.1 "/>
<polyline class="st16" points="771.8,185.1 774.7,185.8 777.9,185.8 780.8,185.1 "/>
<polyline class="st16" points="771.8,159.4 769.2,160.7 766.8,162.6 765,164.9 763.6,167.6 762.8,170.5 762.8,173.7 763.6,176.6 
	765,179.2 766.8,181.6 769.2,183.5 771.8,184.8 "/>
<polyline class="st16" points="780.8,184.8 783.5,183.5 785.9,181.6 787.7,179.2 789,176.6 789.8,173.7 789.8,170.5 789,167.6 
	787.7,164.9 785.9,162.6 783.5,160.7 780.8,159.4 "/>
<polyline class="st16" points="772.4,160.4 769.7,161.8 767.3,163.9 765.8,166.3 764.4,169.2 764.2,172.1 764.4,175 765.8,177.9 
	767.3,180.3 769.7,182.4 772.4,183.7 "/>
<polyline class="st16" points="780.3,183.7 782.9,182.4 785.3,180.3 786.9,177.9 788.2,175 788.5,172.1 788.2,169.2 786.9,166.3 
	785.3,163.9 782.9,161.8 780.3,160.4 "/>
<polyline class="st16" points="773.7,160.4 773.2,159.4 771.8,159.1 "/>
<polyline class="st16" points="779,183.7 779.5,184.8 780.8,185.1 "/>
<polyline class="st16" points="771.8,185.1 773.2,184.8 773.7,183.7 "/>
<polyline class="st16" points="780.8,159.1 779.5,159.4 779,160.4 "/>
<polyline class="st16" points="779,184 779.5,185.1 780.8,185.3 "/>
<polyline class="st16" points="771.8,185.3 773.2,185.1 773.7,184 "/>
<polyline class="st16" points="780.8,159.1 779.5,159.4 779,160.4 "/>
<polyline class="st16" points="773.7,160.4 773.2,159.4 771.8,159.1 "/>
<line class="st16" x1="779" y1="160.4" x2="779" y2="160.4"/>
<line class="st16" x1="773.7" y1="183.7" x2="773.7" y2="183.7"/>
<line class="st16" x1="779" y1="183.7" x2="779" y2="183.7"/>
<line class="st14" x1="694.6" y1="123.4" x2="694.6" y2="123.4"/>
<line class="st14" x1="685.6" y1="123.4" x2="685.6" y2="123.4"/>
<line class="st14" x1="694.6" y1="149.3" x2="694.6" y2="149.3"/>
<line class="st14" x1="685.6" y1="149.3" x2="685.6" y2="149.3"/>
<line class="st13" x1="771.8" y1="185.1" x2="771.8" y2="185.3"/>
<line class="st13" x1="780.8" y1="185.1" x2="780.8" y2="185.3"/>
<line class="st14" x1="771.8" y1="159.1" x2="771.8" y2="159.1"/>
<line class="st14" x1="780.8" y1="159.1" x2="780.8" y2="159.1"/>
<line class="st14" x1="736.4" y1="149.3" x2="736.4" y2="149.3"/>
<line class="st14" x1="745.4" y1="149.3" x2="745.4" y2="149.3"/>
<line class="st14" x1="736.4" y1="123.4" x2="736.4" y2="123.4"/>
<line class="st14" x1="745.4" y1="123.4" x2="745.4" y2="123.4"/>
<line class="st13" x1="687.4" y1="122.6" x2="687.2" y2="122.6"/>
<line class="st13" x1="693" y1="122.6" x2="692.7" y2="122.6"/>
<line class="st14" x1="773.7" y1="158.3" x2="773.7" y2="158.3"/>
<line class="st13" x1="779.2" y1="158.3" x2="779" y2="158.3"/>
<line class="st13" x1="738.2" y1="122.6" x2="738" y2="122.6"/>
<line class="st14" x1="743.5" y1="122.6" x2="743.5" y2="122.6"/>
<polyline class="st13" points="765.7,393.3 765.7,395.6 765.7,396.8 "/>
<g>
	<g id="_x23_3d3884ff_1_">
		<path class="st9" d="M782.1,212.8c0,0,0.1,0,0.2,0c0.6,1.2,1.1,2.4,1.7,3.6c0.1,0.1,0.2,0.5-0.1,0.4c-0.6-1.2-1.1-2.4-1.7-3.6
			C782.1,213.1,781.9,212.9,782.1,212.8z"/>
		<path class="st9" d="M782.8,213c0.1-0.1,0.3,0.1,0.3,0.2c0.4,0.9,0.8,1.8,1.2,2.5c0.1,0.2,0.2,0.5-0.1,0.4
			c-0.3-0.6-0.6-1.2-0.8-1.8C783.2,214,783,213.5,782.8,213L782.8,213z"/>
		<path class="st9" d="M781.4,213.4c-0.1-0.2,0.1-0.3,0.2-0.4c0.4,0.8,0.8,1.7,1.2,2.4c0.2,0.5,0.5,1,0.7,1.5
			c-0.1,0-0.2,0.1-0.2,0.2c-0.2-0.2-0.3-0.5-0.4-0.8C782.3,215.3,781.9,214.3,781.4,213.4z"/>
		<path class="st9" d="M780.7,213.6c-0.1-0.2,0.1-0.2,0.1-0.3c0.6,1.3,1.2,2.5,1.8,3.8c0.1,0.2,0,0.3-0.2,0.3
			C781.9,216.2,781.3,214.9,780.7,213.6z"/>
		<path class="st9" d="M783.8,213.7c0.3,0.1,0.6,0.3,0.7,0.6s0,0.6,0,0.9C784.1,214.6,783.9,214.1,783.8,213.7z"/>
		<path class="st9" d="M809.6,214.5c0.6-0.1,1.3-0.1,1.8,0.2c0.9,0.4,1.6,1.4,1.6,2.3c0.1,1.2-0.8,2.3-2,2.6c-0.5,0.1-1,0.1-1.5,0
			c-1.1-0.3-2-1.4-2-2.5C807.4,216,808.4,214.8,809.6,214.5 M809.7,215c-1.1,0.2-1.8,1.3-1.8,2.3c0,0.5,0.2,0.9,0.5,1.3
			c0.6,0.7,1.7,1.1,2.4,0.8c0.5-0.1,0.9-0.5,1.2-0.9c0.5-0.6,0.5-1.5,0.3-2.2C811.9,215.3,810.7,214.6,809.7,215z"/>
		<path class="st9" d="M753,215.2c1.7,0,3.2,0,4.9,0c2.1,0,4.1-0.1,6.2,0.3c1.8,0.3,3.4,1,4.8,2.1c1.9,1.5,2.9,3.8,3.3,6.1
			c0.4,2,0.4,4,0.1,6c-0.2,1.5-0.7,2.9-1.5,4.3c-0.8,1.3-1.9,2.3-3.1,3.1c-1.2,0.7-2.5,1.1-3.9,1.4c-2.2,0.4-4.3,0.3-6.5,0.3
			c-1.3,0-2.5,0-3.9,0c-0.2,0-0.5,0-0.6-0.3s-0.1-0.6-0.1-0.9c0.1-5.3,0-10.6,0-15.8c0-2,0-3.9,0-5.9
			C752.6,215.6,752.7,215.2,753,215.2 M757.3,219.2c-0.2,0.1-0.3,0.3-0.3,0.5c0,4.8,0,9.7,0,14.5c0,0.2,0.1,0.4,0.3,0.4
			c0.8,0,1.6,0,2.3,0c1.8,0,3.7-0.1,5.3-1c1.5-0.8,2.3-2.3,2.6-3.9c0.3-1.6,0.4-3.1,0.2-4.6c-0.1-0.8-0.3-1.6-0.6-2.3
			c-0.5-1.2-1.5-2.2-2.6-2.7c-1.8-0.8-3.7-0.8-5.7-0.7C758.3,219.2,757.8,219.2,757.3,219.2z"/>
		<path class="st9" d="M808.9,215.6c0.6,0,1.2,0,1.8,0.1c0.4,0.1,0.7,0.6,0.6,1c0,0.3-0.3,0.4-0.5,0.6c0.5,0.3,0.6,1,0.9,1.5
			c-0.3,0-0.6,0-0.8,0c-0.2-0.3-0.3-0.7-0.5-1c-0.1-0.2-0.4-0.2-0.6-0.2c0,0.4,0,0.8,0,1.2c-0.3,0-0.5,0-0.8,0
			C808.9,217.7,808.9,216.6,808.9,215.6 M809.7,216.2c0,0.3,0,0.5,0,0.8c0.2,0,0.4,0,0.7-0.1c0.2-0.1,0.2-0.5,0-0.7
			C810.2,216.1,810,216.2,809.7,216.2z"/>
		<path class="st9" d="M787.2,222.6c1.2-1,2.7-1.4,4.3-1.2c0.8,0.1,1.6,0.2,2.2,0.6c0.6,0.3,1.1,0.8,1.5,1.3
			c0.1,0.2,0.3,0.3,0.5,0.1c0.8-0.9,1.8-1.6,2.9-1.9c1-0.2,2-0.2,2.8,0c1.2,0.2,2.2,0.8,2.9,1.8c0.9,1.4,1.1,3,1.2,4.6
			c0,3.1,0,6.3,0,9.3c0,0.4,0,0.8,0,1.3c0,0.3-0.4,0.3-0.6,0.3c-1,0-1.9-0.1-2.8,0c-0.2,0-0.5,0-0.7-0.1s-0.2-0.4-0.2-0.6
			c0-3.4,0-6.9,0-10.4c0-0.8,0-1.8-0.7-2.3c-0.6-0.5-1.5-0.3-2.1,0c-0.9,0.4-1.6,1.1-2.2,1.9c0,3.6,0,7.3,0,11c0,0.2,0,0.4-0.2,0.6
			c-0.2,0.2-0.5,0.1-0.8,0.1c-1-0.1-1.9,0-2.8,0c-0.3,0-0.5-0.3-0.4-0.6c0-3.4,0-6.9,0-10.4c0-0.7-0.1-1.5-0.5-2.2
			c-0.3-0.5-1-0.7-1.6-0.6c-1.1,0.2-2,0.9-2.6,1.7c-0.1,0.1-0.3,0.3-0.3,0.5c0,3.6,0,7.2,0,10.9c0,0.3,0,0.7-0.4,0.7c-1,0-2.1,0-3,0
			c-0.2,0-0.4,0-0.6-0.1s-0.2-0.4-0.2-0.5c0-5.3,0-10.6,0-15.8c0-0.2,0-0.6,0.3-0.6c1,0,2,0,2.9,0c0.3,0,0.7-0.1,0.9,0.1
			C787.3,222,787.2,222.3,787.2,222.6z"/>
		<path class="st9" d="M775.5,221.7c0.5-0.1,1,0,1.5,0c0.7,0,1.5,0,2.2,0c0.3,0,0.4,0.3,0.3,0.5c0,3.5,0,7,0,10.6c0,1.8,0,3.4,0,5.2
			c0,0.2,0,0.4-0.1,0.6c-0.2,0.1-0.5,0.1-0.7,0.1c-1.1-0.1-2.1,0-3.1,0c-0.3,0-0.3-0.3-0.3-0.5c0-5.3,0-10.7,0-15.9
			C775.3,222.1,775.3,221.8,775.5,221.7z"/>
		<path class="st9" d="M758.1,240.4c4.3,0,8.6,0,12.9,0c5.7,0,11.2,0,16.9,0.2c2,0.1,4,0.1,6,0.2c3.9,0.1,7.8,0.3,11.7,0.4
			c1.2,0,2.2,0,3.4,0.1c-0.3,0.1-0.6,0.2-0.9,0.2c-5.2,0.2-10.4,0.4-15.5,0.5c-5.1,0-10.3,0-15.4,0c-7,0-14.2,0-21.2,0
			c-2.2,0-4.5,0-6.7,0c-1.6,0-3.1,0-4.6-0.1c0.1-0.3,0.2-0.6,0.2-1c0-0.1-0.1-0.3,0-0.4C749.2,240.4,753.7,240.4,758.1,240.4z"/>
		<path class="st9" d="M714.1,240.9c7-0.2,14.2-0.4,21.2-0.5c0.2,0,0.4,0,0.3,0.2c-0.1,0.3,0.1,0.7,0.1,1c-0.4,0.1-0.7,0-1.1,0
			c-2.3,0-4.8-0.1-7.1-0.2c-3.9-0.1-7.9-0.2-11.8-0.3c-1.1,0-2.2,0-3.3-0.1C712.9,240.8,713.5,240.9,714.1,240.9z"/>
	</g>
	<g id="_x23_8fbb45ff_1_">
		<path class="st9" d="M773.3,217c0.1-2.2,2.2-3.8,4.2-3.8c1.5,0,2.8,0.9,3.5,2.2c0.5,0.9,0.6,2.1,0.4,3c0,0.2-0.1,0.4-0.1,0.6
			c0.1,0.1,0.2,0.2,0.3,0.3c-0.5,0.3-0.9,0.6-1.3,1c-1,1.1-2.6,1.5-4,1C774.5,220.7,773.2,218.8,773.3,217 M775,215
			c-1.2,1.2-1.2,3.2-0.2,4.4c0.9,1.1,2.3,1.6,3.6,1.3c0.7-0.2,1.2-0.7,1.6-1.3c0.2-0.3,0.2-0.6,0.1-1c0.2,0,0.4,0.1,0.5,0
			s0.2-0.3,0.2-0.5c0.2-1.1-0.2-2.2-0.9-3c-0.5-0.5-1.1-0.8-1.8-1C776.9,213.8,775.7,214.1,775,215z"/>
		<path class="st9" d="M776.8,214.7c0.6-0.1,1.4-0.1,1.9,0.3c0.9,0.5,1.5,1.6,1.4,2.6c-0.1,1-0.9,2-2,2.2c-0.8,0.2-1.7,0-2.2-0.5
			c-0.8-0.6-1.3-1.8-1-2.7C775.1,215.7,775.9,215,776.8,214.7 M776.3,215.7c0.5,0,1.1-0.2,1.6-0.1c0.4,0.1,0.7,0.4,1,0.7
			c0.1-0.1,0.2-0.2,0.1-0.3C778.4,215.1,777.1,215,776.3,215.7z"/>
		<path class="st9" d="M702.8,215.2c3.8,0,7.6,0,11.3,0c0.2,0,0.5,0,0.7,0.2c0.1,0.2,0,0.5,0,0.8c-0.1,0.4,0,0.8-0.1,1.2
			c-0.1,0.3-0.5,0.4-0.8,0.4c-2.2,0-4.4,0-6.6,0.1c-0.2,0-0.3,0-0.5,0.1c-0.2,0.2-0.2,0.4-0.2,0.7c0,2.1,0,4.1,0,6.2
			c0,0.2,0,0.6,0.3,0.7c0.2,0.1,0.5,0.1,0.8,0.1c2,0,3.9,0.1,5.9,0.1c0.2,0,0.5,0,0.6,0.2c0.1,0.3-0.1,0.6,0,1c0,0.3,0.1,0.9-0.3,1
			c-0.5,0.2-1,0.1-1.5,0.1c-1.7,0-3.3,0.1-5,0.1c-0.3-0.1-0.7,0.2-0.6,0.6c0,2.3,0,4.8,0,7.1c0,0.2,0,0.4,0.1,0.5
			c0.2,0.2,0.4,0.2,0.6,0.2c2.5,0,5.2,0.1,7.7,0.1c0.1,0,0.3,0.1,0.3,0.2c0,0.5,0,1.1-0.1,1.6c0,0.3-0.3,0.4-0.5,0.5
			c-0.3,0.1-0.6,0.1-1,0.1c-3.5,0-6.9,0-10.5,0c-0.3,0-0.7,0.1-1-0.1c-0.1-0.1-0.1-0.3-0.1-0.5c0-7.4,0-14.8,0-22.2
			C702.4,215.5,702.5,215.2,702.8,215.2z"/>
		<path class="st9" d="M732.9,227.2c1.6-3.1,5.2-5.1,8.7-4.8c1.7,0.1,3.3,0.7,4.6,1.7c1.4,1,2.4,2.3,3.1,4c0.7,1.8,0.7,3.6,0.3,5.5
			c-0.6,2.3-2,4.7-4.2,5.9c-0.4,0.2-0.9,0.3-1.4,0.5c-0.4,0.2-0.1,0.7-0.1,1c0.1,0.5-0.2,1.1-0.7,1.1c-1,0.1-2,0-2.9,0
			c0.1,0.1,0.2,0.3,0.3,0.4c0.6,0.5,1.3,1,1.9,1.6c0.3,0.2,0.4,0.6,0.3,1c-1.9,0-3.7,0-5.6,0c-0.1-0.3,0-0.8,0.3-1
			c0.4-0.3,0.9-0.1,1.3-0.2c-0.1-0.1-0.1-0.1-0.2-0.2c-0.7-0.6-1.4-1.1-2-1.7c-0.3-0.2-0.4-0.7-0.2-1c0.1-0.3,0.5-0.5,0.8-0.5
			c1.5,0,2.9,0,4.3,0c0.3,0,0.6,0,0.7-0.3c0-0.5-0.3-1.1,0-1.7c0.2-0.4,0.7-0.4,1.1-0.5c1.3-0.2,2.5-0.7,3.4-1.7
			c0.8-1,1.2-2.2,1.5-3.3c0.3-1.7,0.2-3.4-0.6-4.9c-0.7-1.4-1.8-2.4-3.1-3.1c-1.6-0.8-3.4-1-5.2-0.7c-1.6,0.4-3,1.3-4.1,2.5
			c-1.9,2.3-2,6-0.2,8.4c0.3,0.5,0.8,0.8,1,1.4c0.2,0.6-0.5,1.2-1.1,0.9c-0.4-0.2-0.7-0.6-1-1C731.8,234,731.4,230.2,732.9,227.2z"
			/>
		<path class="st9" d="M722.4,223.2c1.9-0.8,3.9-0.8,5.9-0.5c0.7,0.1,1.4,0.2,2.1,0.4c0.2,0,0.2,0.3,0.2,0.5
			c-0.2,0.8-0.4,1.7-0.6,2.4c0,0.3-0.3,0.2-0.5,0.1c-0.9-0.4-1.8-0.8-2.6-1c-0.7-0.1-1.5-0.1-2.2,0c-0.5,0.1-1,0.3-1.3,0.7
			c-0.3,0.4-0.4,0.8-0.5,1.2c-0.3,1.1-0.3,2.2-0.3,3.4c0,1.6-0.1,3.3,0.8,4.7c0.5,0.8,1.5,1.2,2.3,1.2c1.7,0,3.2-0.4,4.8-1
			c0.2,0.3,0.4,0.6,0.4,0.9c0,0.2-0.1,0.3-0.2,0.5c-1.1,0.9-2.3,1.6-3.7,2c-1.9,0.5-3.8,0.4-5.6-0.4c-1.2-0.6-2.1-1.6-2.5-2.8
			c-1.1-2.8-1.1-6.1,0.2-8.9C719.6,225.1,720.9,223.8,722.4,223.2z"/>
	</g>
</g>
<text transform="matrix(1 0 0 1 710.8711 264.8019)" class="st9 st10 st19">ECO-DIM.10</text>
<text transform="matrix(1 0 0 1 664.9238 116.7189)" class="st9 st10 st20">MIN</text>
<text transform="matrix(1 0 0 1 715.0586 116.7199)" class="st9 st10 st20">MAX</text>
<text transform="matrix(1 0 0 1 640.8242 195.8204)" class="st9 st10 st20">RESET</text>
<text transform="matrix(1 0 0 1 579.1084 213.6906)" class="st9 st10 st20">INDICATOR</text>
<line class="st13" x1="590.6" y1="343" x2="590.6" y2="379.3"/>
<path class="st13" d="M590.6,343v36.3V343z"/>
<path class="st13" d="M764.4,379.3V343V379.3z"/>
<path class="st15" d="M590.6,343h173.9H590.6z"/>
<g>
	<path class="st1" d="M788.6,161.9c-5.7-6.8-15.7-7.6-22.5-2c-6.8,5.7-7.6,15.7-2,22.5c5.7,6.8,15.7,7.6,22.5,2
		C793.4,178.8,794.3,168.7,788.6,161.9"/>
	<path class="st1" d="M786.8,163.4c-4.8-5.7-13.4-6.5-19.2-1.7c-5.7,4.8-6.5,13.4-1.7,19.2c4.8,5.7,13.4,6.5,19.2,1.7
		S791.6,169.2,786.8,163.4"/>
	<path class="st1" d="M768.3,175.8c-1.1,0.9-1.1,2.4-0.3,3.4c0.9,1.1,2.4,1.1,3.4,0.3"/>
	<path class="st1" d="M784.6,168.4c1.1-0.9,1.1-2.4,0.3-3.4c-0.9-1.1-2.4-1.1-3.4-0.3"/>
	<line class="st2" x1="768.3" y1="175.8" x2="781.5" y2="164.7"/>
	<line class="st2" x1="771.4" y1="179.6" x2="784.6" y2="168.4"/>
</g>
<g>
	<path class="st1" d="M753.5,126c-5.7-6.8-15.7-7.6-22.5-2c-6.8,5.7-7.6,15.7-2,22.5c5.7,6.8,15.7,7.6,22.5,2
		C758.3,142.9,759.1,132.8,753.5,126"/>
	<path class="st1" d="M751.7,127.6c-4.8-5.7-13.4-6.5-19.2-1.7c-5.7,4.8-6.5,13.4-1.7,19.2c4.8,5.7,13.4,6.5,19.2,1.7
		C755.7,141.9,756.5,133.3,751.7,127.6"/>
	<path class="st1" d="M733.1,139.9c-1.1,0.9-1.1,2.4-0.3,3.4c0.9,1.1,2.4,1.1,3.4,0.3"/>
	<path class="st1" d="M749.5,132.6c1.1-0.9,1.1-2.4,0.3-3.4c-0.9-1.1-2.4-1.1-3.4-0.3"/>
	<line class="st2" x1="733.1" y1="139.9" x2="746.4" y2="128.8"/>
	<line class="st2" x1="736.3" y1="143.7" x2="749.5" y2="132.6"/>
</g>
<g>
	<path class="st1" d="M702.1,126.2c-5.7-6.8-15.7-7.6-22.5-2s-7.6,15.7-2,22.5c5.7,6.8,15.7,7.6,22.5,2
		C706.9,143,707.8,132.9,702.1,126.2"/>
	<path class="st1" d="M700.3,127.7c-4.8-5.7-13.4-6.5-19.2-1.7s-6.5,13.4-1.7,19.2c4.8,5.7,13.4,6.5,19.2,1.7
		C704.4,142,705.1,133.4,700.3,127.7"/>
	<path class="st1" d="M681.8,140c-1.1,0.9-1.1,2.4-0.3,3.4c0.9,1.1,2.4,1.1,3.4,0.3"/>
	<path class="st1" d="M698.1,132.7c1.1-0.9,1.1-2.4,0.3-3.4c-0.9-1.1-2.4-1.1-3.4-0.3"/>
	<line class="st2" x1="681.8" y1="140" x2="695" y2="128.9"/>
	<line class="st2" x1="684.9" y1="143.8" x2="698.1" y2="132.7"/>
</g>
<text transform="matrix(1 0 0 1 726.6504 163.7306)" class="st9 st10 st20">SPEED</text>
<g>
	<g id="_x23_ec0444ff_1_">
		<path class="st9" d="M565.8,268.3h1.2c3,0.2,6.2,1.5,8.1,3.9c1.7,2,3,4.9,3,7.6c0,2.2-0.7,4.4-1.7,6.2c-1.7,0.2-3.2,0.5-4.9,0.5
			c-2.7,0.2-5.7,0.2-8.4,0c3.9-3.9,7.6-7.9,11.6-11.8c0-0.7-0.2-1.5-1-2.2c-0.7-0.7-1.5-1-2.5-1.2c-1.5-0.2-3-0.2-4.4-0.2
			c-2.7,0-5.7,0.2-8.4,0.5C560.4,269.7,563.1,268.3,565.8,268.3z"/>
		<path class="st9" d="M557.4,272.9c4.2-0.5,8.6-1,13.1-0.5c-3.9,3.9-7.6,7.9-11.6,11.8c0,0.7,0.2,1.5,1,2.2c0.7,0.7,2,1,3,1.2
			c4.2,0.5,8.6,0,12.8-0.5c-1.2,1.5-2.7,2.5-4.4,3.2c-2.5,1-5.2,1.2-7.6,0.5c-2.2-0.7-4.2-2-5.7-3.7c-1.5-2-2.5-4.2-2.7-6.7v-1.2
			C555.5,276.9,555.9,274.9,557.4,272.9z"/>
	</g>
	<g id="_x23_000000ff_1_">
		<path class="st9" d="M599.3,269.2c1-0.2,2,0.2,2.2,1.2c0.5,0.7,0.2,1.7-0.5,2.5c-0.7,0.7-2,0.7-2.7,0.2c-0.7-0.5-1-1.7-0.7-2.5
			C597.8,269.7,598.6,269.2,599.3,269.2z"/>
		<path class="st9" d="M617.8,270c1.2,0,2.2,0,3.4,0c0,2,0,3.7,0,5.7c0.7-0.7,1.5-1.2,2.5-1.5c1.2-0.2,2.7,0,3.7,0.5
			c1.2,0.7,2.2,2,2.7,3.2c0.2,1,0.5,2.2,0.2,3.2c0,1.2-0.5,2.5-1.2,3.4c-0.7,1-1.7,1.7-2.7,2c-1,0.5-2.2,0.5-3.4,0
			c-0.7-0.2-1.5-0.7-2-1.5c0,0.5,0,1,0,1.7c-1.2,0-2.2,0-3.4,0C617.8,281.1,617.8,275.6,617.8,270 M624,276.9c-0.7,0-1.5,0.5-2,1
			c-0.7,0.7-0.7,2-0.7,3c0.2,1,0.5,1.7,1.2,2.2c1,0.7,2.5,0.7,3.4,0c1-0.7,1.2-2,1.2-3c0-1-0.2-2-1-2.5
			C625.7,277.1,624.7,276.9,624,276.9z"/>
		<path class="st9" d="M606,274.7c1-0.5,2.2-0.7,3.2-0.5c1.2,0.2,2.5,1,3.4,2.2c0-0.7,0-1.2,0-2c1.2,0,2.5,0,3.4,0
			c0,3.4,0,6.9,0,10.3c0,1.5-0.2,3-0.7,4.4c-0.5,1.2-1.2,2.2-2.2,3s-2.5,1.2-3.9,1.2h-0.7c-2.2,0-4.4-1-5.9-2.7
			c0.7-0.7,1.5-1.5,2.2-2.2c1,1,2.2,1.7,3.4,2s2.7-0.2,3.4-1.5c0.7-1,0.7-2.2,0.7-3.4c-0.5,0.5-1.2,1.2-2,1.5
			c-1,0.5-2.2,0.5-3.2,0.2c-1.2-0.2-2.5-1-3.2-2c-1-1.2-1.5-2.7-1.5-4.2c0-1.5,0.2-2.7,1-3.9C604.2,275.6,605,274.9,606,274.7
			 M608.7,276.9c-0.7,0.2-1.2,0.5-1.7,1.2c-0.5,0.7-0.7,2-0.7,3s0.5,1.7,1.2,2.5c0.7,0.5,2,0.7,2.7,0.2c0.7-0.2,1.2-0.7,1.5-1.2
			c0.5-1,0.7-2.2,0.2-3.2c-0.2-0.7-0.7-1.5-1.2-2S609.7,276.9,608.7,276.9z"/>
		<path class="st9" d="M634.3,275.4c1-0.7,2.2-1.2,3.4-1.2s2.5,0,3.7,0.5s2.5,1.7,3,3c0.2,0.7,0.5,1.7,0.5,2.5c-3,1-5.9,1.7-8.6,2.7
			c0.5,0.5,1,1,1.5,1c1.5,0.2,3-0.2,3.9-1.5c0.7,0.7,1.2,1.5,2,2.2c-1.2,1.2-3,2-4.7,2.2c-2,0.2-3.9-0.5-5.4-1.7c-1-1-1.7-2.2-2-3.4
			s0-2.5,0.2-3.7C632.6,277.1,633.3,276.1,634.3,275.4 M635.8,278.4c-0.5,0.5-0.7,1.5-0.7,2.2c2-0.7,4.2-1.2,6.2-2
			c-0.5-1-1.5-1.5-2.5-1.5C637.5,276.9,636.3,277.4,635.8,278.4z"/>
		<path class="st9" d="M651.1,274.2c1.2-0.2,2.5,0,3.7,0.2c1.2,0.5,2.2,1.2,3,2.2s1,2.2,1,3.4c-3,1-5.9,1.7-8.6,2.7
			c0.5,0.5,1,1,1.7,1c1.5,0.2,3-0.2,3.9-1.5c0.7,0.7,1.5,1.5,2,2.2c-1,1-2,1.5-3.2,2c-1.5,0.5-3.2,0.5-4.7-0.2
			c-1.5-0.5-2.5-1.5-3.2-2.7c-0.7-1.2-1-2.7-0.7-4.2c0.2-1.2,0.7-2.7,1.7-3.4C648.6,274.9,649.8,274.2,651.1,274.2 M650.3,278.1
			c-0.7,0.7-1,1.5-1,2.5c2-0.7,4.2-1.2,6.2-2c-0.5-0.5-1-1-1.7-1.2C652.3,276.6,651.1,277.1,650.3,278.1z"/>
		<path class="st9" d="M585.8,274.2c3.4,0,6.7,0,10.1,0c0,1,0,1.7,0,2.7c-2,2.2-3.9,4.4-5.9,6.9c2.2,0,4.2,0,6.4,0c0,1,0,2,0,3
			c-3.7,0-7.1,0-10.8,0c0-1,0-2,0-3c2-2.2,3.9-4.4,5.9-6.7c-1.7,0-3.7,0-5.4,0C585.8,276.1,585.8,275.2,585.8,274.2z"/>
		<path class="st9" d="M597.6,286.7c0-4.2,0-8.4,0-12.6c1.2,0,2.5,0,3.4,0c0,4.2,0,8.4,0,12.6C600.1,286.7,598.8,286.7,597.6,286.7z
			"/>
	</g>
</g>
</svg>
